<?xml version="1.0" encoding="UTF-8" standalone="no"?> <!DOCTYPE svg PUBLIC "-//W3C//DTD SVG 1.1//EN" "http://www.w3.org/Graphics/SVG/1.1/DTD/svg11.dtd"> <!-- Generated by graphviz version 2.40.1 (20161225.0304) --> <!-- Title: distributed Pages: 1 --> <svg width="1096pt" height="928pt" viewBox="0.00 0.00 1096.00 927.69" xmlns="http://www.w3.org/2000/svg" xmlns:xlink="http://www.w3.org/1999/xlink"> <g id="graph0" class="graph" transform="scale(1 1) rotate(0) translate(4 923.6939)"> <title>distributed</title> <polygon fill="#ffffff" stroke="transparent" points="-4,4 -4,-923.6939 1092,-923.6939 1092,4 -4,4"/> <g id="clust1" class="cluster"> <title>cluster_legend</title> <polygon fill="none" stroke="#000000" points="8,-787.6939 8,-911.6939 562,-911.6939 562,-787.6939 8,-787.6939"/> <text text-anchor="middle" x="38.9362" y="-895.0939" font-family="Times,serif" font-size="14.00" fill="#000000">Legend:</text> </g> <g id="clust2" class="cluster"> <title>cluster_preprocess_for_pt</title> <polygon fill="none" stroke="#ff0000" points="172,-513.2313 172,-779.6939 1080,-779.6939 1080,-513.2313 172,-513.2313"/> <text text-anchor="middle" x="273.6866" y="-763.0939" font-family="Times,serif" font-size="14.00" fill="#ff0000">Preprocess to feed PT calculation</text> </g> <g id="clust3" class="cluster"> <title>cluster_pt_calculation</title> <polygon fill="none" stroke="#ff0000" points="329,-422.8313 329,-505.2313 821,-505.2313 821,-422.8313 329,-422.8313"/> <text text-anchor="middle" x="469.1726" y="-488.6313" font-family="Times,serif" font-size="14.00" fill="#ff0000">PT calculation fallbacks as crowfly (no details)</text> </g> <g id="clust4" class="cluster"> <title>cluster_assembly</title> <polygon fill="none" stroke="#ff0000" points="303,-64 303,-330.0313 821,-330.0313 821,-64 303,-64"/> <text text-anchor="middle" x="363.682" y="-313.4313" font-family="Times,serif" font-size="14.00" fill="#ff0000">Journeys assembly</text> </g> <g id="clust5" class="cluster"> <title>cluster_journey_fiflters</title> <polygon fill="none" stroke="#ff0000" points="476,-338.0313 476,-414.8313 649,-414.8313 649,-338.0313 476,-338.0313"/> <text text-anchor="middle" x="562.9285" y="-398.2313" font-family="Times,serif" font-size="14.00" fill="#ff0000">(Common) Journey filtering</text> </g> <!-- legend_delegated --> <g id="node1" class="node"> <title>legend_delegated</title> <ellipse fill="none" stroke="#000000" cx="465" cy="-837.2939" rx="89.2001" ry="29.3315"/> <text text-anchor="middle" x="465" y="-841.4939" font-family="Times,serif" font-size="14.00" fill="#000000">Street network</text> <text text-anchor="middle" x="465" y="-824.6939" font-family="Times,serif" font-size="14.00" fill="#000000">external calculation</text> </g> <!-- legend_kraken --> <g id="node2" class="node"> <title>legend_kraken</title> <polygon fill="#add8e6" stroke="#add8e6" points="357.8214,-857.8958 294.1786,-857.8958 294.1786,-816.6919 357.8214,-816.6919 357.8214,-857.8958"/> <text text-anchor="middle" x="326" y="-841.4939" font-family="Times,serif" font-size="14.00" fill="#000000">Done by</text> <text text-anchor="middle" x="326" y="-824.6939" font-family="Times,serif" font-size="14.00" fill="#000000">Kraken</text> </g> <!-- legend_jormungandr --> <g id="node3" class="node"> <title>legend_jormungandr</title> <polygon fill="#ffffe0" stroke="#ffffe0" points="275.8711,-857.8958 186.1289,-857.8958 186.1289,-816.6919 275.8711,-816.6919 275.8711,-857.8958"/> <text text-anchor="middle" x="231" y="-841.4939" font-family="Times,serif" font-size="14.00" fill="#000000">Done by</text> <text text-anchor="middle" x="231" y="-824.6939" font-family="Times,serif" font-size="14.00" fill="#000000">Jormungandr</text> </g> <!-- legend_external --> <g id="node4" class="node"> <title>legend_external</title> <polygon fill="none" stroke="#c0c0c0" points="92,-878.9941 16.2662,-837.2939 92,-795.5936 167.7338,-837.2939 92,-878.9941"/> <text text-anchor="middle" x="92" y="-841.4939" font-family="Times,serif" font-size="14.00" fill="#000000">External</text> <text text-anchor="middle" x="92" y="-824.6939" font-family="Times,serif" font-size="14.00" fill="#000000">interaction</text> </g> <!-- req --> <g id="node5" class="node"> <title>req</title> <polygon fill="none" stroke="#c0c0c0" points="672,-855.2939 571.6502,-837.2939 672,-819.2939 772.3498,-837.2939 672,-855.2939"/> <text text-anchor="middle" x="672" y="-833.0939" font-family="Times,serif" font-size="14.00" fill="#000000">journey request</text> </g> <!-- res_orig --> <g id="node7" class="node"> <title>res_orig</title> <polygon fill="#add8e6" stroke="#add8e6" points="654.8675,-746.8939 561.1325,-746.8939 561.1325,-710.8939 654.8675,-710.8939 654.8675,-746.8939"/> <text text-anchor="middle" x="608" y="-724.6939" font-family="Times,serif" font-size="14.00" fill="#000000">resolve origin</text> </g> <!-- req&#45;&gt;res_orig --> <g id="edge1" class="edge"> <title>req&#45;&gt;res_orig</title> <path fill="none" stroke="#000000" d="M662.2798,-820.8302C652.0909,-803.5728 635.9195,-776.1824 623.8746,-755.7814"/> <polygon fill="#000000" stroke="#000000" points="626.7652,-753.793 618.6671,-746.9613 620.7373,-757.3519 626.7652,-753.793"/> </g> <!-- res_dest --> <g id="node8" class="node"> <title>res_dest</title> <polygon fill="#add8e6" stroke="#add8e6" points="795.8617,-746.8939 674.1383,-746.8939 674.1383,-710.8939 795.8617,-710.8939 795.8617,-746.8939"/> <text text-anchor="middle" x="735" y="-724.6939" font-family="Times,serif" font-size="14.00" fill="#000000">resolve destination</text> </g> <!-- req&#45;&gt;res_dest --> <g id="edge2" class="edge"> <title>req&#45;&gt;res_dest</title> <path fill="none" stroke="#000000" d="M681.5683,-820.8302C691.598,-803.5728 707.5168,-776.1824 719.3735,-755.7814"/> <polygon fill="#000000" stroke="#000000" points="722.5007,-757.3659 724.4995,-746.9613 716.4486,-753.8485 722.5007,-757.3659"/> </g> <!-- resp --> <g id="node6" class="node"> <title>resp</title> <polygon fill="none" stroke="#c0c0c0" points="746,-36 654.3418,-18 746,0 837.6582,-18 746,-36"/> <text text-anchor="middle" x="746" y="-13.8" font-family="Times,serif" font-size="14.00" fill="#000000">final response</text> </g> <!-- orig_free --> <g id="node9" class="node"> <title>orig_free</title> <polygon fill="#add8e6" stroke="#add8e6" points="663.9398,-663.4782 550.0602,-663.4782 550.0602,-627.4782 663.9398,-627.4782 663.9398,-663.4782"/> <text text-anchor="middle" x="607" y="-641.2782" font-family="Times,serif" font-size="14.00" fill="#000000">origin free access</text> </g> <!-- res_orig&#45;&gt;orig_free --> <g id="edge9" class="edge"> <title>res_orig&#45;&gt;orig_free</title> <path fill="none" stroke="#000000" d="M607.783,-710.7939C607.6533,-699.9723 607.4857,-685.989 607.3388,-673.7389"/> <polygon fill="#000000" stroke="#000000" points="610.8363,-673.5001 607.2166,-663.5428 603.8368,-673.5841 610.8363,-673.5001"/> </g> <!-- walk_dp --> <g id="node11" class="node"> <title>walk_dp</title> <ellipse fill="none" stroke="#000000" cx="735" cy="-645.4782" rx="53.2398" ry="29.3315"/> <text text-anchor="middle" x="735" y="-649.6782" font-family="Times,serif" font-size="14.00" fill="#000000">walking</text> <text text-anchor="middle" x="735" y="-632.8782" font-family="Times,serif" font-size="14.00" fill="#000000">direct path</text> </g> <!-- res_orig&#45;&gt;walk_dp --> <g id="edge3" class="edge"> <title>res_orig&#45;&gt;walk_dp</title> <path fill="none" stroke="#000000" d="M635.5571,-710.7939C651.9315,-700.0389 673.0604,-686.1611 691.6284,-673.9654"/> <polygon fill="#000000" stroke="#000000" points="693.7916,-676.732 700.2285,-668.3167 689.9487,-670.8812 693.7916,-676.732"/> </g> <!-- bike_dp --> <g id="node12" class="node"> <title>bike_dp</title> <ellipse fill="none" stroke="#000000" cx="1019" cy="-645.4782" rx="53.2398" ry="29.3315"/> <text text-anchor="middle" x="1019" y="-649.6782" font-family="Times,serif" font-size="14.00" fill="#000000">bike</text> <text text-anchor="middle" x="1019" y="-632.8782" font-family="Times,serif" font-size="14.00" fill="#000000">direct path</text> </g> <!-- res_orig&#45;&gt;bike_dp --> <g id="edge6" class="edge"> <title>res_orig&#45;&gt;bike_dp</title> <path fill="none" stroke="#000000" d="M654.7852,-713.3717C658.223,-712.4616 661.6537,-711.622 665,-710.8939 792.77,-683.0893 831.4349,-711.386 957,-674.8939 961.6191,-673.5514 966.3234,-671.9008 970.9712,-670.0725"/> <polygon fill="#000000" stroke="#000000" points="972.5257,-673.2157 980.3863,-666.112 969.8115,-666.7633 972.5257,-673.2157"/> </g> <!-- orig_walk_pl --> <g id="node13" class="node"> <title>orig_walk_pl</title> <polygon fill="#add8e6" stroke="#add8e6" points="278.0442,-666.0801 179.9558,-666.0801 179.9558,-624.8763 278.0442,-624.8763 278.0442,-666.0801"/> <text text-anchor="middle" x="229" y="-649.6782" font-family="Times,serif" font-size="14.00" fill="#000000">walking origin</text> <text text-anchor="middle" x="229" y="-632.8782" font-family="Times,serif" font-size="14.00" fill="#000000">proximity list</text> </g> <!-- res_orig&#45;&gt;orig_walk_pl --> <g id="edge11" class="edge"> <title>res_orig&#45;&gt;orig_walk_pl</title> <path fill="none" stroke="#000000" d="M561.2273,-725.4807C497.7691,-719.8546 381.4743,-705.9935 287,-674.8939 283.0186,-673.5832 278.9722,-672.0341 274.9633,-670.3432"/> <polygon fill="#000000" stroke="#000000" points="276.2813,-667.0983 265.7258,-666.1861 273.4086,-673.4817 276.2813,-667.0983"/> </g> <!-- orig_bike_pl --> <g id="node14" class="node"> <title>orig_bike_pl</title> <polygon fill="#add8e6" stroke="#add8e6" points="387.8395,-666.0801 296.1605,-666.0801 296.1605,-624.8763 387.8395,-624.8763 387.8395,-666.0801"/> <text text-anchor="middle" x="342" y="-649.6782" font-family="Times,serif" font-size="14.00" fill="#000000">bike origin</text> <text text-anchor="middle" x="342" y="-632.8782" font-family="Times,serif" font-size="14.00" fill="#000000">proximity list</text> </g> <!-- res_orig&#45;&gt;orig_bike_pl --> <g id="edge13" class="edge"> <title>res_orig&#45;&gt;orig_bike_pl</title> <path fill="none" stroke="#000000" d="M561.3136,-720.313C517.8788,-711.548 451.8017,-696.202 397,-674.8939 393.7215,-673.6191 390.3895,-672.1942 387.0703,-670.6779"/> <polygon fill="#000000" stroke="#000000" points="388.3329,-667.4011 377.8051,-666.2108 385.2928,-673.7065 388.3329,-667.4011"/> </g> <!-- dest_free --> <g id="node10" class="node"> <title>dest_free</title> <polygon fill="#add8e6" stroke="#add8e6" points="947.9342,-663.4782 806.0658,-663.4782 806.0658,-627.4782 947.9342,-627.4782 947.9342,-663.4782"/> <text text-anchor="middle" x="877" y="-641.2782" font-family="Times,serif" font-size="14.00" fill="#000000">destination free access</text> </g> <!-- res_dest&#45;&gt;dest_free --> <g id="edge10" class="edge"> <title>res_dest&#45;&gt;dest_free</title> <path fill="none" stroke="#000000" d="M765.8119,-710.7939C786.8389,-698.4419 814.8777,-681.9709 837.5377,-668.6597"/> <polygon fill="#000000" stroke="#000000" points="839.3987,-671.6258 846.2482,-663.5428 835.8531,-665.5901 839.3987,-671.6258"/> </g> <!-- res_dest&#45;&gt;walk_dp --> <g id="edge5" class="edge"> <title>res_dest&#45;&gt;walk_dp</title> <path fill="none" stroke="#000000" d="M735,-710.7939C735,-703.2044 735,-694.0598 735,-685.0486"/> <polygon fill="#000000" stroke="#000000" points="738.5001,-685.0213 735,-675.0213 731.5001,-685.0214 738.5001,-685.0213"/> </g> <!-- res_dest&#45;&gt;bike_dp --> <g id="edge8" class="edge"> <title>res_dest&#45;&gt;bike_dp</title> <path fill="none" stroke="#000000" d="M795.8044,-717.6031C840.9759,-708.3781 903.7275,-693.7864 957,-674.8939 961.4669,-673.3097 966.0427,-671.5076 970.5857,-669.5935"/> <polygon fill="#000000" stroke="#000000" points="972.0689,-672.7648 979.8193,-665.5412 969.2557,-666.355 972.0689,-672.7648"/> </g> <!-- dest_walk_pl --> <g id="node15" class="node"> <title>dest_walk_pl</title> <polygon fill="#add8e6" stroke="#add8e6" points="532.0386,-666.0801 405.9614,-666.0801 405.9614,-624.8763 532.0386,-624.8763 532.0386,-666.0801"/> <text text-anchor="middle" x="469" y="-649.6782" font-family="Times,serif" font-size="14.00" fill="#000000">walking destination</text> <text text-anchor="middle" x="469" y="-632.8782" font-family="Times,serif" font-size="14.00" fill="#000000">proximity list</text> </g> <!-- res_dest&#45;&gt;dest_walk_pl --> <g id="edge15" class="edge"> <title>res_dest&#45;&gt;dest_walk_pl</title> <path fill="none" stroke="#000000" d="M674.0962,-712.7702C626.9063,-700.122 565.5607,-683.2974 541,-674.8939 536.4486,-673.3366 531.7696,-671.6431 527.0867,-669.8814"/> <polygon fill="#000000" stroke="#000000" points="528.0983,-666.5204 517.5086,-666.1915 525.5818,-673.0525 528.0983,-666.5204"/> </g> <!-- walking_pt_walking --> <g id="node19" class="node"> <title>walking_pt_walking</title> <polygon fill="#add8e6" stroke="#add8e6" points="576.8955,-472.2332 337.1045,-472.2332 337.1045,-431.0294 576.8955,-431.0294 576.8955,-472.2332"/> <text text-anchor="middle" x="457" y="-455.8313" font-family="Times,serif" font-size="14.00" fill="#000000">compute:</text> <text text-anchor="middle" x="457" y="-439.0313" font-family="Times,serif" font-size="14.00" fill="#000000">walking_crowfly&gt;PT&gt;walking_crowfly</text> </g> <!-- orig_free&#45;&gt;walking_pt_walking --> <g id="edge20" class="edge"> <title>orig_free&#45;&gt;walking_pt_walking</title> <path fill="none" stroke="#000000" d="M622.6281,-627.4302C644.7024,-599.6994 679.2392,-546.3529 650,-513.2313 640.5144,-502.4862 599.8546,-508.9032 586,-505.2313 559.5239,-498.2142 531.3013,-486.9564 508.0263,-476.5653"/> <polygon fill="#000000" stroke="#000000" points="509.2577,-473.2805 498.7053,-472.333 506.3636,-479.6543 509.2577,-473.2805"/> </g> <!-- bike_pt_walking --> <g id="node20" class="node"> <title>bike_pt_walking</title> <polygon fill="#add8e6" stroke="#add8e6" points="813.3984,-472.2332 594.6016,-472.2332 594.6016,-431.0294 813.3984,-431.0294 813.3984,-472.2332"/> <text text-anchor="middle" x="704" y="-455.8313" font-family="Times,serif" font-size="14.00" fill="#000000">compute:</text> <text text-anchor="middle" x="704" y="-439.0313" font-family="Times,serif" font-size="14.00" fill="#000000">bike_crowfly&gt;PT&gt;walking_crowfly</text> </g> <!-- orig_free&#45;&gt;bike_pt_walking --> <g id="edge25" class="edge"> <title>orig_free&#45;&gt;bike_pt_walking</title> <path fill="none" stroke="#000000" d="M636.8254,-627.3473C653.1005,-615.8524 672.1005,-599.4985 683,-580.0626 699.8778,-549.9662 704.0917,-510.0692 704.7448,-482.7772"/> <polygon fill="#000000" stroke="#000000" points="708.2459,-482.6592 704.838,-472.6275 701.2462,-482.5949 708.2459,-482.6592"/> </g> <!-- dest_free&#45;&gt;walking_pt_walking --> <g id="edge21" class="edge"> <title>dest_free&#45;&gt;walking_pt_walking</title> <path fill="none" stroke="#000000" d="M857.019,-627.4669C819.8112,-594.3576 740.6378,-526.0302 707,-513.2313 656.6279,-494.0651 638.477,-517.5134 586,-505.2313 558.6908,-498.8396 529.7293,-487.2842 506.1816,-476.5349"/> <polygon fill="#000000" stroke="#000000" points="507.6499,-473.3578 497.1069,-472.3107 504.6958,-479.7039 507.6499,-473.3578"/> </g> <!-- dest_free&#45;&gt;bike_pt_walking --> <g id="edge26" class="edge"> <title>dest_free&#45;&gt;bike_pt_walking</title> <path fill="none" stroke="#000000" d="M871.1631,-627.2922C861.6165,-599.8522 840.4181,-547.4438 808,-513.2313 794.4818,-498.9648 776.9351,-486.8923 760.1168,-477.3179"/> <polygon fill="#000000" stroke="#000000" points="761.3305,-473.992 750.8785,-472.2577 757.9677,-480.1314 761.3305,-473.992"/> </g> <!-- walk_dp&#45;&gt;walking_pt_walking --> <g id="edge19" class="edge"> <title>walk_dp&#45;&gt;walking_pt_walking</title> <path fill="none" stroke="#000000" d="M729.0661,-616.0324C721.1215,-584.924 703.7904,-537.1346 669,-513.2313 653.7275,-502.7381 603.9768,-509.7248 586,-505.2313 559.1171,-498.5116 530.534,-487.1129 507.1235,-476.5506"/> <polygon fill="#000000" stroke="#000000" points="508.3076,-473.2429 497.7596,-472.2468 505.3842,-479.6032 508.3076,-473.2429"/> </g> <!-- collect --> <g id="node26" class="node"> <title>collect</title> <polygon fill="#ffffe0" stroke="#ffffe0" points="807.0227,-108 684.9773,-108 684.9773,-72 807.0227,-72 807.0227,-108"/> <text text-anchor="middle" x="746" y="-85.8" font-family="Times,serif" font-size="14.00" fill="#000000">collect all journeys</text> </g> <!-- walk_dp&#45;&gt;collect --> <g id="edge4" class="edge"> <title>walk_dp&#45;&gt;collect</title> <path fill="none" stroke="#000000" d="M760.3896,-619.3985C791.7488,-584.3165 841,-518.5641 841,-451.6313 841,-451.6313 841,-451.6313 841,-267.8156 841,-212.1423 851.2256,-191.3855 822,-144 814.5474,-131.9166 803.2801,-121.7742 791.6869,-113.6613"/> <polygon fill="#000000" stroke="#000000" points="793.5178,-110.6764 783.2375,-108.1137 789.6759,-116.5279 793.5178,-110.6764"/> </g> <!-- bike_dp&#45;&gt;bike_pt_walking --> <g id="edge24" class="edge"> <title>bike_dp&#45;&gt;bike_pt_walking</title> <path fill="none" stroke="#000000" d="M990.2361,-620.6099C956.5194,-592.2529 898.2107,-545.6378 843,-513.2313 819.2865,-499.3124 791.8557,-486.5212 767.6596,-476.2448"/> <polygon fill="#000000" stroke="#000000" points="768.7871,-472.9225 758.2112,-472.2886 766.0834,-479.3793 768.7871,-472.9225"/> </g> <!-- bike_dp&#45;&gt;collect --> <g id="edge7" class="edge"> <title>bike_dp&#45;&gt;collect</title> <path fill="none" stroke="#000000" d="M1015.2921,-615.9762C1010.8502,-578.0231 1004,-510.0267 1004,-451.6313 1004,-451.6313 1004,-451.6313 1004,-267.8156 1004,-176.7072 893.5748,-128.7029 817.2093,-106.3983"/> <polygon fill="#000000" stroke="#000000" points="817.7177,-102.9047 807.1424,-103.5479 815.8106,-109.6399 817.7177,-102.9047"/> </g> <!-- orig_walk_matrix --> <g id="node16" class="node"> <title>orig_walk_matrix</title> <ellipse fill="none" stroke="#000000" cx="249" cy="-550.6469" rx="69.1559" ry="29.3315"/> <text text-anchor="middle" x="249" y="-554.8469" font-family="Times,serif" font-size="14.00" fill="#000000">walking origin</text> <text text-anchor="middle" x="249" y="-538.0469" font-family="Times,serif" font-size="14.00" fill="#000000">sn matrix</text> </g> <!-- orig_walk_pl&#45;&gt;orig_walk_matrix --> <g id="edge12" class="edge"> <title>orig_walk_pl&#45;&gt;orig_walk_matrix</title> <path fill="none" stroke="#000000" d="M233.4386,-624.4321C235.557,-614.3876 238.1637,-602.0281 240.6336,-590.3167"/> <polygon fill="#000000" stroke="#000000" points="244.1143,-590.7732 242.7533,-580.2661 237.2649,-589.3286 244.1143,-590.7732"/> </g> <!-- orig_bike_matrix --> <g id="node17" class="node"> <title>orig_bike_matrix</title> <ellipse fill="none" stroke="#000000" cx="587" cy="-550.6469" rx="54.4609" ry="29.3315"/> <text text-anchor="middle" x="587" y="-554.8469" font-family="Times,serif" font-size="14.00" fill="#000000">bike origin</text> <text text-anchor="middle" x="587" y="-538.0469" font-family="Times,serif" font-size="14.00" fill="#000000">sn matrix</text> </g> <!-- orig_bike_pl&#45;&gt;orig_bike_matrix --> <g id="edge14" class="edge"> <title>orig_bike_pl&#45;&gt;orig_bike_matrix</title> <path fill="none" stroke="#000000" d="M378.1634,-624.7438C384.3423,-621.6067 390.7771,-618.5821 397,-616.0626 450.9839,-594.2053 468.3818,-600.2826 523,-580.0626 527.5621,-578.3737 532.2518,-576.4993 536.9192,-574.538"/> <polygon fill="#000000" stroke="#000000" points="538.6363,-577.6085 546.4206,-570.4214 535.8533,-571.1854 538.6363,-577.6085"/> </g> <!-- dest_walk_matrix --> <g id="node18" class="node"> <title>dest_walk_matrix</title> <ellipse fill="none" stroke="#000000" cx="425" cy="-550.6469" rx="89.2457" ry="29.3315"/> <text text-anchor="middle" x="425" y="-554.8469" font-family="Times,serif" font-size="14.00" fill="#000000">walking destination</text> <text text-anchor="middle" x="425" y="-538.0469" font-family="Times,serif" font-size="14.00" fill="#000000">sn matrix</text> </g> <!-- dest_walk_pl&#45;&gt;dest_walk_matrix --> <g id="edge16" class="edge"> <title>dest_walk_pl&#45;&gt;dest_walk_matrix</title> <path fill="none" stroke="#000000" d="M459.235,-624.4321C454.4404,-614.0985 448.509,-601.3149 442.9378,-589.3074"/> <polygon fill="#000000" stroke="#000000" points="445.9593,-587.5036 438.5755,-579.9056 439.6095,-590.4499 445.9593,-587.5036"/> </g> <!-- orig_walk_matrix&#45;&gt;walking_pt_walking --> <g id="edge17" class="edge"> <title>orig_walk_matrix&#45;&gt;walking_pt_walking</title> <path fill="none" stroke="#000000" d="M295.1767,-528.4518C305.6364,-523.4368 316.6966,-518.1436 327,-513.2313 352.3751,-501.1333 380.5679,-487.7654 404.1951,-476.583"/> <polygon fill="#000000" stroke="#000000" points="405.8032,-479.6941 413.3455,-472.2534 402.8093,-473.3667 405.8032,-479.6941"/> </g> <!-- orig_bike_matrix&#45;&gt;bike_pt_walking --> <g id="edge22" class="edge"> <title>orig_bike_matrix&#45;&gt;bike_pt_walking</title> <path fill="none" stroke="#000000" d="M616.524,-525.6611C633.4311,-511.3529 654.6581,-493.3888 671.9676,-478.7399"/> <polygon fill="#000000" stroke="#000000" points="674.243,-481.3994 679.6154,-472.2677 669.721,-476.056 674.243,-481.3994"/> </g> <!-- dest_walk_matrix&#45;&gt;walking_pt_walking --> <g id="edge18" class="edge"> <title>dest_walk_matrix&#45;&gt;walking_pt_walking</title> <path fill="none" stroke="#000000" d="M434.5144,-521.2071C438.5267,-508.7922 443.1939,-494.3507 447.233,-481.8528"/> <polygon fill="#000000" stroke="#000000" points="450.5682,-482.914 450.3131,-472.3223 443.9074,-480.7613 450.5682,-482.914"/> </g> <!-- dest_walk_matrix&#45;&gt;bike_pt_walking --> <g id="edge23" class="edge"> <title>dest_walk_matrix&#45;&gt;bike_pt_walking</title> <path fill="none" stroke="#000000" d="M479.7763,-527.3501C493.9721,-522.0347 509.3826,-516.8834 524,-513.2313 550.9554,-506.4966 559.2778,-512.8387 586,-505.2313 610.3179,-498.3084 636.023,-487.1356 657.2119,-476.7778"/> <polygon fill="#000000" stroke="#000000" points="658.9124,-479.841 666.3029,-472.2494 655.7913,-473.5753 658.9124,-479.841"/> </g> <!-- Journey_Filters --> <g id="node27" class="node"> <title>Journey_Filters</title> <polygon fill="#ffffe0" stroke="#ffffe0" points="608.4734,-382.0313 515.5266,-382.0313 515.5266,-346.0313 608.4734,-346.0313 608.4734,-382.0313"/> <text text-anchor="middle" x="562" y="-359.8313" font-family="Times,serif" font-size="14.00" fill="#000000">journey_filter</text> </g> <!-- walking_pt_walking&#45;&gt;Journey_Filters --> <g id="edge27" class="edge"> <title>walking_pt_walking&#45;&gt;Journey_Filters</title> <path fill="none" stroke="#000000" d="M481.8835,-430.8713C496.9631,-418.2906 516.2922,-402.1647 532.1864,-388.9043"/> <polygon fill="#000000" stroke="#000000" points="534.7078,-391.3589 540.1443,-382.2652 530.2235,-385.9839 534.7078,-391.3589"/> </g> <!-- bike_pt_walking&#45;&gt;Journey_Filters --> <g id="edge33" class="edge"> <title>bike_pt_walking&#45;&gt;Journey_Filters</title> <path fill="none" stroke="#000000" d="M670.348,-430.8713C649.2998,-417.8866 622.1297,-401.1254 600.2634,-387.636"/> <polygon fill="#000000" stroke="#000000" points="601.9057,-384.5368 591.5572,-382.2652 598.2304,-390.4944 601.9057,-384.5368"/> </g> <!-- orig_walk_fallback --> <g id="node21" class="node"> <title>orig_walk_fallback</title> <ellipse fill="none" stroke="#000000" cx="741" cy="-267.8156" rx="71.5211" ry="29.3315"/> <text text-anchor="middle" x="741" y="-272.0156" font-family="Times,serif" font-size="14.00" fill="#000000">walking origin</text> <text text-anchor="middle" x="741" y="-255.2156" font-family="Times,serif" font-size="14.00" fill="#000000">fallback details</text> </g> <!-- assemble_walk_pt_walk --> <g id="node24" class="node"> <title>assemble_walk_pt_walk</title> <polygon fill="#ffffe0" stroke="#ffffe0" points="812.9349,-202.6014 667.0651,-202.6014 667.0651,-143.7986 812.9349,-143.7986 812.9349,-202.6014"/> <text text-anchor="middle" x="740" y="-185.8" font-family="Times,serif" font-size="14.00" fill="#000000">&#45; replace tmp crowflies</text> <text text-anchor="middle" x="740" y="-169" font-family="Times,serif" font-size="14.00" fill="#000000">&#45; assemble responses</text> <text text-anchor="middle" x="740" y="-152.2" font-family="Times,serif" font-size="14.00" fill="#000000">walking&gt;PT&gt;walking</text> </g> <!-- orig_walk_fallback&#45;&gt;assemble_walk_pt_walk --> <g id="edge31" class="edge"> <title>orig_walk_fallback&#45;&gt;assemble_walk_pt_walk</title> <path fill="none" stroke="#000000" d="M740.6891,-238.3973C740.6035,-230.2983 740.5092,-221.379 740.4186,-212.8064"/> <polygon fill="#000000" stroke="#000000" points="743.9163,-212.5626 740.3107,-202.6001 736.9167,-212.6366 743.9163,-212.5626"/> </g> <!-- orig_bike_fallback --> <g id="node22" class="node"> <title>orig_bike_fallback</title> <ellipse fill="none" stroke="#000000" cx="383" cy="-267.8156" rx="71.5211" ry="29.3315"/> <text text-anchor="middle" x="383" y="-272.0156" font-family="Times,serif" font-size="14.00" fill="#000000">bike origin</text> <text text-anchor="middle" x="383" y="-255.2156" font-family="Times,serif" font-size="14.00" fill="#000000">fallback details</text> </g> <!-- assemble_bike_pt_walk --> <g id="node25" class="node"> <title>assemble_bike_pt_walk</title> <polygon fill="#ffffe0" stroke="#ffffe0" points="634.9349,-202.6014 489.0651,-202.6014 489.0651,-143.7986 634.9349,-143.7986 634.9349,-202.6014"/> <text text-anchor="middle" x="562" y="-185.8" font-family="Times,serif" font-size="14.00" fill="#000000">&#45; replace tmp crowflies</text> <text text-anchor="middle" x="562" y="-169" font-family="Times,serif" font-size="14.00" fill="#000000">&#45; assemble responses</text> <text text-anchor="middle" x="562" y="-152.2" font-family="Times,serif" font-size="14.00" fill="#000000">bike&gt;PT&gt;walking</text> </g> <!-- orig_bike_fallback&#45;&gt;assemble_bike_pt_walk --> <g id="edge37" class="edge"> <title>orig_bike_fallback&#45;&gt;assemble_bike_pt_walk</title> <path fill="none" stroke="#000000" d="M427.2472,-244.4275C448.4513,-233.2195 474.2542,-219.5806 497.5835,-207.2492"/> <polygon fill="#000000" stroke="#000000" points="499.5213,-210.1838 506.7266,-202.4163 496.2501,-203.9952 499.5213,-210.1838"/> </g> <!-- dest_walk_fallback --> <g id="node23" class="node"> <title>dest_walk_fallback</title> <ellipse fill="none" stroke="#000000" cx="562" cy="-267.8156" rx="89.2457" ry="29.3315"/> <text text-anchor="middle" x="562" y="-272.0156" font-family="Times,serif" font-size="14.00" fill="#000000">walking destination</text> <text text-anchor="middle" x="562" y="-255.2156" font-family="Times,serif" font-size="14.00" fill="#000000">fallback details</text> </g> <!-- dest_walk_fallback&#45;&gt;assemble_walk_pt_walk --> <g id="edge29" class="edge"> <title>dest_walk_fallback&#45;&gt;assemble_walk_pt_walk</title> <path fill="none" stroke="#000000" d="M609.2334,-242.7088C629.6916,-231.8343 653.9576,-218.9357 675.9978,-207.2203"/> <polygon fill="#000000" stroke="#000000" points="677.7779,-210.2379 684.9652,-202.4537 674.4923,-204.0568 677.7779,-210.2379"/> </g> <!-- dest_walk_fallback&#45;&gt;assemble_bike_pt_walk --> <g id="edge35" class="edge"> <title>dest_walk_fallback&#45;&gt;assemble_bike_pt_walk</title> <path fill="none" stroke="#000000" d="M562,-238.3973C562,-230.2983 562,-221.379 562,-212.8064"/> <polygon fill="#000000" stroke="#000000" points="565.5001,-212.6001 562,-202.6001 558.5001,-212.6002 565.5001,-212.6001"/> </g> <!-- assemble_walk_pt_walk&#45;&gt;collect --> <g id="edge32" class="edge"> <title>assemble_walk_pt_walk&#45;&gt;collect</title> <path fill="none" stroke="#000000" d="M742.1323,-143.6325C742.7225,-135.4486 743.3617,-126.5848 743.9472,-118.465"/> <polygon fill="#000000" stroke="#000000" points="747.449,-118.5649 744.6775,-108.339 740.4672,-118.0614 747.449,-118.5649"/> </g> <!-- assemble_bike_pt_walk&#45;&gt;collect --> <g id="edge38" class="edge"> <title>assemble_bike_pt_walk&#45;&gt;collect</title> <path fill="none" stroke="#000000" d="M626.6128,-143.9838C649.7045,-133.5423 675.3291,-121.9556 696.8996,-112.2019"/> <polygon fill="#000000" stroke="#000000" points="698.5183,-115.3112 706.1881,-108.0019 695.6342,-108.933 698.5183,-115.3112"/> </g> <!-- collect&#45;&gt;resp --> <g id="edge39" class="edge"> <title>collect&#45;&gt;resp</title> <path fill="none" stroke="#000000" d="M746,-71.8314C746,-64.131 746,-54.9743 746,-46.4166"/> <polygon fill="#000000" stroke="#000000" points="749.5001,-46.4132 746,-36.4133 742.5001,-46.4133 749.5001,-46.4132"/> </g> <!-- Journey_Filters&#45;&gt;orig_walk_fallback --> <g id="edge30" class="edge"> <title>Journey_Filters&#45;&gt;orig_walk_fallback</title> <path fill="none" stroke="#000000" d="M608.6663,-351.2251C625.3584,-345.776 643.9898,-338.663 660,-330.0313 674.8643,-322.0174 689.8789,-311.356 702.875,-301.1258"/> <polygon fill="#000000" stroke="#000000" points="705.0903,-303.8356 710.6866,-294.8393 700.7017,-298.3822 705.0903,-303.8356"/> </g> <!-- Journey_Filters&#45;&gt;orig_bike_fallback --> <g id="edge36" class="edge"> <title>Journey_Filters&#45;&gt;orig_bike_fallback</title> <path fill="none" stroke="#000000" d="M515.3337,-351.2251C498.6416,-345.776 480.0102,-338.663 464,-330.0313 449.1357,-322.0174 434.1211,-311.356 421.125,-301.1258"/> <polygon fill="#000000" stroke="#000000" points="423.2983,-298.3822 413.3134,-294.8393 418.9097,-303.8356 423.2983,-298.3822"/> </g> <!-- Journey_Filters&#45;&gt;dest_walk_fallback --> <g id="edge28" class="edge"> <title>Journey_Filters&#45;&gt;dest_walk_fallback</title> <path fill="none" stroke="#000000" d="M556.5885,-345.9339C555.4526,-335.0024 555.0397,-320.6289 555.3497,-307.195"/> <polygon fill="#000000" stroke="#000000" points="558.8481,-307.3026 555.7278,-297.1777 551.8531,-307.0385 558.8481,-307.3026"/> </g> <!-- Journey_Filters&#45;&gt;dest_walk_fallback --> <g id="edge34" class="edge"> <title>Journey_Filters&#45;&gt;dest_walk_fallback</title> <path fill="none" stroke="#000000" d="M567.4115,-345.9339C568.5474,-335.0024 568.9603,-320.6289 568.6503,-307.195"/> <polygon fill="#000000" stroke="#000000" points="572.1469,-307.0385 568.2722,-297.1777 565.1519,-307.3026 572.1469,-307.0385"/> </g> </g> </svg>