<svg version="1.1" xmlns="http://www.w3.org/2000/svg" xmlns:xlink="http://www.w3.org/1999/xlink" width="1320" height="1567"><defs/><g><g/><g/><g/><g/><g/><g/><g/><g/><g/><g/><g/><g/><g/><g/><g/><g/><g/><g/><g/><g/><g/><g/><g/><g/><g/><g/><g/><g/><g/><g/><g><rect fill="white" stroke="none" x="0" y="0" width="1320" height="1567"/></g><g><text fill="black" stroke="none" font-family="sans-serif" font-size="16.5pt" font-style="normal" font-weight="normal" text-decoration="normal" x="598.9837536833334" y="24.50280495" text-anchor="start" dominant-baseline="alphabetic">Distributed</text></g><g/><g><path fill="none" stroke="black" paint-order="fill stroke markers" d=" M 38.66760165 128.80307802049998 L 38.66760165 1567.934488750499" stroke-miterlimit="10" stroke-width="1.3612669416666667" stroke-dasharray="12.565541,5.445067766666667"/><path fill="none" stroke="black" paint-order="fill stroke markers" d=" M 155.39574543333333 128.80307802049998 L 155.39574543333333 1567.934488750499" stroke-miterlimit="10" stroke-width="1.3612669416666667" stroke-dasharray="12.565541,5.445067766666667"/><path fill="none" stroke="black" paint-order="fill stroke markers" d=" M 532.1238892166666 128.80307802049998 L 532.1238892166666 1567.934488750499" stroke-miterlimit="10" stroke-width="1.3612669416666667" stroke-dasharray="12.565541,5.445067766666667"/><path fill="none" stroke="black" paint-order="fill stroke markers" d=" M 795.0717619333333 128.80307802049998 L 795.0717619333333 1567.934488750499" stroke-miterlimit="10" stroke-width="1.3612669416666667" stroke-dasharray="12.565541,5.445067766666667"/><path fill="none" stroke="black" paint-order="fill stroke markers" d=" M 1058.01963465 128.80307802049998 L 1058.01963465 1567.934488750499" stroke-miterlimit="10" stroke-width="1.3612669416666667" stroke-dasharray="12.565541,5.445067766666667"/></g><g><g><path fill="white" stroke="black" paint-order="fill stroke markers" d=" M 47.978667531 59.70516806150002 A 9.311065881 9.311065881 0 1 1 47.97866287546745 59.69585699717086 M 38.66760165 69.01623394250002 L 38.66760165 88.94518196850002 M 26.906255274000003 76.20372339450002 L 50.428948026 76.20372339450002 M 38.66760165 88.94518196850002 L 26.906255274000003 107.56731373050002 M 38.66760165 88.94518196850002 L 50.428948026 107.56731373050002" stroke-miterlimit="10" stroke-width="2.7769845610000004" stroke-dasharray=""/></g><g><g/><text fill="black" stroke="none" font-family="sans-serif" font-size="11pt" font-style="normal" font-weight="normal" text-decoration="normal" x="8.167601650000002" y="123.90251703050001" text-anchor="start" dominant-baseline="alphabetic">Request</text></g><path fill="none" stroke="none"/><g><path fill="white" stroke="black" paint-order="fill stroke markers" d=" M 88.17204985283333 84.69802911050002 L 222.61944101383335 84.69802911050002 L 222.61944101383335 128.8030780205 L 88.17204985283333 128.8030780205 L 88.17204985283333 84.69802911050002 Z" stroke-miterlimit="10" stroke-width="2.613632528" stroke-dasharray=""/></g><g><g/><text fill="black" stroke="none" font-family="sans-serif" font-size="11pt" font-style="normal" font-weight="normal" text-decoration="normal" x="105.89574543333333" y="112.46787472049999" text-anchor="start" dominant-baseline="alphabetic">Jormungandr</text></g><path fill="none" stroke="none"/><g><path fill="white" stroke="black" paint-order="fill stroke markers" d=" M 488.4001936361666 84.69802911050002 L 575.8475847971666 84.69802911050002 L 575.8475847971666 128.8030780205 L 488.4001936361666 128.8030780205 L 488.4001936361666 84.69802911050002 Z" stroke-miterlimit="10" stroke-width="2.613632528" stroke-dasharray=""/></g><g><g/><text fill="black" stroke="none" font-family="sans-serif" font-size="11pt" font-style="normal" font-weight="normal" text-decoration="normal" x="506.1238892166666" y="112.46787472049999" text-anchor="start" dominant-baseline="alphabetic">Kraken</text></g><path fill="none" stroke="none"/><g><path fill="white" stroke="black" paint-order="fill stroke markers" d=" M 748.3480663528333 84.69802911050002 L 841.7954575138333 84.69802911050002 L 841.7954575138333 128.8030780205 L 748.3480663528333 128.8030780205 L 748.3480663528333 84.69802911050002 Z" stroke-miterlimit="10" stroke-width="2.613632528" stroke-dasharray=""/></g><g><g/><text fill="black" stroke="none" font-family="sans-serif" font-size="11pt" font-style="normal" font-weight="normal" text-decoration="normal" x="766.0717619333333" y="112.46787472049999" text-anchor="start" dominant-baseline="alphabetic">Valhalla</text></g><path fill="none" stroke="none"/><g><path fill="white" stroke="black" paint-order="fill stroke markers" d=" M 1009.7959390694999 84.69802911050002 L 1106.2433302304999 84.69802911050002 L 1106.2433302304999 128.8030780205 L 1009.7959390694999 128.8030780205 L 1009.7959390694999 84.69802911050002 Z" stroke-miterlimit="10" stroke-width="2.613632528" stroke-dasharray=""/></g><g><g/><text fill="black" stroke="none" font-family="sans-serif" font-size="11pt" font-style="normal" font-weight="normal" text-decoration="normal" x="1027.51963465" y="112.46787472049999" text-anchor="start" dominant-baseline="alphabetic">Geovelo</text></g></g><g><path fill="gray" stroke="black" paint-order="fill stroke markers" d=" M 147.22814378333334 244.78302145049997 L 163.56334708333333 244.78302145049997 L 163.56334708333333 347.6948022405 L 147.22814378333334 347.6948022405 L 147.22814378333334 244.78302145049997" stroke-miterlimit="10" stroke-width="1.3612669416666667" stroke-dasharray=""/><path fill="gray" stroke="black" paint-order="fill stroke markers" d=" M 147.22814378333334 409.7685747805 L 163.56334708333333 409.7685747805 L 163.56334708333333 587.8222907505 L 147.22814378333334 587.8222907505 L 147.22814378333334 409.7685747805" stroke-miterlimit="10" stroke-width="1.3612669416666667" stroke-dasharray=""/><path fill="gray" stroke="black" paint-order="fill stroke markers" d=" M 147.22814378333334 649.8960632904999 L 163.56334708333333 649.8960632904999 L 163.56334708333333 741.3732017704998 L 147.22814378333334 741.3732017704998 L 147.22814378333334 649.8960632904999" stroke-miterlimit="10" stroke-width="1.3612669416666667" stroke-dasharray=""/><path fill="gray" stroke="black" paint-order="fill stroke markers" d=" M 147.22814378333334 844.2849825604998 L 163.56334708333333 844.2849825604998 L 163.56334708333333 1030.5063001804995 L 147.22814378333334 1030.5063001804995 L 147.22814378333334 844.2849825604998" stroke-miterlimit="10" stroke-width="1.3612669416666667" stroke-dasharray=""/><path fill="gray" stroke="black" paint-order="fill stroke markers" d=" M 147.22814378333334 1092.5800727204994 L 163.56334708333333 1092.5800727204994 L 163.56334708333333 1154.6538452604993 L 147.22814378333334 1154.6538452604993 L 147.22814378333334 1092.5800727204994" stroke-miterlimit="10" stroke-width="1.3612669416666667" stroke-dasharray=""/><path fill="gray" stroke="black" paint-order="fill stroke markers" d=" M 147.22814378333334 1216.7276178004993 L 163.56334708333333 1216.7276178004993 L 163.56334708333333 1465.022707960499 L 147.22814378333334 1465.022707960499 L 147.22814378333334 1216.7276178004993" stroke-miterlimit="10" stroke-width="1.3612669416666667" stroke-dasharray=""/><g><g><rect fill="white" stroke="none" x="63.58139304666666" y="161.4734846205" width="66.90056099" height="21.23576429"/></g><text fill="black" stroke="none" font-family="sans-serif" font-size="11pt" font-style="normal" font-weight="normal" text-decoration="normal" x="66.03167354166666" y="176.17516759049997" text-anchor="start" dominant-baseline="alphabetic">/journey</text></g><g><path fill="none" stroke="black" paint-order="fill stroke markers" d=" M 38.66760165 182.70924891049998 L 152.67321155 182.70924891049998" stroke-miterlimit="10" stroke-width="1.3612669416666667" stroke-dasharray=""/><g transform="translate(155.39574543333333,182.70924891049998) translate(-155.39574543333333,-182.70924891049998)"><path fill="black" stroke="none" paint-order="stroke fill markers" d=" M 141.78307601666666 175.90291420216664 L 155.39574543333333 182.70924891049998 L 141.78307601666666 189.51558361883332 Z"/></g></g><path fill="white" stroke="black" paint-order="fill stroke markers" d=" M 155.39574543333333 225.99753765549997 L 163.56334708333333 225.99753765549997 M 163.56334708333333 207.21205386049996 L 353.60023335333335 207.21205386049996 L 368.30191632333333 221.91373683049997 L 368.30191632333333 244.78302145049997 L 163.56334708333333 244.78302145049997 L 163.56334708333333 207.21205386049996 M 353.60023335333335 207.21205386049996 L 353.60023335333335 221.91373683049997 L 368.30191632333333 221.91373683049997" stroke-miterlimit="10" stroke-width="1.3612669416666667" stroke-dasharray=""/><g><text fill="black" stroke="none" font-family="sans-serif" font-size="11pt" font-style="normal" font-weight="normal" text-decoration="normal" x="186.4326317033333" y="230.08133848049994" text-anchor="start" dominant-baseline="alphabetic">Resolve entry points </text></g><g><g><rect fill="white" stroke="none" x="228.393337655" y="269.28582640049996" width="238.90056099" height="21.23576429"/></g><text fill="black" stroke="none" font-family="sans-serif" font-size="11pt" font-style="normal" font-weight="normal" text-decoration="normal" x="230.84361815" y="283.98750937049994" text-anchor="start" dominant-baseline="alphabetic">PlaceByUri [origin, destination]</text></g><g><path fill="none" stroke="black" paint-order="fill stroke markers" d=" M 163.56334708333333 290.5215906905 L 529.4013553333333 290.5215906905" stroke-miterlimit="10" stroke-width="1.3612669416666667" stroke-dasharray=""/><g transform="translate(532.1238892166666,290.5215906905) translate(-532.1238892166666,-290.5215906905)"><path fill="black" stroke="none" paint-order="stroke fill markers" d=" M 518.5112197999999 283.71525598216664 L 532.1238892166666 290.5215906905 L 518.5112197999999 297.3279253988333 Z"/><g transform="translate(163.56334708333333,290.5215906905) translate(-163.56334708333333,-290.5215906905)"><path fill="black" stroke="none" paint-order="stroke fill markers" d=" M 177.1760165 283.71525598216664 L 163.56334708333333 290.5215906905 L 177.1760165 297.3279253988333 Z"/></g></g></g><g><g><rect fill="white" stroke="none" x="551.4538797883333" y="269.28582640049996" width="72.90056099" height="21.23576429"/></g><text fill="black" stroke="none" font-family="sans-serif" font-size="11pt" font-style="normal" font-weight="normal" text-decoration="normal" x="553.9041602833333" y="283.98750937049994" text-anchor="start" dominant-baseline="alphabetic">place_uri</text></g><g><path fill="none" stroke="black" paint-order="fill stroke markers" d=" M 532.1238892166666 290.5215906905 L 597.4647024166666 290.5215906905 L 597.4647024166666 306.85679399049997 L 534.8464230999999 306.85679399049997" stroke-miterlimit="10" stroke-width="1.3612669416666667" stroke-dasharray=""/><g transform="translate(532.1238892166666,306.85679399049997) translate(-532.1238892166666,-306.85679399049997)"><path fill="black" stroke="none" paint-order="stroke fill markers" d=" M 545.7365586333333 300.0504592821666 L 532.1238892166666 306.85679399049997 L 545.7365586333333 313.6631286988333 Z"/><g transform="translate(532.1238892166666,306.85679399049997) translate(-532.1238892166666,-306.85679399049997)"><path fill="black" stroke="none" paint-order="stroke fill markers" d=" M 545.7365586333333 300.0504592821666 L 532.1238892166666 306.85679399049997 L 545.7365586333333 313.6631286988333 Z"/></g></g></g><path fill="white" stroke="black" paint-order="fill stroke markers" d=" M 155.39574543333333 390.9830909855 L 163.56334708333333 390.9830909855 M 163.56334708333333 372.1976071905 L 399.60023335333335 372.1976071905 L 414.30191632333333 386.89929016049996 L 414.30191632333333 409.7685747805 L 163.56334708333333 409.7685747805 L 163.56334708333333 372.1976071905 M 399.60023335333335 372.1976071905 L 399.60023335333335 386.89929016049996 L 414.30191632333333 386.89929016049996" stroke-miterlimit="10" stroke-width="1.3612669416666667" stroke-dasharray=""/><g><text fill="black" stroke="none" font-family="sans-serif" font-size="11pt" font-style="normal" font-weight="normal" text-decoration="normal" x="186.4326317033333" y="395.06689181049995" text-anchor="start" dominant-baseline="alphabetic">Direct path for every mode</text></g><g><g><rect fill="white" stroke="none" x="310.393337655" y="434.2713797305" width="74.90056099" height="21.23576429"/></g><text fill="black" stroke="none" font-family="sans-serif" font-size="11pt" font-style="normal" font-weight="normal" text-decoration="normal" x="312.84361815" y="448.97306270049995" text-anchor="start" dominant-baseline="alphabetic">Walking  </text></g><g><path fill="none" stroke="black" paint-order="fill stroke markers" d=" M 163.56334708333333 455.5071440205 L 529.4013553333333 455.5071440205" stroke-miterlimit="10" stroke-width="1.3612669416666667" stroke-dasharray="6.53408132"/><g transform="translate(532.1238892166666,455.5071440205) translate(-532.1238892166666,-455.5071440205)"><path fill="black" stroke="none" paint-order="stroke fill markers" d=" M 518.5112197999999 448.70080931216665 L 532.1238892166666 455.5071440205 L 518.5112197999999 462.31347872883333 Z"/><g transform="translate(163.56334708333333,455.5071440205) translate(-163.56334708333333,-455.5071440205)"><path fill="black" stroke="none" paint-order="stroke fill markers" d=" M 177.1760165 448.70080931216665 L 163.56334708333333 455.5071440205 L 177.1760165 462.31347872883333 Z"/></g></g></g><g><g><rect fill="white" stroke="none" x="464.3672740133333" y="480.0099489705" width="29.90056099" height="21.23576429"/></g><text fill="black" stroke="none" font-family="sans-serif" font-size="11pt" font-style="normal" font-weight="normal" text-decoration="normal" x="466.81755450833333" y="494.71163194049996" text-anchor="start" dominant-baseline="alphabetic">Car</text></g><g><path fill="none" stroke="black" paint-order="fill stroke markers" d=" M 163.56334708333333 501.2457132605 L 792.34922805 501.2457132605" stroke-miterlimit="10" stroke-width="1.3612669416666667" stroke-dasharray="6.53408132"/><g transform="translate(795.0717619333333,501.2457132605) translate(-795.0717619333333,-501.2457132605)"><path fill="black" stroke="none" paint-order="stroke fill markers" d=" M 781.4590925166666 494.43937855216666 L 795.0717619333333 501.2457132605 L 781.4590925166666 508.05204796883334 Z"/><g transform="translate(163.56334708333333,501.2457132605) translate(-163.56334708333333,-501.2457132605)"><path fill="black" stroke="none" paint-order="stroke fill markers" d=" M 177.1760165 494.43937855216666 L 163.56334708333333 501.2457132605 L 177.1760165 508.05204796883334 Z"/></g></g></g><g><g><rect fill="white" stroke="none" x="592.8412103716666" y="525.7485182104999" width="35.90056099" height="21.23576429"/></g><text fill="black" stroke="none" font-family="sans-serif" font-size="11pt" font-style="normal" font-weight="normal" text-decoration="normal" x="595.2914908666667" y="540.4502011804999" text-anchor="start" dominant-baseline="alphabetic">Bike</text></g><g><path fill="none" stroke="black" paint-order="fill stroke markers" d=" M 163.56334708333333 546.9842825005 L 1055.2971007666665 546.9842825005" stroke-miterlimit="10" stroke-width="1.3612669416666667" stroke-dasharray="6.53408132"/><g transform="translate(1058.01963465,546.9842825005) translate(-1058.01963465,-546.9842825005)"><path fill="black" stroke="none" paint-order="stroke fill markers" d=" M 1044.4069652333333 540.1779477921666 L 1058.01963465 546.9842825005 L 1044.4069652333333 553.7906172088333 Z"/><g transform="translate(163.56334708333333,546.9842825005) translate(-163.56334708333333,-546.9842825005)"><path fill="black" stroke="none" paint-order="stroke fill markers" d=" M 177.1760165 540.1779477921666 L 163.56334708333333 546.9842825005 L 177.1760165 553.7906172088333 Z"/></g></g></g><path fill="white" stroke="black" paint-order="fill stroke markers" d=" M 155.39574543333333 631.1105794954999 L 163.56334708333333 631.1105794954999 M 163.56334708333333 612.3250957004999 L 369.60023335333335 612.3250957004999 L 384.30191632333333 627.0267786704999 L 384.30191632333333 649.8960632904999 L 163.56334708333333 649.8960632904999 L 163.56334708333333 612.3250957004999 M 369.60023335333335 612.3250957004999 L 369.60023335333335 627.0267786704999 L 384.30191632333333 627.0267786704999" stroke-miterlimit="10" stroke-width="1.3612669416666667" stroke-dasharray=""/><g><text fill="black" stroke="none" font-family="sans-serif" font-size="11pt" font-style="normal" font-weight="normal" text-decoration="normal" x="186.4326317033333" y="635.1943803204999" text-anchor="start" dominant-baseline="alphabetic">Accessible Stop points </text></g><g><g><rect fill="white" stroke="none" x="182.893337655" y="674.3988682404998" width="329.90056099" height="21.23576429"/></g><text fill="black" stroke="none" font-family="sans-serif" font-size="11pt" font-style="normal" font-weight="normal" text-decoration="normal" x="185.34361815" y="689.1005512104998" text-anchor="start" dominant-baseline="alphabetic">Proximities by crow fly [origin, destination]</text></g><g><path fill="none" stroke="black" paint-order="fill stroke markers" d=" M 163.56334708333333 695.6346325304999 L 529.4013553333333 695.6346325304999" stroke-miterlimit="10" stroke-width="1.3612669416666667" stroke-dasharray=""/><g transform="translate(532.1238892166666,695.6346325304999) translate(-532.1238892166666,-695.6346325304999)"><path fill="black" stroke="none" paint-order="stroke fill markers" d=" M 518.5112197999999 688.8282978221665 L 532.1238892166666 695.6346325304999 L 518.5112197999999 702.4409672388332 Z"/><g transform="translate(163.56334708333333,695.6346325304999) translate(-163.56334708333333,-695.6346325304999)"><path fill="black" stroke="none" paint-order="stroke fill markers" d=" M 177.1760165 688.8282978221665 L 163.56334708333333 695.6346325304999 L 177.1760165 702.4409672388332 Z"/></g></g></g><g><g><rect fill="white" stroke="none" x="197.893337655" y="720.1374374804998" width="299.90056099" height="21.23576429"/></g><text fill="black" stroke="none" font-family="sans-serif" font-size="11pt" font-style="normal" font-weight="normal" text-decoration="normal" x="200.34361815" y="734.8391204504998" text-anchor="start" dominant-baseline="alphabetic">Places Free Access [origin, destination]</text></g><g><path fill="none" stroke="black" paint-order="fill stroke markers" d=" M 163.56334708333333 741.3732017704998 L 529.4013553333333 741.3732017704998" stroke-miterlimit="10" stroke-width="1.3612669416666667" stroke-dasharray=""/><g transform="translate(532.1238892166666,741.3732017704998) translate(-532.1238892166666,-741.3732017704998)"><path fill="black" stroke="none" paint-order="stroke fill markers" d=" M 518.5112197999999 734.5668670621665 L 532.1238892166666 741.3732017704998 L 518.5112197999999 748.1795364788331 Z"/><g transform="translate(163.56334708333333,741.3732017704998) translate(-163.56334708333333,-741.3732017704998)"><path fill="black" stroke="none" paint-order="stroke fill markers" d=" M 177.1760165 734.5668670621665 L 163.56334708333333 741.3732017704998 L 177.1760165 748.1795364788331 Z"/></g></g></g><path fill="white" stroke="black" paint-order="fill stroke markers" d=" M 155.39574543333333 825.4994987654998 L 163.56334708333333 825.4994987654998 M 163.56334708333333 806.7140149704998 L 403.60023335333335 806.7140149704998 L 418.30191632333333 821.4156979404997 L 418.30191632333333 844.2849825604998 L 163.56334708333333 844.2849825604998 L 163.56334708333333 806.7140149704998 M 403.60023335333335 806.7140149704998 L 403.60023335333335 821.4156979404997 L 418.30191632333333 821.4156979404997" stroke-miterlimit="10" stroke-width="1.3612669416666667" stroke-dasharray=""/><g><text fill="black" stroke="none" font-family="sans-serif" font-size="11pt" font-style="normal" font-weight="normal" text-decoration="normal" x="186.4326317033333" y="829.5832995904998" text-anchor="start" dominant-baseline="alphabetic">Compute fallback durations</text></g><g><g><rect fill="white" stroke="none" x="242.893337655" y="868.7877875104997" width="209.90056099" height="21.23576429"/></g><text fill="black" stroke="none" font-family="sans-serif" font-size="11pt" font-style="normal" font-weight="normal" text-decoration="normal" x="245.34361815" y="883.4894704804997" text-anchor="start" dominant-baseline="alphabetic">Walking Fallback Durations</text></g><g><path fill="none" stroke="black" paint-order="fill stroke markers" d=" M 163.56334708333333 890.0235518004997 L 529.4013553333333 890.0235518004997" stroke-miterlimit="10" stroke-width="1.3612669416666667" stroke-dasharray="6.53408132"/><g transform="translate(532.1238892166666,890.0235518004997) translate(-532.1238892166666,-890.0235518004997)"><path fill="black" stroke="none" paint-order="stroke fill markers" d=" M 518.5112197999999 883.2172170921664 L 532.1238892166666 890.0235518004997 L 518.5112197999999 896.829886508833 Z"/><g transform="translate(163.56334708333333,890.0235518004997) translate(-163.56334708333333,-890.0235518004997)"><path fill="black" stroke="none" paint-order="stroke fill markers" d=" M 177.1760165 883.2172170921664 L 163.56334708333333 890.0235518004997 L 177.1760165 896.829886508833 Z"/></g></g></g><g><g><rect fill="white" stroke="none" x="551.4538797883333" y="868.7877875104997" width="237.90056099" height="21.23576429"/></g><text fill="black" stroke="none" font-family="sans-serif" font-size="11pt" font-style="normal" font-weight="normal" text-decoration="normal" x="553.9041602833333" y="883.4894704804997" text-anchor="start" dominant-baseline="alphabetic">street_network_routing_matrix</text></g><g><path fill="none" stroke="black" paint-order="fill stroke markers" d=" M 532.1238892166666 890.0235518004997 L 597.4647024166666 890.0235518004997 L 597.4647024166666 906.3587551004997 L 534.8464230999999 906.3587551004997" stroke-miterlimit="10" stroke-width="1.3612669416666667" stroke-dasharray="6.53408132"/><g transform="translate(532.1238892166666,906.3587551004997) translate(-532.1238892166666,-906.3587551004997)"><path fill="black" stroke="none" paint-order="stroke fill markers" d=" M 545.7365586333333 899.5524203921664 L 532.1238892166666 906.3587551004997 L 545.7365586333333 913.165089808833 Z"/><g transform="translate(532.1238892166666,906.3587551004997) translate(-532.1238892166666,-906.3587551004997)"><path fill="black" stroke="none" paint-order="stroke fill markers" d=" M 545.7365586333333 899.5524203921664 L 532.1238892166666 906.3587551004997 L 545.7365586333333 913.165089808833 Z"/></g></g></g><g><g><rect fill="white" stroke="none" x="391.8672740133333" y="930.8615600504996" width="174.90056099" height="21.23576429"/></g><text fill="black" stroke="none" font-family="sans-serif" font-size="11pt" font-style="normal" font-weight="normal" text-decoration="normal" x="394.31755450833333" y="945.5632430204996" text-anchor="start" dominant-baseline="alphabetic">Car Fallback Durations</text></g><g><path fill="none" stroke="black" paint-order="fill stroke markers" d=" M 163.56334708333333 952.0973243404997 L 792.34922805 952.0973243404997" stroke-miterlimit="10" stroke-width="1.3612669416666667" stroke-dasharray="6.53408132"/><g transform="translate(795.0717619333333,952.0973243404997) translate(-795.0717619333333,-952.0973243404997)"><path fill="black" stroke="none" paint-order="stroke fill markers" d=" M 781.4590925166666 945.2909896321663 L 795.0717619333333 952.0973243404997 L 781.4590925166666 958.903659048833 Z"/><g transform="translate(163.56334708333333,952.0973243404997) translate(-163.56334708333333,-952.0973243404997)"><path fill="black" stroke="none" paint-order="stroke fill markers" d=" M 177.1760165 945.2909896321663 L 163.56334708333333 952.0973243404997 L 177.1760165 958.903659048833 Z"/></g></g></g><g><g><rect fill="white" stroke="none" x="814.401752505" y="930.8615600504996" width="237.90056099" height="21.23576429"/></g><text fill="black" stroke="none" font-family="sans-serif" font-size="11pt" font-style="normal" font-weight="normal" text-decoration="normal" x="816.852033" y="945.5632430204996" text-anchor="start" dominant-baseline="alphabetic">street_network_routing_matrix</text></g><g><path fill="none" stroke="black" paint-order="fill stroke markers" d=" M 795.0717619333333 952.0973243404997 L 860.4125751333332 952.0973243404997 L 860.4125751333332 968.4325276404996 L 797.7942958166666 968.4325276404996" stroke-miterlimit="10" stroke-width="1.3612669416666667" stroke-dasharray="6.53408132"/><g transform="translate(795.0717619333333,968.4325276404996) translate(-795.0717619333333,-968.4325276404996)"><path fill="black" stroke="none" paint-order="stroke fill markers" d=" M 808.68443135 961.6261929321663 L 795.0717619333333 968.4325276404996 L 808.68443135 975.238862348833 Z"/><g transform="translate(795.0717619333333,968.4325276404996) translate(-795.0717619333333,-968.4325276404996)"><path fill="black" stroke="none" paint-order="stroke fill markers" d=" M 808.68443135 961.6261929321663 L 795.0717619333333 968.4325276404996 L 808.68443135 975.238862348833 Z"/></g></g></g><g><g><rect fill="white" stroke="none" x="520.3412103716666" y="992.9353325904995" width="180.90056099" height="21.23576429"/></g><text fill="black" stroke="none" font-family="sans-serif" font-size="11pt" font-style="normal" font-weight="normal" text-decoration="normal" x="522.7914908666667" y="1007.6370155604994" text-anchor="start" dominant-baseline="alphabetic">Bike Fallback Durations</text></g><g><path fill="none" stroke="black" paint-order="fill stroke markers" d=" M 163.56334708333333 1014.1710968804995 L 1055.2971007666665 1014.1710968804995" stroke-miterlimit="10" stroke-width="1.3612669416666667" stroke-dasharray="6.53408132"/><g transform="translate(1058.01963465,1014.1710968804995) translate(-1058.01963465,-1014.1710968804995)"><path fill="black" stroke="none" paint-order="stroke fill markers" d=" M 1044.4069652333333 1007.3647621721661 L 1058.01963465 1014.1710968804995 L 1044.4069652333333 1020.9774315888328 Z"/><g transform="translate(163.56334708333333,1014.1710968804995) translate(-163.56334708333333,-1014.1710968804995)"><path fill="black" stroke="none" paint-order="stroke fill markers" d=" M 177.1760165 1007.3647621721661 L 163.56334708333333 1014.1710968804995 L 177.1760165 1020.9774315888328 Z"/></g></g></g><g><g><rect fill="white" stroke="none" x="1077.3496252216667" y="992.9353325904995" width="237.90056099" height="21.23576429"/></g><text fill="black" stroke="none" font-family="sans-serif" font-size="11pt" font-style="normal" font-weight="normal" text-decoration="normal" x="1079.7999057166667" y="1007.6370155604994" text-anchor="start" dominant-baseline="alphabetic">street_network_routing_matrix</text></g><g><path fill="none" stroke="black" paint-order="fill stroke markers" d=" M 1058.01963465 1014.1710968804995 L 1123.36044785 1014.1710968804995 L 1123.36044785 1030.5063001804995 L 1060.7421685333334 1030.5063001804995" stroke-miterlimit="10" stroke-width="1.3612669416666667" stroke-dasharray="6.53408132"/><g transform="translate(1058.01963465,1030.5063001804995) translate(-1058.01963465,-1030.5063001804995)"><path fill="black" stroke="none" paint-order="stroke fill markers" d=" M 1071.6323040666666 1023.6999654721661 L 1058.01963465 1030.5063001804995 L 1071.6323040666666 1037.3126348888327 Z"/><g transform="translate(1058.01963465,1030.5063001804995) translate(-1058.01963465,-1030.5063001804995)"><path fill="black" stroke="none" paint-order="stroke fill markers" d=" M 1071.6323040666666 1023.6999654721661 L 1058.01963465 1030.5063001804995 L 1071.6323040666666 1037.3126348888327 Z"/></g></g></g><path fill="white" stroke="black" paint-order="fill stroke markers" d=" M 155.39574543333333 1073.7945889254995 L 163.56334708333333 1073.7945889254995 M 163.56334708333333 1055.0091051304994 L 459.60023335333335 1055.0091051304994 L 474.30191632333333 1069.7107881004995 L 474.30191632333333 1092.5800727204994 L 163.56334708333333 1092.5800727204994 L 163.56334708333333 1055.0091051304994 M 459.60023335333335 1055.0091051304994 L 459.60023335333335 1069.7107881004995 L 474.30191632333333 1069.7107881004995" stroke-miterlimit="10" stroke-width="1.3612669416666667" stroke-dasharray=""/><g><text fill="black" stroke="none" font-family="sans-serif" font-size="11pt" font-style="normal" font-weight="normal" text-decoration="normal" x="186.4326317033333" y="1077.8783897504995" text-anchor="start" dominant-baseline="alphabetic">Compute Public Transport journeys</text></g><g><g><rect fill="white" stroke="none" x="309.393337655" y="1117.0828776704993" width="76.90056099" height="21.23576429"/></g><text fill="black" stroke="none" font-family="sans-serif" font-size="11pt" font-style="normal" font-weight="normal" text-decoration="normal" x="311.84361815" y="1131.7845606404994" text-anchor="start" dominant-baseline="alphabetic">PtJourney</text></g><g><path fill="none" stroke="black" paint-order="fill stroke markers" d=" M 163.56334708333333 1138.3186419604992 L 529.4013553333333 1138.3186419604992" stroke-miterlimit="10" stroke-width="1.3612669416666667" stroke-dasharray=""/><g transform="translate(532.1238892166666,1138.3186419604992) translate(-532.1238892166666,-1138.3186419604992)"><path fill="black" stroke="none" paint-order="stroke fill markers" d=" M 518.5112197999999 1131.512307252166 L 532.1238892166666 1138.3186419604992 L 518.5112197999999 1145.1249766688325 Z"/><g transform="translate(163.56334708333333,1138.3186419604992) translate(-163.56334708333333,-1138.3186419604992)"><path fill="black" stroke="none" paint-order="stroke fill markers" d=" M 177.1760165 1131.512307252166 L 163.56334708333333 1138.3186419604992 L 177.1760165 1145.1249766688325 Z"/></g></g></g><g><g><rect fill="white" stroke="none" x="551.4538797883333" y="1117.0828776704993" width="86.90056099" height="21.23576429"/></g><text fill="black" stroke="none" font-family="sans-serif" font-size="11pt" font-style="normal" font-weight="normal" text-decoration="normal" x="553.9041602833333" y="1131.7845606404994" text-anchor="start" dominant-baseline="alphabetic">pt_planner</text></g><g><path fill="none" stroke="black" paint-order="fill stroke markers" d=" M 532.1238892166666 1138.3186419604992 L 597.4647024166666 1138.3186419604992 L 597.4647024166666 1154.6538452604993 L 534.8464230999999 1154.6538452604993" stroke-miterlimit="10" stroke-width="1.3612669416666667" stroke-dasharray=""/><g transform="translate(532.1238892166666,1154.6538452604993) translate(-532.1238892166666,-1154.6538452604993)"><path fill="black" stroke="none" paint-order="stroke fill markers" d=" M 545.7365586333333 1147.847510552166 L 532.1238892166666 1154.6538452604993 L 545.7365586333333 1161.4601799688326 Z"/><g transform="translate(532.1238892166666,1154.6538452604993) translate(-532.1238892166666,-1154.6538452604993)"><path fill="black" stroke="none" paint-order="stroke fill markers" d=" M 545.7365586333333 1147.847510552166 L 532.1238892166666 1154.6538452604993 L 545.7365586333333 1161.4601799688326 Z"/></g></g></g><path fill="white" stroke="black" paint-order="fill stroke markers" d=" M 155.39574543333333 1197.9421340054994 L 163.56334708333333 1197.9421340054994 M 163.56334708333333 1179.1566502104993 L 351.60023335333335 1179.1566502104993 L 366.30191632333333 1193.8583331804994 L 366.30191632333333 1216.7276178004993 L 163.56334708333333 1216.7276178004993 L 163.56334708333333 1179.1566502104993 M 351.60023335333335 1179.1566502104993 L 351.60023335333335 1193.8583331804994 L 366.30191632333333 1193.8583331804994" stroke-miterlimit="10" stroke-width="1.3612669416666667" stroke-dasharray=""/><g><text fill="black" stroke="none" font-family="sans-serif" font-size="11pt" font-style="normal" font-weight="normal" text-decoration="normal" x="186.4326317033333" y="1202.0259348304994" text-anchor="start" dominant-baseline="alphabetic">Build final responses</text></g><g><g><rect fill="white" stroke="none" x="253.893337655" y="1241.2304227504992" width="187.90056099" height="21.23576429"/></g><text fill="black" stroke="none" font-family="sans-serif" font-size="11pt" font-style="normal" font-weight="normal" text-decoration="normal" x="256.34361815" y="1255.9321057204993" text-anchor="start" dominant-baseline="alphabetic">Walking Fallback Details</text></g><g><path fill="none" stroke="black" paint-order="fill stroke markers" d=" M 163.56334708333333 1262.466187040499 L 529.4013553333333 1262.466187040499" stroke-miterlimit="10" stroke-width="1.3612669416666667" stroke-dasharray="6.53408132"/><g transform="translate(532.1238892166666,1262.466187040499) translate(-532.1238892166666,-1262.466187040499)"><path fill="black" stroke="none" paint-order="stroke fill markers" d=" M 518.5112197999999 1255.6598523321659 L 532.1238892166666 1262.466187040499 L 518.5112197999999 1269.2725217488323 Z"/><g transform="translate(163.56334708333333,1262.466187040499) translate(-163.56334708333333,-1262.466187040499)"><path fill="black" stroke="none" paint-order="stroke fill markers" d=" M 177.1760165 1255.6598523321659 L 163.56334708333333 1262.466187040499 L 177.1760165 1269.2725217488323 Z"/></g></g></g><g><g><rect fill="white" stroke="none" x="551.4538797883333" y="1241.2304227504992" width="153.90056099" height="21.23576429"/></g><text fill="black" stroke="none" font-family="sans-serif" font-size="11pt" font-style="normal" font-weight="normal" text-decoration="normal" x="553.9041602833333" y="1255.9321057204993" text-anchor="start" dominant-baseline="alphabetic">direct_path_with_fp</text></g><g><path fill="none" stroke="black" paint-order="fill stroke markers" d=" M 532.1238892166666 1262.466187040499 L 597.4647024166666 1262.466187040499 L 597.4647024166666 1278.8013903404992 L 534.8464230999999 1278.8013903404992" stroke-miterlimit="10" stroke-width="1.3612669416666667" stroke-dasharray="6.53408132"/><g transform="translate(532.1238892166666,1278.8013903404992) translate(-532.1238892166666,-1278.8013903404992)"><path fill="black" stroke="none" paint-order="stroke fill markers" d=" M 545.7365586333333 1271.995055632166 L 532.1238892166666 1278.8013903404992 L 545.7365586333333 1285.6077250488324 Z"/><g transform="translate(532.1238892166666,1278.8013903404992) translate(-532.1238892166666,-1278.8013903404992)"><path fill="black" stroke="none" paint-order="stroke fill markers" d=" M 545.7365586333333 1271.995055632166 L 532.1238892166666 1278.8013903404992 L 545.7365586333333 1285.6077250488324 Z"/></g></g></g><g><g><rect fill="white" stroke="none" x="402.8672740133333" y="1303.3041952904991" width="152.90056099" height="21.23576429"/></g><text fill="black" stroke="none" font-family="sans-serif" font-size="11pt" font-style="normal" font-weight="normal" text-decoration="normal" x="405.31755450833333" y="1318.0058782604992" text-anchor="start" dominant-baseline="alphabetic">Car Fallback Details</text></g><g><path fill="none" stroke="black" paint-order="fill stroke markers" d=" M 163.56334708333333 1324.539959580499 L 792.34922805 1324.539959580499" stroke-miterlimit="10" stroke-width="1.3612669416666667" stroke-dasharray="6.53408132"/><g transform="translate(795.0717619333333,1324.539959580499) translate(-795.0717619333333,-1324.539959580499)"><path fill="black" stroke="none" paint-order="stroke fill markers" d=" M 781.4590925166666 1317.7336248721658 L 795.0717619333333 1324.539959580499 L 781.4590925166666 1331.3462942888323 Z"/><g transform="translate(163.56334708333333,1324.539959580499) translate(-163.56334708333333,-1324.539959580499)"><path fill="black" stroke="none" paint-order="stroke fill markers" d=" M 177.1760165 1317.7336248721658 L 163.56334708333333 1324.539959580499 L 177.1760165 1331.3462942888323 Z"/></g></g></g><g><g><rect fill="white" stroke="none" x="814.401752505" y="1303.3041952904991" width="153.90056099" height="21.23576429"/></g><text fill="black" stroke="none" font-family="sans-serif" font-size="11pt" font-style="normal" font-weight="normal" text-decoration="normal" x="816.852033" y="1318.0058782604992" text-anchor="start" dominant-baseline="alphabetic">direct_path_with_fp</text></g><g><path fill="none" stroke="black" paint-order="fill stroke markers" d=" M 795.0717619333333 1324.539959580499 L 860.4125751333332 1324.539959580499 L 860.4125751333332 1340.8751628804991 L 797.7942958166666 1340.8751628804991" stroke-miterlimit="10" stroke-width="1.3612669416666667" stroke-dasharray="6.53408132"/><g transform="translate(795.0717619333333,1340.8751628804991) translate(-795.0717619333333,-1340.8751628804991)"><path fill="black" stroke="none" paint-order="stroke fill markers" d=" M 808.68443135 1334.068828172166 L 795.0717619333333 1340.8751628804991 L 808.68443135 1347.6814975888324 Z"/><g transform="translate(795.0717619333333,1340.8751628804991) translate(-795.0717619333333,-1340.8751628804991)"><path fill="black" stroke="none" paint-order="stroke fill markers" d=" M 808.68443135 1334.068828172166 L 795.0717619333333 1340.8751628804991 L 808.68443135 1347.6814975888324 Z"/></g></g></g><g><g><rect fill="white" stroke="none" x="531.3412103716666" y="1365.377967830499" width="158.90056099" height="21.23576429"/></g><text fill="black" stroke="none" font-family="sans-serif" font-size="11pt" font-style="normal" font-weight="normal" text-decoration="normal" x="533.7914908666667" y="1380.0796508004992" text-anchor="start" dominant-baseline="alphabetic">Bike Fallback Details</text></g><g><path fill="none" stroke="black" paint-order="fill stroke markers" d=" M 163.56334708333333 1386.613732120499 L 1055.2971007666665 1386.613732120499" stroke-miterlimit="10" stroke-width="1.3612669416666667" stroke-dasharray="6.53408132"/><g transform="translate(1058.01963465,1386.613732120499) translate(-1058.01963465,-1386.613732120499)"><path fill="black" stroke="none" paint-order="stroke fill markers" d=" M 1044.4069652333333 1379.8073974121658 L 1058.01963465 1386.613732120499 L 1044.4069652333333 1393.4200668288322 Z"/><g transform="translate(163.56334708333333,1386.613732120499) translate(-163.56334708333333,-1386.613732120499)"><path fill="black" stroke="none" paint-order="stroke fill markers" d=" M 177.1760165 1379.8073974121658 L 163.56334708333333 1386.613732120499 L 177.1760165 1393.4200668288322 Z"/></g></g></g><g><g><rect fill="white" stroke="none" x="1077.3496252216667" y="1365.377967830499" width="153.90056099" height="21.23576429"/></g><text fill="black" stroke="none" font-family="sans-serif" font-size="11pt" font-style="normal" font-weight="normal" text-decoration="normal" x="1079.7999057166667" y="1380.0796508004992" text-anchor="start" dominant-baseline="alphabetic">direct_path_with_fp</text></g><g><path fill="none" stroke="black" paint-order="fill stroke markers" d=" M 1058.01963465 1386.613732120499 L 1123.36044785 1386.613732120499 L 1123.36044785 1402.948935420499 L 1060.7421685333334 1402.948935420499" stroke-miterlimit="10" stroke-width="1.3612669416666667" stroke-dasharray="6.53408132"/><g transform="translate(1058.01963465,1402.948935420499) translate(-1058.01963465,-1402.948935420499)"><path fill="black" stroke="none" paint-order="stroke fill markers" d=" M 1071.6323040666666 1396.1426007121659 L 1058.01963465 1402.948935420499 L 1071.6323040666666 1409.7552701288323 Z"/><g transform="translate(1058.01963465,1402.948935420499) translate(-1058.01963465,-1402.948935420499)"><path fill="black" stroke="none" paint-order="stroke fill markers" d=" M 1071.6323040666666 1396.1426007121659 L 1058.01963465 1402.948935420499 L 1071.6323040666666 1409.7552701288323 Z"/></g></g></g><g><g><rect fill="white" stroke="none" x="182.893337655" y="1427.451740370499" width="239.90056099" height="21.23576429"/></g><text fill="black" stroke="none" font-family="sans-serif" font-size="11pt" font-style="normal" font-weight="normal" text-decoration="normal" x="185.34361815" y="1442.153423340499" text-anchor="start" dominant-baseline="alphabetic">wait_and_complete_pt_journey</text></g><g><path fill="none" stroke="black" paint-order="fill stroke markers" d=" M 163.56334708333333 1448.687504660499 L 228.90416028333334 1448.687504660499 L 228.90416028333334 1465.022707960499 L 166.28588096666667 1465.022707960499" stroke-miterlimit="10" stroke-width="1.3612669416666667" stroke-dasharray=""/><g transform="translate(163.56334708333333,1465.022707960499) translate(-163.56334708333333,-1465.022707960499)"><path fill="black" stroke="none" paint-order="stroke fill markers" d=" M 177.1760165 1458.2163732521658 L 163.56334708333333 1465.022707960499 L 177.1760165 1471.8290426688322 Z"/><g transform="translate(163.56334708333333,1465.022707960499) translate(-163.56334708333333,-1465.022707960499)"><path fill="black" stroke="none" paint-order="stroke fill markers" d=" M 177.1760165 1458.2163732521658 L 163.56334708333333 1465.022707960499 L 177.1760165 1471.8290426688322 Z"/></g></g></g><g><g><rect fill="white" stroke="none" x="62.08139304666666" y="1489.5255129104992" width="69.90056099" height="21.23576429"/></g><text fill="black" stroke="none" font-family="sans-serif" font-size="11pt" font-style="normal" font-weight="normal" text-decoration="normal" x="64.53167354166666" y="1504.2271958804993" text-anchor="start" dominant-baseline="alphabetic">journeys</text></g><g><path fill="none" stroke="black" paint-order="fill stroke markers" d=" M 155.39574543333333 1510.761277200499 L 41.390135533333336 1510.761277200499" stroke-miterlimit="10" stroke-width="1.3612669416666667" stroke-dasharray=""/><g transform="translate(38.66760165,1510.761277200499) translate(-38.66760165,-1510.761277200499)"><path fill="black" stroke="none" paint-order="stroke fill markers" d=" M 52.28027106666667 1503.9549424921659 L 38.66760165 1510.761277200499 L 52.28027106666667 1517.5676119088323 Z"/></g></g></g><g/><g/><g/><g/><g/></g></svg>