<svg version="1.1" xmlns="http://www.w3.org/2000/svg" xmlns:xlink="http://www.w3.org/1999/xlink" width="1737" height="1875"><defs/><g><g/><g/><g/><g/><g/><g/><g/><g/><g/><g/><g/><g/><g/><g/><g/><g/><g/><g/><g/><g/><g/><g/><g/><g/><g/><g/><g/><g/><g/><g/><g/><g/><g/><g/><g/><g/><g><rect fill="white" stroke="none" x="0" y="0" width="1737" height="1875"/></g><g><text fill="black" stroke="none" font-family="sans-serif" font-size="16.5pt" font-style="normal" font-weight="normal" text-decoration="normal" x="807.4576900416666" y="24.50280495" text-anchor="start" dominant-baseline="alphabetic">Distributed</text></g><g/><g><path fill="none" stroke="black" paint-order="fill stroke markers" d=" M 38.66760165 128.80307802049998 L 38.66760165 1875.036310790499" stroke-miterlimit="10" stroke-width="1.3612669416666667" stroke-dasharray="12.565541,5.445067766666667"/><path fill="none" stroke="black" paint-order="fill stroke markers" d=" M 216.2281437833333 128.80307802049998 L 216.2281437833333 1875.036310790499" stroke-miterlimit="10" stroke-width="1.3612669416666667" stroke-dasharray="12.565541,5.445067766666667"/><path fill="none" stroke="black" paint-order="fill stroke markers" d=" M 472.9562875666667 128.80307802049998 L 472.9562875666667 1875.036310790499" stroke-miterlimit="10" stroke-width="1.3612669416666667" stroke-dasharray="12.565541,5.445067766666667"/><path fill="none" stroke="black" paint-order="fill stroke markers" d=" M 949.0717619333334 128.80307802049998 L 949.0717619333334 1875.036310790499" stroke-miterlimit="10" stroke-width="1.3612669416666667" stroke-dasharray="12.565541,5.445067766666667"/><path fill="none" stroke="black" paint-order="fill stroke markers" d=" M 1212.0196346500002 128.80307802049998 L 1212.0196346500002 1875.036310790499" stroke-miterlimit="10" stroke-width="1.3612669416666667" stroke-dasharray="12.565541,5.445067766666667"/><path fill="none" stroke="black" paint-order="fill stroke markers" d=" M 1474.9675073666667 128.80307802049998 L 1474.9675073666667 1875.036310790499" stroke-miterlimit="10" stroke-width="1.3612669416666667" stroke-dasharray="12.565541,5.445067766666667"/></g><g><g><path fill="white" stroke="black" paint-order="fill stroke markers" d=" M 47.978667531 59.70516806150002 A 9.311065881 9.311065881 0 1 1 47.97866287546745 59.69585699717086 M 38.66760165 69.01623394250002 L 38.66760165 88.94518196850002 M 26.906255274000003 76.20372339450002 L 50.428948026 76.20372339450002 M 38.66760165 88.94518196850002 L 26.906255274000003 107.56731373050002 M 38.66760165 88.94518196850002 L 50.428948026 107.56731373050002" stroke-miterlimit="10" stroke-width="2.7769845610000004" stroke-dasharray=""/></g><g><g/><text fill="black" stroke="none" font-family="sans-serif" font-size="11pt" font-style="normal" font-weight="normal" text-decoration="normal" x="8.167601650000002" y="123.90251703050001" text-anchor="start" dominant-baseline="alphabetic">Request</text></g><path fill="none" stroke="none"/><g><path fill="white" stroke="black" paint-order="fill stroke markers" d=" M 149.00444820283332 84.69802911050002 L 283.4518393638333 84.69802911050002 L 283.4518393638333 128.8030780205 L 149.00444820283332 128.8030780205 L 149.00444820283332 84.69802911050002 Z" stroke-miterlimit="10" stroke-width="2.613632528" stroke-dasharray=""/></g><g><g/><text fill="black" stroke="none" font-family="sans-serif" font-size="11pt" font-style="normal" font-weight="normal" text-decoration="normal" x="166.7281437833333" y="112.46787472049999" text-anchor="start" dominant-baseline="alphabetic">Jormungandr</text></g><path fill="none" stroke="none"/><g><path fill="white" stroke="black" paint-order="fill stroke markers" d=" M 412.73259198616665 84.69802911050002 L 533.1799831471667 84.69802911050002 L 533.1799831471667 128.8030780205 L 412.73259198616665 128.8030780205 L 412.73259198616665 84.69802911050002 Z" stroke-miterlimit="10" stroke-width="2.613632528" stroke-dasharray=""/></g><g><g/><text fill="black" stroke="none" font-family="sans-serif" font-size="11pt" font-style="normal" font-weight="normal" text-decoration="normal" x="430.4562875666667" y="112.46787472049999" text-anchor="start" dominant-baseline="alphabetic">Distributed</text></g><path fill="none" stroke="none"/><g><path fill="white" stroke="black" paint-order="fill stroke markers" d=" M 905.3480663528334 84.69802911050002 L 992.7954575138334 84.69802911050002 L 992.7954575138334 128.8030780205 L 905.3480663528334 128.8030780205 L 905.3480663528334 84.69802911050002 Z" stroke-miterlimit="10" stroke-width="2.613632528" stroke-dasharray=""/></g><g><g/><text fill="black" stroke="none" font-family="sans-serif" font-size="11pt" font-style="normal" font-weight="normal" text-decoration="normal" x="923.0717619333334" y="112.46787472049999" text-anchor="start" dominant-baseline="alphabetic">Kraken</text></g><path fill="none" stroke="none"/><g><path fill="white" stroke="black" paint-order="fill stroke markers" d=" M 1165.2959390695003 84.69802911050002 L 1258.7433302305003 84.69802911050002 L 1258.7433302305003 128.8030780205 L 1165.2959390695003 128.8030780205 L 1165.2959390695003 84.69802911050002 Z" stroke-miterlimit="10" stroke-width="2.613632528" stroke-dasharray=""/></g><g><g/><text fill="black" stroke="none" font-family="sans-serif" font-size="11pt" font-style="normal" font-weight="normal" text-decoration="normal" x="1183.0196346500002" y="112.46787472049999" text-anchor="start" dominant-baseline="alphabetic">Valhalla</text></g><path fill="none" stroke="none"/><g><path fill="white" stroke="black" paint-order="fill stroke markers" d=" M 1426.7438117861668 84.69802911050002 L 1523.1912029471669 84.69802911050002 L 1523.1912029471669 128.8030780205 L 1426.7438117861668 128.8030780205 L 1426.7438117861668 84.69802911050002 Z" stroke-miterlimit="10" stroke-width="2.613632528" stroke-dasharray=""/></g><g><g/><text fill="black" stroke="none" font-family="sans-serif" font-size="11pt" font-style="normal" font-weight="normal" text-decoration="normal" x="1444.4675073666667" y="112.46787472049999" text-anchor="start" dominant-baseline="alphabetic">Geovelo</text></g></g><g><path fill="gray" stroke="black" paint-order="fill stroke markers" d=" M 464.7886859166667 290.5215906905 L 481.12388921666667 290.5215906905 L 481.12388921666667 393.4333714805 L 464.7886859166667 393.4333714805 L 464.7886859166667 290.5215906905" stroke-miterlimit="10" stroke-width="1.3612669416666667" stroke-dasharray=""/><path fill="gray" stroke="black" paint-order="fill stroke markers" d=" M 464.7886859166667 455.5071440205 L 481.12388921666667 455.5071440205 L 481.12388921666667 633.5608599904999 L 464.7886859166667 633.5608599904999 L 464.7886859166667 455.5071440205" stroke-miterlimit="10" stroke-width="1.3612669416666667" stroke-dasharray=""/><path fill="gray" stroke="black" paint-order="fill stroke markers" d=" M 464.7886859166667 695.6346325304999 L 481.12388921666667 695.6346325304999 L 481.12388921666667 787.1117710104998 L 464.7886859166667 787.1117710104998 L 464.7886859166667 695.6346325304999" stroke-miterlimit="10" stroke-width="1.3612669416666667" stroke-dasharray=""/><path fill="gray" stroke="black" paint-order="fill stroke markers" d=" M 464.7886859166667 890.0235518004997 L 481.12388921666667 890.0235518004997 L 481.12388921666667 1076.2448694204995 L 464.7886859166667 1076.2448694204995 L 464.7886859166667 890.0235518004997" stroke-miterlimit="10" stroke-width="1.3612669416666667" stroke-dasharray=""/><path fill="gray" stroke="black" paint-order="fill stroke markers" d=" M 464.7886859166667 1138.3186419604995 L 481.12388921666667 1138.3186419604995 L 481.12388921666667 1200.3924145004994 L 464.7886859166667 1200.3924145004994 L 464.7886859166667 1138.3186419604995" stroke-miterlimit="10" stroke-width="1.3612669416666667" stroke-dasharray=""/><path fill="gray" stroke="black" paint-order="fill stroke markers" d=" M 464.7886859166667 1478.0908706004993 L 481.12388921666667 1478.0908706004993 L 481.12388921666667 1664.3121882204991 L 464.7886859166667 1664.3121882204991 L 464.7886859166667 1478.0908706004993" stroke-miterlimit="10" stroke-width="1.3612669416666667" stroke-dasharray=""/><g><g><rect fill="white" stroke="none" x="93.99759222166666" y="161.4734846205" width="66.90056099" height="21.23576429"/></g><text fill="black" stroke="none" font-family="sans-serif" font-size="11pt" font-style="normal" font-weight="normal" text-decoration="normal" x="96.44787271666667" y="176.17516759049997" text-anchor="start" dominant-baseline="alphabetic">/journey</text></g><g><path fill="none" stroke="black" paint-order="fill stroke markers" d=" M 38.66760165 182.70924891049998 L 213.50560989999997 182.70924891049998" stroke-miterlimit="10" stroke-width="1.3612669416666667" stroke-dasharray=""/><g transform="translate(216.2281437833333,182.70924891049998) translate(-216.2281437833333,-182.70924891049998)"><path fill="black" stroke="none" paint-order="stroke fill markers" d=" M 202.61547436666663 175.90291420216664 L 216.2281437833333 182.70924891049998 L 202.61547436666663 189.51558361883332 Z"/></g></g><g><g><rect fill="white" stroke="none" x="300.14193518" y="207.2120538605" width="88.90056099" height="21.23576429"/></g><text fill="black" stroke="none" font-family="sans-serif" font-size="11pt" font-style="normal" font-weight="normal" text-decoration="normal" x="302.59221567500003" y="221.91373683049997" text-anchor="start" dominant-baseline="alphabetic">call_kraken</text></g><g><path fill="none" stroke="black" paint-order="fill stroke markers" d=" M 216.2281437833333 228.44781815049998 L 470.23375368333336 228.44781815049998" stroke-miterlimit="10" stroke-width="1.3612669416666667" stroke-dasharray=""/><g transform="translate(472.9562875666667,228.44781815049998) translate(-472.9562875666667,-228.44781815049998)"><path fill="black" stroke="none" paint-order="stroke fill markers" d=" M 459.34361815 221.64148344216665 L 472.9562875666667 228.44781815049998 L 459.34361815 235.25415285883332 Z"/></g></g><path fill="white" stroke="black" paint-order="fill stroke markers" d=" M 472.9562875666667 271.7361068955 L 481.12388921666667 271.7361068955 M 481.12388921666667 252.95062310049997 L 666.1607754866667 252.95062310049997 L 680.8624584566667 267.65230607049995 L 680.8624584566667 290.5215906905 L 481.12388921666667 290.5215906905 L 481.12388921666667 252.95062310049997 M 666.1607754866667 252.95062310049997 L 666.1607754866667 267.65230607049995 L 680.8624584566667 267.65230607049995" stroke-miterlimit="10" stroke-width="1.3612669416666667" stroke-dasharray=""/><g><text fill="black" stroke="none" font-family="sans-serif" font-size="11pt" font-style="normal" font-weight="normal" text-decoration="normal" x="503.99317383666664" y="275.81990772049994" text-anchor="start" dominant-baseline="alphabetic">Resolve entry points</text></g><g><g><rect fill="white" stroke="none" x="595.64754508" y="315.02439564049996" width="238.90056099" height="21.23576429"/></g><text fill="black" stroke="none" font-family="sans-serif" font-size="11pt" font-style="normal" font-weight="normal" text-decoration="normal" x="598.097825575" y="329.72607861049994" text-anchor="start" dominant-baseline="alphabetic">PlaceByUri [origin, destination]</text></g><g><path fill="none" stroke="black" paint-order="fill stroke markers" d=" M 481.12388921666667 336.2601599305 L 946.3492280500001 336.2601599305" stroke-miterlimit="10" stroke-width="1.3612669416666667" stroke-dasharray=""/><g transform="translate(949.0717619333334,336.2601599305) translate(-949.0717619333334,-336.2601599305)"><path fill="black" stroke="none" paint-order="stroke fill markers" d=" M 935.4590925166667 329.45382522216664 L 949.0717619333334 336.2601599305 L 935.4590925166667 343.0664946388333 Z"/><g transform="translate(481.12388921666667,336.2601599305) translate(-481.12388921666667,-336.2601599305)"><path fill="black" stroke="none" paint-order="stroke fill markers" d=" M 494.73655863333335 329.45382522216664 L 481.12388921666667 336.2601599305 L 494.73655863333335 343.0664946388333 Z"/></g></g></g><g><g><rect fill="white" stroke="none" x="968.4017525050001" y="315.02439564049996" width="72.90056099" height="21.23576429"/></g><text fill="black" stroke="none" font-family="sans-serif" font-size="11pt" font-style="normal" font-weight="normal" text-decoration="normal" x="970.8520330000001" y="329.72607861049994" text-anchor="start" dominant-baseline="alphabetic">place_uri</text></g><g><path fill="none" stroke="black" paint-order="fill stroke markers" d=" M 949.0717619333334 336.2601599305 L 1014.4125751333333 336.2601599305 L 1014.4125751333333 352.59536323049997 L 951.7942958166667 352.59536323049997" stroke-miterlimit="10" stroke-width="1.3612669416666667" stroke-dasharray=""/><g transform="translate(949.0717619333334,352.59536323049997) translate(-949.0717619333334,-352.59536323049997)"><path fill="black" stroke="none" paint-order="stroke fill markers" d=" M 962.6844313500001 345.78902852216663 L 949.0717619333334 352.59536323049997 L 962.6844313500001 359.4016979388333 Z"/><g transform="translate(949.0717619333334,352.59536323049997) translate(-949.0717619333334,-352.59536323049997)"><path fill="black" stroke="none" paint-order="stroke fill markers" d=" M 962.6844313500001 345.78902852216663 L 949.0717619333334 352.59536323049997 L 962.6844313500001 359.4016979388333 Z"/></g></g></g><path fill="white" stroke="black" paint-order="fill stroke markers" d=" M 472.9562875666667 436.7216602255 L 481.12388921666667 436.7216602255 M 481.12388921666667 417.9361764305 L 717.1607754866667 417.9361764305 L 731.8624584566667 432.63785940049996 L 731.8624584566667 455.5071440205 L 481.12388921666667 455.5071440205 L 481.12388921666667 417.9361764305 M 717.1607754866667 417.9361764305 L 717.1607754866667 432.63785940049996 L 731.8624584566667 432.63785940049996" stroke-miterlimit="10" stroke-width="1.3612669416666667" stroke-dasharray=""/><g><text fill="black" stroke="none" font-family="sans-serif" font-size="11pt" font-style="normal" font-weight="normal" text-decoration="normal" x="503.99317383666664" y="440.80546105049996" text-anchor="start" dominant-baseline="alphabetic">Direct path for every mode</text></g><g><g><rect fill="white" stroke="none" x="682.64754508" y="480.0099489705" width="64.90056099" height="21.23576429"/></g><text fill="black" stroke="none" font-family="sans-serif" font-size="11pt" font-style="normal" font-weight="normal" text-decoration="normal" x="685.097825575" y="494.71163194049996" text-anchor="start" dominant-baseline="alphabetic">Walking</text></g><g><path fill="none" stroke="black" paint-order="fill stroke markers" d=" M 481.12388921666667 501.2457132605 L 946.3492280500001 501.2457132605" stroke-miterlimit="10" stroke-width="1.3612669416666667" stroke-dasharray="6.53408132"/><g transform="translate(949.0717619333334,501.2457132605) translate(-949.0717619333334,-501.2457132605)"><path fill="black" stroke="none" paint-order="stroke fill markers" d=" M 935.4590925166667 494.43937855216666 L 949.0717619333334 501.2457132605 L 935.4590925166667 508.05204796883334 Z"/><g transform="translate(481.12388921666667,501.2457132605) translate(-481.12388921666667,-501.2457132605)"><path fill="black" stroke="none" paint-order="stroke fill markers" d=" M 494.73655863333335 494.43937855216666 L 481.12388921666667 501.2457132605 L 494.73655863333335 508.05204796883334 Z"/></g></g></g><g><g><rect fill="white" stroke="none" x="831.6214814383334" y="525.7485182104999" width="29.90056099" height="21.23576429"/></g><text fill="black" stroke="none" font-family="sans-serif" font-size="11pt" font-style="normal" font-weight="normal" text-decoration="normal" x="834.0717619333334" y="540.4502011804999" text-anchor="start" dominant-baseline="alphabetic">Car</text></g><g><path fill="none" stroke="black" paint-order="fill stroke markers" d=" M 481.12388921666667 546.9842825005 L 1209.2971007666667 546.9842825005" stroke-miterlimit="10" stroke-width="1.3612669416666667" stroke-dasharray="6.53408132"/><g transform="translate(1212.0196346500002,546.9842825005) translate(-1212.0196346500002,-546.9842825005)"><path fill="black" stroke="none" paint-order="stroke fill markers" d=" M 1198.4069652333335 540.1779477921666 L 1212.0196346500002 546.9842825005 L 1198.4069652333335 553.7906172088333 Z"/><g transform="translate(481.12388921666667,546.9842825005) translate(-481.12388921666667,-546.9842825005)"><path fill="black" stroke="none" paint-order="stroke fill markers" d=" M 494.73655863333335 540.1779477921666 L 481.12388921666667 546.9842825005 L 494.73655863333335 553.7906172088333 Z"/></g></g></g><g><g><rect fill="white" stroke="none" x="960.0954177966667" y="571.4870874504999" width="35.90056099" height="21.23576429"/></g><text fill="black" stroke="none" font-family="sans-serif" font-size="11pt" font-style="normal" font-weight="normal" text-decoration="normal" x="962.5456982916667" y="586.1887704204998" text-anchor="start" dominant-baseline="alphabetic">Bike</text></g><g><path fill="none" stroke="black" paint-order="fill stroke markers" d=" M 481.12388921666667 592.7228517404999 L 1472.2449734833333 592.7228517404999" stroke-miterlimit="10" stroke-width="1.3612669416666667" stroke-dasharray="6.53408132"/><g transform="translate(1474.9675073666667,592.7228517404999) translate(-1474.9675073666667,-592.7228517404999)"><path fill="black" stroke="none" paint-order="stroke fill markers" d=" M 1461.35483795 585.9165170321666 L 1474.9675073666667 592.7228517404999 L 1461.35483795 599.5291864488332 Z"/><g transform="translate(481.12388921666667,592.7228517404999) translate(-481.12388921666667,-592.7228517404999)"><path fill="black" stroke="none" paint-order="stroke fill markers" d=" M 494.73655863333335 585.9165170321666 L 481.12388921666667 592.7228517404999 L 494.73655863333335 599.5291864488332 Z"/></g></g></g><path fill="white" stroke="black" paint-order="fill stroke markers" d=" M 472.9562875666667 676.8491487354999 L 481.12388921666667 676.8491487354999 M 481.12388921666667 658.0636649404998 L 682.1607754866667 658.0636649404998 L 696.8624584566667 672.7653479104998 L 696.8624584566667 695.6346325304999 L 481.12388921666667 695.6346325304999 L 481.12388921666667 658.0636649404998 M 682.1607754866667 658.0636649404998 L 682.1607754866667 672.7653479104998 L 696.8624584566667 672.7653479104998" stroke-miterlimit="10" stroke-width="1.3612669416666667" stroke-dasharray=""/><g><text fill="black" stroke="none" font-family="sans-serif" font-size="11pt" font-style="normal" font-weight="normal" text-decoration="normal" x="503.99317383666664" y="680.9329495604999" text-anchor="start" dominant-baseline="alphabetic">Accessible Stop points</text></g><g><g><rect fill="white" stroke="none" x="550.14754508" y="720.1374374804998" width="329.90056099" height="21.23576429"/></g><text fill="black" stroke="none" font-family="sans-serif" font-size="11pt" font-style="normal" font-weight="normal" text-decoration="normal" x="552.597825575" y="734.8391204504998" text-anchor="start" dominant-baseline="alphabetic">Proximities by crow fly [origin, destination]</text></g><g><path fill="none" stroke="black" paint-order="fill stroke markers" d=" M 481.12388921666667 741.3732017704998 L 946.3492280500001 741.3732017704998" stroke-miterlimit="10" stroke-width="1.3612669416666667" stroke-dasharray=""/><g transform="translate(949.0717619333334,741.3732017704998) translate(-949.0717619333334,-741.3732017704998)"><path fill="black" stroke="none" paint-order="stroke fill markers" d=" M 935.4590925166667 734.5668670621665 L 949.0717619333334 741.3732017704998 L 935.4590925166667 748.1795364788331 Z"/><g transform="translate(481.12388921666667,741.3732017704998) translate(-481.12388921666667,-741.3732017704998)"><path fill="black" stroke="none" paint-order="stroke fill markers" d=" M 494.73655863333335 734.5668670621665 L 481.12388921666667 741.3732017704998 L 494.73655863333335 748.1795364788331 Z"/></g></g></g><g><g><rect fill="white" stroke="none" x="565.14754508" y="765.8760067204997" width="299.90056099" height="21.23576429"/></g><text fill="black" stroke="none" font-family="sans-serif" font-size="11pt" font-style="normal" font-weight="normal" text-decoration="normal" x="567.597825575" y="780.5776896904997" text-anchor="start" dominant-baseline="alphabetic">Places Free Access [origin, destination]</text></g><g><path fill="none" stroke="black" paint-order="fill stroke markers" d=" M 481.12388921666667 787.1117710104998 L 946.3492280500001 787.1117710104998" stroke-miterlimit="10" stroke-width="1.3612669416666667" stroke-dasharray=""/><g transform="translate(949.0717619333334,787.1117710104998) translate(-949.0717619333334,-787.1117710104998)"><path fill="black" stroke="none" paint-order="stroke fill markers" d=" M 935.4590925166667 780.3054363021664 L 949.0717619333334 787.1117710104998 L 935.4590925166667 793.9181057188331 Z"/><g transform="translate(481.12388921666667,787.1117710104998) translate(-481.12388921666667,-787.1117710104998)"><path fill="black" stroke="none" paint-order="stroke fill markers" d=" M 494.73655863333335 780.3054363021664 L 481.12388921666667 787.1117710104998 L 494.73655863333335 793.9181057188331 Z"/></g></g></g><path fill="white" stroke="black" paint-order="fill stroke markers" d=" M 472.9562875666667 871.2380680054997 L 481.12388921666667 871.2380680054997 M 481.12388921666667 852.4525842104997 L 721.1607754866667 852.4525842104997 L 735.8624584566667 867.1542671804997 L 735.8624584566667 890.0235518004997 L 481.12388921666667 890.0235518004997 L 481.12388921666667 852.4525842104997 M 721.1607754866667 852.4525842104997 L 721.1607754866667 867.1542671804997 L 735.8624584566667 867.1542671804997" stroke-miterlimit="10" stroke-width="1.3612669416666667" stroke-dasharray=""/><g><text fill="black" stroke="none" font-family="sans-serif" font-size="11pt" font-style="normal" font-weight="normal" text-decoration="normal" x="503.99317383666664" y="875.3218688304997" text-anchor="start" dominant-baseline="alphabetic">Compute fallback durations</text></g><g><g><rect fill="white" stroke="none" x="610.14754508" y="914.5263567504996" width="209.90056099" height="21.23576429"/></g><text fill="black" stroke="none" font-family="sans-serif" font-size="11pt" font-style="normal" font-weight="normal" text-decoration="normal" x="612.597825575" y="929.2280397204996" text-anchor="start" dominant-baseline="alphabetic">Walking Fallback Durations</text></g><g><path fill="none" stroke="black" paint-order="fill stroke markers" d=" M 481.12388921666667 935.7621210404997 L 946.3492280500001 935.7621210404997" stroke-miterlimit="10" stroke-width="1.3612669416666667" stroke-dasharray="6.53408132"/><g transform="translate(949.0717619333334,935.7621210404997) translate(-949.0717619333334,-935.7621210404997)"><path fill="black" stroke="none" paint-order="stroke fill markers" d=" M 935.4590925166667 928.9557863321663 L 949.0717619333334 935.7621210404997 L 935.4590925166667 942.568455748833 Z"/><g transform="translate(481.12388921666667,935.7621210404997) translate(-481.12388921666667,-935.7621210404997)"><path fill="black" stroke="none" paint-order="stroke fill markers" d=" M 494.73655863333335 928.9557863321663 L 481.12388921666667 935.7621210404997 L 494.73655863333335 942.568455748833 Z"/></g></g></g><g><g><rect fill="white" stroke="none" x="968.4017525050001" y="914.5263567504996" width="237.90056099" height="21.23576429"/></g><text fill="black" stroke="none" font-family="sans-serif" font-size="11pt" font-style="normal" font-weight="normal" text-decoration="normal" x="970.8520330000001" y="929.2280397204996" text-anchor="start" dominant-baseline="alphabetic">street_network_routing_matrix</text></g><g><path fill="none" stroke="black" paint-order="fill stroke markers" d=" M 949.0717619333334 935.7621210404997 L 1014.4125751333333 935.7621210404997 L 1014.4125751333333 952.0973243404997 L 951.7942958166667 952.0973243404997" stroke-miterlimit="10" stroke-width="1.3612669416666667" stroke-dasharray="6.53408132"/><g transform="translate(949.0717619333334,952.0973243404997) translate(-949.0717619333334,-952.0973243404997)"><path fill="black" stroke="none" paint-order="stroke fill markers" d=" M 962.6844313500001 945.2909896321663 L 949.0717619333334 952.0973243404997 L 962.6844313500001 958.903659048833 Z"/><g transform="translate(949.0717619333334,952.0973243404997) translate(-949.0717619333334,-952.0973243404997)"><path fill="black" stroke="none" paint-order="stroke fill markers" d=" M 962.6844313500001 945.2909896321663 L 949.0717619333334 952.0973243404997 L 962.6844313500001 958.903659048833 Z"/></g></g></g><g><g><rect fill="white" stroke="none" x="759.1214814383334" y="976.6001292904996" width="174.90056099" height="21.23576429"/></g><text fill="black" stroke="none" font-family="sans-serif" font-size="11pt" font-style="normal" font-weight="normal" text-decoration="normal" x="761.5717619333334" y="991.3018122604996" text-anchor="start" dominant-baseline="alphabetic">Car Fallback Durations</text></g><g><path fill="none" stroke="black" paint-order="fill stroke markers" d=" M 481.12388921666667 997.8358935804996 L 1209.2971007666667 997.8358935804996" stroke-miterlimit="10" stroke-width="1.3612669416666667" stroke-dasharray="6.53408132"/><g transform="translate(1212.0196346500002,997.8358935804996) translate(-1212.0196346500002,-997.8358935804996)"><path fill="black" stroke="none" paint-order="stroke fill markers" d=" M 1198.4069652333335 991.0295588721663 L 1212.0196346500002 997.8358935804996 L 1198.4069652333335 1004.6422282888329 Z"/><g transform="translate(481.12388921666667,997.8358935804996) translate(-481.12388921666667,-997.8358935804996)"><path fill="black" stroke="none" paint-order="stroke fill markers" d=" M 494.73655863333335 991.0295588721663 L 481.12388921666667 997.8358935804996 L 494.73655863333335 1004.6422282888329 Z"/></g></g></g><g><g><rect fill="white" stroke="none" x="1231.3496252216669" y="976.6001292904996" width="237.90056099" height="21.23576429"/></g><text fill="black" stroke="none" font-family="sans-serif" font-size="11pt" font-style="normal" font-weight="normal" text-decoration="normal" x="1233.799905716667" y="991.3018122604996" text-anchor="start" dominant-baseline="alphabetic">street_network_routing_matrix</text></g><g><path fill="none" stroke="black" paint-order="fill stroke markers" d=" M 1212.0196346500002 997.8358935804996 L 1277.3604478500001 997.8358935804996 L 1277.3604478500001 1014.1710968804996 L 1214.7421685333336 1014.1710968804996" stroke-miterlimit="10" stroke-width="1.3612669416666667" stroke-dasharray="6.53408132"/><g transform="translate(1212.0196346500002,1014.1710968804996) translate(-1212.0196346500002,-1014.1710968804996)"><path fill="black" stroke="none" paint-order="stroke fill markers" d=" M 1225.6323040666668 1007.3647621721663 L 1212.0196346500002 1014.1710968804996 L 1225.6323040666668 1020.9774315888329 Z"/><g transform="translate(1212.0196346500002,1014.1710968804996) translate(-1212.0196346500002,-1014.1710968804996)"><path fill="black" stroke="none" paint-order="stroke fill markers" d=" M 1225.6323040666668 1007.3647621721663 L 1212.0196346500002 1014.1710968804996 L 1225.6323040666668 1020.9774315888329 Z"/></g></g></g><g><g><rect fill="white" stroke="none" x="887.5954177966667" y="1038.6739018304995" width="180.90056099" height="21.23576429"/></g><text fill="black" stroke="none" font-family="sans-serif" font-size="11pt" font-style="normal" font-weight="normal" text-decoration="normal" x="890.0456982916667" y="1053.3755848004996" text-anchor="start" dominant-baseline="alphabetic">Bike Fallback Durations</text></g><g><path fill="none" stroke="black" paint-order="fill stroke markers" d=" M 481.12388921666667 1059.9096661204994 L 1472.2449734833333 1059.9096661204994" stroke-miterlimit="10" stroke-width="1.3612669416666667" stroke-dasharray="6.53408132"/><g transform="translate(1474.9675073666667,1059.9096661204994) translate(-1474.9675073666667,-1059.9096661204994)"><path fill="black" stroke="none" paint-order="stroke fill markers" d=" M 1461.35483795 1053.1033314121662 L 1474.9675073666667 1059.9096661204994 L 1461.35483795 1066.7160008288326 Z"/><g transform="translate(481.12388921666667,1059.9096661204994) translate(-481.12388921666667,-1059.9096661204994)"><path fill="black" stroke="none" paint-order="stroke fill markers" d=" M 494.73655863333335 1053.1033314121662 L 481.12388921666667 1059.9096661204994 L 494.73655863333335 1066.7160008288326 Z"/></g></g></g><g><g><rect fill="white" stroke="none" x="1494.2974979383334" y="1038.6739018304995" width="237.90056099" height="21.23576429"/></g><text fill="black" stroke="none" font-family="sans-serif" font-size="11pt" font-style="normal" font-weight="normal" text-decoration="normal" x="1496.7477784333335" y="1053.3755848004996" text-anchor="start" dominant-baseline="alphabetic">street_network_routing_matrix</text></g><g><path fill="none" stroke="black" paint-order="fill stroke markers" d=" M 1474.9675073666667 1059.9096661204994 L 1540.3083205666667 1059.9096661204994 L 1540.3083205666667 1076.2448694204995 L 1477.6900412500001 1076.2448694204995" stroke-miterlimit="10" stroke-width="1.3612669416666667" stroke-dasharray="6.53408132"/><g transform="translate(1474.9675073666667,1076.2448694204995) translate(-1474.9675073666667,-1076.2448694204995)"><path fill="black" stroke="none" paint-order="stroke fill markers" d=" M 1488.5801767833334 1069.4385347121663 L 1474.9675073666667 1076.2448694204995 L 1488.5801767833334 1083.0512041288328 Z"/><g transform="translate(1474.9675073666667,1076.2448694204995) translate(-1474.9675073666667,-1076.2448694204995)"><path fill="black" stroke="none" paint-order="stroke fill markers" d=" M 1488.5801767833334 1069.4385347121663 L 1474.9675073666667 1076.2448694204995 L 1488.5801767833334 1083.0512041288328 Z"/></g></g></g><path fill="white" stroke="black" paint-order="fill stroke markers" d=" M 472.9562875666667 1119.5331581654996 L 481.12388921666667 1119.5331581654996 M 481.12388921666667 1100.7476743704995 L 777.1607754866667 1100.7476743704995 L 791.8624584566667 1115.4493573404995 L 791.8624584566667 1138.3186419604995 L 481.12388921666667 1138.3186419604995 L 481.12388921666667 1100.7476743704995 M 777.1607754866667 1100.7476743704995 L 777.1607754866667 1115.4493573404995 L 791.8624584566667 1115.4493573404995" stroke-miterlimit="10" stroke-width="1.3612669416666667" stroke-dasharray=""/><g><text fill="black" stroke="none" font-family="sans-serif" font-size="11pt" font-style="normal" font-weight="normal" text-decoration="normal" x="503.99317383666664" y="1123.6169589904996" text-anchor="start" dominant-baseline="alphabetic">Compute Public Transport journeys</text></g><g><g><rect fill="white" stroke="none" x="676.64754508" y="1162.8214469104994" width="76.90056099" height="21.23576429"/></g><text fill="black" stroke="none" font-family="sans-serif" font-size="11pt" font-style="normal" font-weight="normal" text-decoration="normal" x="679.097825575" y="1177.5231298804995" text-anchor="start" dominant-baseline="alphabetic">PtJourney</text></g><g><path fill="none" stroke="black" paint-order="fill stroke markers" d=" M 481.12388921666667 1184.0572112004993 L 946.3492280500001 1184.0572112004993" stroke-miterlimit="10" stroke-width="1.3612669416666667" stroke-dasharray=""/><g transform="translate(949.0717619333334,1184.0572112004993) translate(-949.0717619333334,-1184.0572112004993)"><path fill="black" stroke="none" paint-order="stroke fill markers" d=" M 935.4590925166667 1177.250876492166 L 949.0717619333334 1184.0572112004993 L 935.4590925166667 1190.8635459088325 Z"/><g transform="translate(481.12388921666667,1184.0572112004993) translate(-481.12388921666667,-1184.0572112004993)"><path fill="black" stroke="none" paint-order="stroke fill markers" d=" M 494.73655863333335 1177.250876492166 L 481.12388921666667 1184.0572112004993 L 494.73655863333335 1190.8635459088325 Z"/></g></g></g><g><g><rect fill="white" stroke="none" x="968.4017525050001" y="1162.8214469104994" width="86.90056099" height="21.23576429"/></g><text fill="black" stroke="none" font-family="sans-serif" font-size="11pt" font-style="normal" font-weight="normal" text-decoration="normal" x="970.8520330000001" y="1177.5231298804995" text-anchor="start" dominant-baseline="alphabetic">pt_planner</text></g><g><path fill="none" stroke="black" paint-order="fill stroke markers" d=" M 949.0717619333334 1184.0572112004993 L 1014.4125751333333 1184.0572112004993 L 1014.4125751333333 1200.3924145004994 L 951.7942958166667 1200.3924145004994" stroke-miterlimit="10" stroke-width="1.3612669416666667" stroke-dasharray=""/><g transform="translate(949.0717619333334,1200.3924145004994) translate(-949.0717619333334,-1200.3924145004994)"><path fill="black" stroke="none" paint-order="stroke fill markers" d=" M 962.6844313500001 1193.5860797921662 L 949.0717619333334 1200.3924145004994 L 962.6844313500001 1207.1987492088326 Z"/><g transform="translate(949.0717619333334,1200.3924145004994) translate(-949.0717619333334,-1200.3924145004994)"><path fill="black" stroke="none" paint-order="stroke fill markers" d=" M 962.6844313500001 1193.5860797921662 L 949.0717619333334 1200.3924145004994 L 962.6844313500001 1207.1987492088326 Z"/></g></g></g><path fill="white" stroke="black" paint-order="fill stroke markers" d=" M 472.9562875666667 1243.6807032454994 L 481.12388921666667 1243.6807032454994 M 481.12388921666667 1224.8952194504993 L 752.1607754866667 1224.8952194504993 L 766.8624584566667 1239.5969024204994 L 766.8624584566667 1262.4661870404993 L 481.12388921666667 1262.4661870404993 L 481.12388921666667 1224.8952194504993 M 752.1607754866667 1224.8952194504993 L 752.1607754866667 1239.5969024204994 L 766.8624584566667 1239.5969024204994" stroke-miterlimit="10" stroke-width="1.3612669416666667" stroke-dasharray=""/><g><text fill="black" stroke="none" font-family="sans-serif" font-size="11pt" font-style="normal" font-weight="normal" text-decoration="normal" x="503.99317383666664" y="1247.7645040704995" text-anchor="start" dominant-baseline="alphabetic">Create temp crow-flies fallbacks</text></g><g><g><rect fill="white" stroke="none" x="239.64193518000005" y="1286.9689919904995" width="209.90056099" height="21.23576429"/></g><text fill="black" stroke="none" font-family="sans-serif" font-size="11pt" font-style="normal" font-weight="normal" text-decoration="normal" x="242.09221567500003" y="1301.6706749604996" text-anchor="start" dominant-baseline="alphabetic">pt journeys (tmp fallbacks)</text></g><g><path fill="none" stroke="black" paint-order="fill stroke markers" d=" M 472.9562875666667 1308.2047562804994 L 218.95067766666665 1308.2047562804994" stroke-miterlimit="10" stroke-width="1.3612669416666667" stroke-dasharray=""/><g transform="translate(216.2281437833333,1308.2047562804994) translate(-216.2281437833333,-1308.2047562804994)"><path fill="black" stroke="none" paint-order="stroke fill markers" d=" M 229.84081319999999 1301.3984215721662 L 216.2281437833333 1308.2047562804994 L 229.84081319999999 1315.0110909888326 Z"/></g></g><g><g><rect fill="white" stroke="none" x="235.558134355" y="1332.7075612304993" width="135.90056099" height="21.23576429"/></g><text fill="black" stroke="none" font-family="sans-serif" font-size="11pt" font-style="normal" font-weight="normal" text-decoration="normal" x="238.00841484999998" y="1347.4092442004994" text-anchor="start" dominant-baseline="alphabetic">Journeys Filtering</text></g><g><path fill="none" stroke="black" paint-order="fill stroke markers" d=" M 216.2281437833333 1353.9433255204992 L 281.5689569833333 1353.9433255204992 L 281.5689569833333 1370.2785288204993 L 218.95067766666665 1370.2785288204993" stroke-miterlimit="10" stroke-width="1.3612669416666667" stroke-dasharray=""/><g transform="translate(216.2281437833333,1370.2785288204993) translate(-216.2281437833333,-1370.2785288204993)"><path fill="black" stroke="none" paint-order="stroke fill markers" d=" M 229.84081319999999 1363.472194112166 L 216.2281437833333 1370.2785288204993 L 229.84081319999999 1377.0848635288326 Z"/><g transform="translate(216.2281437833333,1370.2785288204993) translate(-216.2281437833333,-1370.2785288204993)"><path fill="black" stroke="none" paint-order="stroke fill markers" d=" M 229.84081319999999 1363.472194112166 L 216.2281437833333 1370.2785288204993 L 229.84081319999999 1377.0848635288326 Z"/></g></g></g><g><g><rect fill="white" stroke="none" x="279.14193518" y="1394.7813337704995" width="130.90056099" height="21.23576429"/></g><text fill="black" stroke="none" font-family="sans-serif" font-size="11pt" font-style="normal" font-weight="normal" text-decoration="normal" x="281.59221567500003" y="1409.4830167404996" text-anchor="start" dominant-baseline="alphabetic">Finalise journeys</text></g><g><path fill="none" stroke="black" paint-order="fill stroke markers" d=" M 216.2281437833333 1416.0170980604994 L 470.23375368333336 1416.0170980604994" stroke-miterlimit="10" stroke-width="1.3612669416666667" stroke-dasharray=""/><g transform="translate(472.9562875666667,1416.0170980604994) translate(-472.9562875666667,-1416.0170980604994)"><path fill="black" stroke="none" paint-order="stroke fill markers" d=" M 459.34361815 1409.2107633521662 L 472.9562875666667 1416.0170980604994 L 459.34361815 1422.8234327688326 Z"/></g></g><path fill="white" stroke="black" paint-order="fill stroke markers" d=" M 472.9562875666667 1459.3053868054994 L 481.12388921666667 1459.3053868054994 M 481.12388921666667 1440.5199030104993 L 668.1607754866667 1440.5199030104993 L 682.8624584566667 1455.2215859804994 L 682.8624584566667 1478.0908706004993 L 481.12388921666667 1478.0908706004993 L 481.12388921666667 1440.5199030104993 M 668.1607754866667 1440.5199030104993 L 668.1607754866667 1455.2215859804994 L 682.8624584566667 1455.2215859804994" stroke-miterlimit="10" stroke-width="1.3612669416666667" stroke-dasharray=""/><g><text fill="black" stroke="none" font-family="sans-serif" font-size="11pt" font-style="normal" font-weight="normal" text-decoration="normal" x="503.99317383666664" y="1463.3891876304995" text-anchor="start" dominant-baseline="alphabetic">Build fallback details</text></g><g><g><rect fill="white" stroke="none" x="621.14754508" y="1502.5936755504993" width="187.90056099" height="21.23576429"/></g><text fill="black" stroke="none" font-family="sans-serif" font-size="11pt" font-style="normal" font-weight="normal" text-decoration="normal" x="623.597825575" y="1517.2953585204993" text-anchor="start" dominant-baseline="alphabetic">Walking Fallback Details</text></g><g><path fill="none" stroke="black" paint-order="fill stroke markers" d=" M 481.12388921666667 1523.8294398404992 L 946.3492280500001 1523.8294398404992" stroke-miterlimit="10" stroke-width="1.3612669416666667" stroke-dasharray="6.53408132"/><g transform="translate(949.0717619333334,1523.8294398404992) translate(-949.0717619333334,-1523.8294398404992)"><path fill="black" stroke="none" paint-order="stroke fill markers" d=" M 935.4590925166667 1517.023105132166 L 949.0717619333334 1523.8294398404992 L 935.4590925166667 1530.6357745488324 Z"/><g transform="translate(481.12388921666667,1523.8294398404992) translate(-481.12388921666667,-1523.8294398404992)"><path fill="black" stroke="none" paint-order="stroke fill markers" d=" M 494.73655863333335 1517.023105132166 L 481.12388921666667 1523.8294398404992 L 494.73655863333335 1530.6357745488324 Z"/></g></g></g><g><g><rect fill="white" stroke="none" x="968.4017525050001" y="1502.5936755504993" width="153.90056099" height="21.23576429"/></g><text fill="black" stroke="none" font-family="sans-serif" font-size="11pt" font-style="normal" font-weight="normal" text-decoration="normal" x="970.8520330000001" y="1517.2953585204993" text-anchor="start" dominant-baseline="alphabetic">direct_path_with_fp</text></g><g><path fill="none" stroke="black" paint-order="fill stroke markers" d=" M 949.0717619333334 1523.8294398404992 L 1014.4125751333333 1523.8294398404992 L 1014.4125751333333 1540.1646431404993 L 951.7942958166667 1540.1646431404993" stroke-miterlimit="10" stroke-width="1.3612669416666667" stroke-dasharray="6.53408132"/><g transform="translate(949.0717619333334,1540.1646431404993) translate(-949.0717619333334,-1540.1646431404993)"><path fill="black" stroke="none" paint-order="stroke fill markers" d=" M 962.6844313500001 1533.358308432166 L 949.0717619333334 1540.1646431404993 L 962.6844313500001 1546.9709778488325 Z"/><g transform="translate(949.0717619333334,1540.1646431404993) translate(-949.0717619333334,-1540.1646431404993)"><path fill="black" stroke="none" paint-order="stroke fill markers" d=" M 962.6844313500001 1533.358308432166 L 949.0717619333334 1540.1646431404993 L 962.6844313500001 1546.9709778488325 Z"/></g></g></g><g><g><rect fill="white" stroke="none" x="770.1214814383334" y="1564.6674480904992" width="152.90056099" height="21.23576429"/></g><text fill="black" stroke="none" font-family="sans-serif" font-size="11pt" font-style="normal" font-weight="normal" text-decoration="normal" x="772.5717619333334" y="1579.3691310604993" text-anchor="start" dominant-baseline="alphabetic">Car Fallback Details</text></g><g><path fill="none" stroke="black" paint-order="fill stroke markers" d=" M 481.12388921666667 1585.903212380499 L 1209.2971007666667 1585.903212380499" stroke-miterlimit="10" stroke-width="1.3612669416666667" stroke-dasharray="6.53408132"/><g transform="translate(1212.0196346500002,1585.903212380499) translate(-1212.0196346500002,-1585.903212380499)"><path fill="black" stroke="none" paint-order="stroke fill markers" d=" M 1198.4069652333335 1579.0968776721659 L 1212.0196346500002 1585.903212380499 L 1198.4069652333335 1592.7095470888323 Z"/><g transform="translate(481.12388921666667,1585.903212380499) translate(-481.12388921666667,-1585.903212380499)"><path fill="black" stroke="none" paint-order="stroke fill markers" d=" M 494.73655863333335 1579.0968776721659 L 481.12388921666667 1585.903212380499 L 494.73655863333335 1592.7095470888323 Z"/></g></g></g><g><g><rect fill="white" stroke="none" x="1231.3496252216669" y="1564.6674480904992" width="153.90056099" height="21.23576429"/></g><text fill="black" stroke="none" font-family="sans-serif" font-size="11pt" font-style="normal" font-weight="normal" text-decoration="normal" x="1233.799905716667" y="1579.3691310604993" text-anchor="start" dominant-baseline="alphabetic">direct_path_with_fp</text></g><g><path fill="none" stroke="black" paint-order="fill stroke markers" d=" M 1212.0196346500002 1585.903212380499 L 1277.3604478500001 1585.903212380499 L 1277.3604478500001 1602.2384156804992 L 1214.7421685333336 1602.2384156804992" stroke-miterlimit="10" stroke-width="1.3612669416666667" stroke-dasharray="6.53408132"/><g transform="translate(1212.0196346500002,1602.2384156804992) translate(-1212.0196346500002,-1602.2384156804992)"><path fill="black" stroke="none" paint-order="stroke fill markers" d=" M 1225.6323040666668 1595.432080972166 L 1212.0196346500002 1602.2384156804992 L 1225.6323040666668 1609.0447503888324 Z"/><g transform="translate(1212.0196346500002,1602.2384156804992) translate(-1212.0196346500002,-1602.2384156804992)"><path fill="black" stroke="none" paint-order="stroke fill markers" d=" M 1225.6323040666668 1595.432080972166 L 1212.0196346500002 1602.2384156804992 L 1225.6323040666668 1609.0447503888324 Z"/></g></g></g><g><g><rect fill="white" stroke="none" x="898.5954177966667" y="1626.7412206304991" width="158.90056099" height="21.23576429"/></g><text fill="black" stroke="none" font-family="sans-serif" font-size="11pt" font-style="normal" font-weight="normal" text-decoration="normal" x="901.0456982916667" y="1641.4429036004992" text-anchor="start" dominant-baseline="alphabetic">Bike Fallback Details</text></g><g><path fill="none" stroke="black" paint-order="fill stroke markers" d=" M 481.12388921666667 1647.976984920499 L 1472.2449734833333 1647.976984920499" stroke-miterlimit="10" stroke-width="1.3612669416666667" stroke-dasharray="6.53408132"/><g transform="translate(1474.9675073666667,1647.976984920499) translate(-1474.9675073666667,-1647.976984920499)"><path fill="black" stroke="none" paint-order="stroke fill markers" d=" M 1461.35483795 1641.1706502121658 L 1474.9675073666667 1647.976984920499 L 1461.35483795 1654.7833196288323 Z"/><g transform="translate(481.12388921666667,1647.976984920499) translate(-481.12388921666667,-1647.976984920499)"><path fill="black" stroke="none" paint-order="stroke fill markers" d=" M 494.73655863333335 1641.1706502121658 L 481.12388921666667 1647.976984920499 L 494.73655863333335 1654.7833196288323 Z"/></g></g></g><g><g><rect fill="white" stroke="none" x="1494.2974979383334" y="1626.7412206304991" width="153.90056099" height="21.23576429"/></g><text fill="black" stroke="none" font-family="sans-serif" font-size="11pt" font-style="normal" font-weight="normal" text-decoration="normal" x="1496.7477784333335" y="1641.4429036004992" text-anchor="start" dominant-baseline="alphabetic">direct_path_with_fp</text></g><g><path fill="none" stroke="black" paint-order="fill stroke markers" d=" M 1474.9675073666667 1647.976984920499 L 1540.3083205666667 1647.976984920499 L 1540.3083205666667 1664.3121882204991 L 1477.6900412500001 1664.3121882204991" stroke-miterlimit="10" stroke-width="1.3612669416666667" stroke-dasharray="6.53408132"/><g transform="translate(1474.9675073666667,1664.3121882204991) translate(-1474.9675073666667,-1664.3121882204991)"><path fill="black" stroke="none" paint-order="stroke fill markers" d=" M 1488.5801767833334 1657.505853512166 L 1474.9675073666667 1664.3121882204991 L 1488.5801767833334 1671.1185229288324 Z"/><g transform="translate(1474.9675073666667,1664.3121882204991) translate(-1474.9675073666667,-1664.3121882204991)"><path fill="black" stroke="none" paint-order="stroke fill markers" d=" M 1488.5801767833334 1657.505853512166 L 1474.9675073666667 1664.3121882204991 L 1488.5801767833334 1671.1185229288324 Z"/></g></g></g><g><g><rect fill="white" stroke="none" x="492.28627813833333" y="1688.814993170499" width="442.90056099" height="21.23576429"/></g><text fill="black" stroke="none" font-family="sans-serif" font-size="11pt" font-style="normal" font-weight="normal" text-decoration="normal" x="494.73655863333335" y="1703.5166761404992" text-anchor="start" dominant-baseline="alphabetic">Replace temporary crow-fly sections with detailed fallback</text></g><g><path fill="none" stroke="black" paint-order="fill stroke markers" d=" M 472.9562875666667 1710.050757460499 L 538.2971007666666 1710.050757460499 L 538.2971007666666 1726.385960760499 L 475.67882145 1726.385960760499" stroke-miterlimit="10" stroke-width="1.3612669416666667" stroke-dasharray=""/><g transform="translate(472.9562875666667,1726.385960760499) translate(-472.9562875666667,-1726.385960760499)"><path fill="black" stroke="none" paint-order="stroke fill markers" d=" M 486.56895698333335 1719.5796260521658 L 472.9562875666667 1726.385960760499 L 486.56895698333335 1733.1922954688323 Z"/><g transform="translate(472.9562875666667,1726.385960760499) translate(-472.9562875666667,-1726.385960760499)"><path fill="black" stroke="none" paint-order="stroke fill markers" d=" M 486.56895698333335 1719.5796260521658 L 472.9562875666667 1726.385960760499 L 486.56895698333335 1733.1922954688323 Z"/></g></g></g><g><g><rect fill="white" stroke="none" x="289.64193518" y="1750.8887657104992" width="109.90056099" height="21.23576429"/></g><text fill="black" stroke="none" font-family="sans-serif" font-size="11pt" font-style="normal" font-weight="normal" text-decoration="normal" x="292.09221567500003" y="1765.5904486804993" text-anchor="start" dominant-baseline="alphabetic">Final journeys</text></g><g><path fill="none" stroke="black" paint-order="fill stroke markers" d=" M 472.9562875666667 1772.1245300004991 L 218.95067766666665 1772.1245300004991" stroke-miterlimit="10" stroke-width="1.3612669416666667" stroke-dasharray=""/><g transform="translate(216.2281437833333,1772.1245300004991) translate(-216.2281437833333,-1772.1245300004991)"><path fill="black" stroke="none" paint-order="stroke fill markers" d=" M 229.84081319999999 1765.318195292166 L 216.2281437833333 1772.1245300004991 L 229.84081319999999 1778.9308647088324 Z"/></g></g><g><g><rect fill="white" stroke="none" x="57.997592221666665" y="1796.6273349504993" width="138.90056099" height="21.23576429"/></g><text fill="black" stroke="none" font-family="sans-serif" font-size="11pt" font-style="normal" font-weight="normal" text-decoration="normal" x="60.447872716666666" y="1811.3290179204994" text-anchor="start" dominant-baseline="alphabetic">Merged Response</text></g><g><path fill="none" stroke="black" paint-order="fill stroke markers" d=" M 216.2281437833333 1817.8630992404992 L 41.390135533333336 1817.8630992404992" stroke-miterlimit="10" stroke-width="1.3612669416666667" stroke-dasharray=""/><g transform="translate(38.66760165,1817.8630992404992) translate(-38.66760165,-1817.8630992404992)"><path fill="black" stroke="none" paint-order="stroke fill markers" d=" M 52.28027106666667 1811.056764532166 L 38.66760165 1817.8630992404992 L 52.28027106666667 1824.6694339488324 Z"/></g></g></g><g/><g/><g/><g/><g/><g/></g></svg>