<svg version="1.1" xmlns="http://www.w3.org/2000/svg" xmlns:xlink="http://www.w3.org/1999/xlink" width="1279" height="1584"><defs/><g><g/><g/><g/><g/><g/><g/><g/><g/><g/><g/><g/><g/><g/><g/><g/><g/><g/><g/><g/><g/><g/><g/><g/><g/><g/><g/><g/><g/><g/><g/><g/><g><rect fill="white" stroke="none" x="0" y="0" width="1279" height="1584"/></g><g><text fill="black" stroke="none" font-family="sans-serif" font-size="16.5pt" font-style="normal" font-weight="normal" text-decoration="normal" x="578.2403688866666" y="24.50280495" text-anchor="start" dominant-baseline="alphabetic">Distributed</text></g><g/><g><path fill="none" stroke="black" paint-order="fill stroke markers" d=" M 38.66760165 128.80307802049998 L 38.66760165 1584.269692050499" stroke-miterlimit="10" stroke-width="1.3612669416666667" stroke-dasharray="12.565541,5.445067766666667"/><path fill="none" stroke="black" paint-order="fill stroke markers" d=" M 155.39574543333333 128.80307802049998 L 155.39574543333333 1584.269692050499" stroke-miterlimit="10" stroke-width="1.3612669416666667" stroke-dasharray="12.565541,5.445067766666667"/><path fill="none" stroke="black" paint-order="fill stroke markers" d=" M 490.6371196233333 128.80307802049998 L 490.6371196233333 1584.269692050499" stroke-miterlimit="10" stroke-width="1.3612669416666667" stroke-dasharray="12.565541,5.445067766666667"/><path fill="none" stroke="black" paint-order="fill stroke markers" d=" M 753.58499234 128.80307802049998 L 753.58499234 1584.269692050499" stroke-miterlimit="10" stroke-width="1.3612669416666667" stroke-dasharray="12.565541,5.445067766666667"/><path fill="none" stroke="black" paint-order="fill stroke markers" d=" M 1016.5328650566667 128.80307802049998 L 1016.5328650566667 1584.269692050499" stroke-miterlimit="10" stroke-width="1.3612669416666667" stroke-dasharray="12.565541,5.445067766666667"/></g><g><g><path fill="white" stroke="black" paint-order="fill stroke markers" d=" M 47.978667531 59.70516806150002 A 9.311065881 9.311065881 0 1 1 47.97866287546745 59.69585699717086 M 38.66760165 69.01623394250002 L 38.66760165 88.94518196850002 M 26.906255274000003 76.20372339450002 L 50.428948026 76.20372339450002 M 38.66760165 88.94518196850002 L 26.906255274000003 107.56731373050002 M 38.66760165 88.94518196850002 L 50.428948026 107.56731373050002" stroke-miterlimit="10" stroke-width="2.7769845610000004" stroke-dasharray=""/></g><g><g/><text fill="black" stroke="none" font-family="sans-serif" font-size="11pt" font-style="normal" font-weight="normal" text-decoration="normal" x="8.167601650000002" y="123.90251703050001" text-anchor="start" dominant-baseline="alphabetic">Request</text></g><path fill="none" stroke="none"/><g><path fill="white" stroke="black" paint-order="fill stroke markers" d=" M 88.17204985283333 84.69802911050002 L 222.61944101383335 84.69802911050002 L 222.61944101383335 128.8030780205 L 88.17204985283333 128.8030780205 L 88.17204985283333 84.69802911050002 Z" stroke-miterlimit="10" stroke-width="2.613632528" stroke-dasharray=""/></g><g><g/><text fill="black" stroke="none" font-family="sans-serif" font-size="11pt" font-style="normal" font-weight="normal" text-decoration="normal" x="105.89574543333333" y="112.46787472049999" text-anchor="start" dominant-baseline="alphabetic">Jormungandr</text></g><path fill="none" stroke="none"/><g><path fill="white" stroke="black" paint-order="fill stroke markers" d=" M 446.9134240428333 84.69802911050002 L 534.3608152038333 84.69802911050002 L 534.3608152038333 128.8030780205 L 446.9134240428333 128.8030780205 L 446.9134240428333 84.69802911050002 Z" stroke-miterlimit="10" stroke-width="2.613632528" stroke-dasharray=""/></g><g><g/><text fill="black" stroke="none" font-family="sans-serif" font-size="11pt" font-style="normal" font-weight="normal" text-decoration="normal" x="464.6371196233333" y="112.46787472049999" text-anchor="start" dominant-baseline="alphabetic">Kraken</text></g><path fill="none" stroke="none"/><g><path fill="white" stroke="black" paint-order="fill stroke markers" d=" M 706.8612967595 84.69802911050002 L 800.3086879205 84.69802911050002 L 800.3086879205 128.8030780205 L 706.8612967595 128.8030780205 L 706.8612967595 84.69802911050002 Z" stroke-miterlimit="10" stroke-width="2.613632528" stroke-dasharray=""/></g><g><g/><text fill="black" stroke="none" font-family="sans-serif" font-size="11pt" font-style="normal" font-weight="normal" text-decoration="normal" x="724.58499234" y="112.46787472049999" text-anchor="start" dominant-baseline="alphabetic">Valhalla</text></g><path fill="none" stroke="none"/><g><path fill="white" stroke="black" paint-order="fill stroke markers" d=" M 968.3091694761666 84.69802911050002 L 1064.7565606371666 84.69802911050002 L 1064.7565606371666 128.8030780205 L 968.3091694761666 128.8030780205 L 968.3091694761666 84.69802911050002 Z" stroke-miterlimit="10" stroke-width="2.613632528" stroke-dasharray=""/></g><g><g/><text fill="black" stroke="none" font-family="sans-serif" font-size="11pt" font-style="normal" font-weight="normal" text-decoration="normal" x="986.0328650566667" y="112.46787472049999" text-anchor="start" dominant-baseline="alphabetic">Geovelo</text></g></g><g><path fill="gray" stroke="black" paint-order="fill stroke markers" d=" M 147.22814378333334 244.78302145049997 L 163.56334708333333 244.78302145049997 L 163.56334708333333 347.6948022405 L 147.22814378333334 347.6948022405 L 147.22814378333334 244.78302145049997" stroke-miterlimit="10" stroke-width="1.3612669416666667" stroke-dasharray=""/><path fill="gray" stroke="black" paint-order="fill stroke markers" d=" M 147.22814378333334 409.7685747805 L 163.56334708333333 409.7685747805 L 163.56334708333333 587.8222907505 L 147.22814378333334 587.8222907505 L 147.22814378333334 409.7685747805" stroke-miterlimit="10" stroke-width="1.3612669416666667" stroke-dasharray=""/><path fill="gray" stroke="black" paint-order="fill stroke markers" d=" M 147.22814378333334 649.8960632904999 L 163.56334708333333 649.8960632904999 L 163.56334708333333 757.7084050704999 L 147.22814378333334 757.7084050704999 L 147.22814378333334 649.8960632904999" stroke-miterlimit="10" stroke-width="1.3612669416666667" stroke-dasharray=""/><path fill="gray" stroke="black" paint-order="fill stroke markers" d=" M 147.22814378333334 860.6201858604999 L 163.56334708333333 860.6201858604999 L 163.56334708333333 1046.8415034804996 L 147.22814378333334 1046.8415034804996 L 147.22814378333334 860.6201858604999" stroke-miterlimit="10" stroke-width="1.3612669416666667" stroke-dasharray=""/><path fill="gray" stroke="black" paint-order="fill stroke markers" d=" M 147.22814378333334 1108.9152760204995 L 163.56334708333333 1108.9152760204995 L 163.56334708333333 1170.9890485604994 L 147.22814378333334 1170.9890485604994 L 147.22814378333334 1108.9152760204995" stroke-miterlimit="10" stroke-width="1.3612669416666667" stroke-dasharray=""/><path fill="gray" stroke="black" paint-order="fill stroke markers" d=" M 147.22814378333334 1233.0628211004994 L 163.56334708333333 1233.0628211004994 L 163.56334708333333 1481.3579112604991 L 147.22814378333334 1481.3579112604991 L 147.22814378333334 1233.0628211004994" stroke-miterlimit="10" stroke-width="1.3612669416666667" stroke-dasharray=""/><g><g><rect fill="white" stroke="none" x="63.58139304666666" y="161.4734846205" width="66.90056099" height="21.23576429"/></g><text fill="black" stroke="none" font-family="sans-serif" font-size="11pt" font-style="normal" font-weight="normal" text-decoration="normal" x="66.03167354166666" y="176.17516759049997" text-anchor="start" dominant-baseline="alphabetic">/journey</text></g><g><path fill="none" stroke="black" paint-order="fill stroke markers" d=" M 38.66760165 182.70924891049998 L 152.67321155 182.70924891049998" stroke-miterlimit="10" stroke-width="1.3612669416666667" stroke-dasharray=""/><g transform="translate(155.39574543333333,182.70924891049998) translate(-155.39574543333333,-182.70924891049998)"><path fill="black" stroke="none" paint-order="stroke fill markers" d=" M 141.78307601666666 175.90291420216664 L 155.39574543333333 182.70924891049998 L 141.78307601666666 189.51558361883332 Z"/></g></g><path fill="white" stroke="black" paint-order="fill stroke markers" d=" M 155.39574543333333 225.99753765549997 L 163.56334708333333 225.99753765549997 M 163.56334708333333 207.21205386049996 L 353.60023335333335 207.21205386049996 L 368.30191632333333 221.91373683049997 L 368.30191632333333 244.78302145049997 L 163.56334708333333 244.78302145049997 L 163.56334708333333 207.21205386049996 M 353.60023335333335 207.21205386049996 L 353.60023335333335 221.91373683049997 L 368.30191632333333 221.91373683049997" stroke-miterlimit="10" stroke-width="1.3612669416666667" stroke-dasharray=""/><g><text fill="black" stroke="none" font-family="sans-serif" font-size="11pt" font-style="normal" font-weight="normal" text-decoration="normal" x="186.4326317033333" y="230.08133848049994" text-anchor="start" dominant-baseline="alphabetic">Resolve entry points </text></g><g><g><rect fill="white" stroke="none" x="207.64995285833336" y="269.28582640049996" width="238.90056099" height="21.23576429"/></g><text fill="black" stroke="none" font-family="sans-serif" font-size="11pt" font-style="normal" font-weight="normal" text-decoration="normal" x="210.10023335333335" y="283.98750937049994" text-anchor="start" dominant-baseline="alphabetic">PlaceByUri [origin, destination]</text></g><g><path fill="none" stroke="black" paint-order="fill stroke markers" d=" M 163.56334708333333 290.5215906905 L 487.91458574 290.5215906905" stroke-miterlimit="10" stroke-width="1.3612669416666667" stroke-dasharray=""/><g transform="translate(490.6371196233333,290.5215906905) translate(-490.6371196233333,-290.5215906905)"><path fill="black" stroke="none" paint-order="stroke fill markers" d=" M 477.02445020666664 283.71525598216664 L 490.6371196233333 290.5215906905 L 477.02445020666664 297.3279253988333 Z"/><g transform="translate(163.56334708333333,290.5215906905) translate(-163.56334708333333,-290.5215906905)"><path fill="black" stroke="none" paint-order="stroke fill markers" d=" M 177.1760165 283.71525598216664 L 163.56334708333333 290.5215906905 L 177.1760165 297.3279253988333 Z"/></g></g></g><g><g><rect fill="white" stroke="none" x="509.96711019500003" y="269.28582640049996" width="72.90056099" height="21.23576429"/></g><text fill="black" stroke="none" font-family="sans-serif" font-size="11pt" font-style="normal" font-weight="normal" text-decoration="normal" x="512.41739069" y="283.98750937049994" text-anchor="start" dominant-baseline="alphabetic">place_uri</text></g><g><path fill="none" stroke="black" paint-order="fill stroke markers" d=" M 490.6371196233333 290.5215906905 L 555.9779328233333 290.5215906905 L 555.9779328233333 306.85679399049997 L 493.35965350666663 306.85679399049997" stroke-miterlimit="10" stroke-width="1.3612669416666667" stroke-dasharray=""/><g transform="translate(490.6371196233333,306.85679399049997) translate(-490.6371196233333,-306.85679399049997)"><path fill="black" stroke="none" paint-order="stroke fill markers" d=" M 504.24978904 300.0504592821666 L 490.6371196233333 306.85679399049997 L 504.24978904 313.6631286988333 Z"/><g transform="translate(490.6371196233333,306.85679399049997) translate(-490.6371196233333,-306.85679399049997)"><path fill="black" stroke="none" paint-order="stroke fill markers" d=" M 504.24978904 300.0504592821666 L 490.6371196233333 306.85679399049997 L 504.24978904 313.6631286988333 Z"/></g></g></g><path fill="white" stroke="black" paint-order="fill stroke markers" d=" M 155.39574543333333 390.9830909855 L 163.56334708333333 390.9830909855 M 163.56334708333333 372.1976071905 L 399.60023335333335 372.1976071905 L 414.30191632333333 386.89929016049996 L 414.30191632333333 409.7685747805 L 163.56334708333333 409.7685747805 L 163.56334708333333 372.1976071905 M 399.60023335333335 372.1976071905 L 399.60023335333335 386.89929016049996 L 414.30191632333333 386.89929016049996" stroke-miterlimit="10" stroke-width="1.3612669416666667" stroke-dasharray=""/><g><text fill="black" stroke="none" font-family="sans-serif" font-size="11pt" font-style="normal" font-weight="normal" text-decoration="normal" x="186.4326317033333" y="395.06689181049995" text-anchor="start" dominant-baseline="alphabetic">Direct path for every mode</text></g><g><g><rect fill="white" stroke="none" x="289.64995285833334" y="434.2713797305" width="74.90056099" height="21.23576429"/></g><text fill="black" stroke="none" font-family="sans-serif" font-size="11pt" font-style="normal" font-weight="normal" text-decoration="normal" x="292.10023335333335" y="448.97306270049995" text-anchor="start" dominant-baseline="alphabetic">Walking  </text></g><g><path fill="none" stroke="black" paint-order="fill stroke markers" d=" M 163.56334708333333 455.5071440205 L 487.91458574 455.5071440205" stroke-miterlimit="10" stroke-width="1.3612669416666667" stroke-dasharray="6.53408132"/><g transform="translate(490.6371196233333,455.5071440205) translate(-490.6371196233333,-455.5071440205)"><path fill="black" stroke="none" paint-order="stroke fill markers" d=" M 477.02445020666664 448.70080931216665 L 490.6371196233333 455.5071440205 L 477.02445020666664 462.31347872883333 Z"/><g transform="translate(163.56334708333333,455.5071440205) translate(-163.56334708333333,-455.5071440205)"><path fill="black" stroke="none" paint-order="stroke fill markers" d=" M 177.1760165 448.70080931216665 L 163.56334708333333 455.5071440205 L 177.1760165 462.31347872883333 Z"/></g></g></g><g><g><rect fill="white" stroke="none" x="443.62388921666667" y="480.0099489705" width="29.90056099" height="21.23576429"/></g><text fill="black" stroke="none" font-family="sans-serif" font-size="11pt" font-style="normal" font-weight="normal" text-decoration="normal" x="446.0741697116667" y="494.71163194049996" text-anchor="start" dominant-baseline="alphabetic">Car</text></g><g><path fill="none" stroke="black" paint-order="fill stroke markers" d=" M 163.56334708333333 501.2457132605 L 750.8624584566667 501.2457132605" stroke-miterlimit="10" stroke-width="1.3612669416666667" stroke-dasharray="6.53408132"/><g transform="translate(753.58499234,501.2457132605) translate(-753.58499234,-501.2457132605)"><path fill="black" stroke="none" paint-order="stroke fill markers" d=" M 739.9723229233333 494.43937855216666 L 753.58499234 501.2457132605 L 739.9723229233333 508.05204796883334 Z"/><g transform="translate(163.56334708333333,501.2457132605) translate(-163.56334708333333,-501.2457132605)"><path fill="black" stroke="none" paint-order="stroke fill markers" d=" M 177.1760165 494.43937855216666 L 163.56334708333333 501.2457132605 L 177.1760165 508.05204796883334 Z"/></g></g></g><g><g><rect fill="white" stroke="none" x="572.0978255749999" y="525.7485182104999" width="35.90056099" height="21.23576429"/></g><text fill="black" stroke="none" font-family="sans-serif" font-size="11pt" font-style="normal" font-weight="normal" text-decoration="normal" x="574.5481060699999" y="540.4502011804999" text-anchor="start" dominant-baseline="alphabetic">Bike</text></g><g><path fill="none" stroke="black" paint-order="fill stroke markers" d=" M 163.56334708333333 546.9842825005 L 1013.8103311733333 546.9842825005" stroke-miterlimit="10" stroke-width="1.3612669416666667" stroke-dasharray="6.53408132"/><g transform="translate(1016.5328650566667,546.9842825005) translate(-1016.5328650566667,-546.9842825005)"><path fill="black" stroke="none" paint-order="stroke fill markers" d=" M 1002.92019564 540.1779477921666 L 1016.5328650566667 546.9842825005 L 1002.92019564 553.7906172088333 Z"/><g transform="translate(163.56334708333333,546.9842825005) translate(-163.56334708333333,-546.9842825005)"><path fill="black" stroke="none" paint-order="stroke fill markers" d=" M 177.1760165 540.1779477921666 L 163.56334708333333 546.9842825005 L 177.1760165 553.7906172088333 Z"/></g></g></g><path fill="white" stroke="black" paint-order="fill stroke markers" d=" M 155.39574543333333 631.1105794954999 L 163.56334708333333 631.1105794954999 M 163.56334708333333 612.3250957004999 L 369.60023335333335 612.3250957004999 L 384.30191632333333 627.0267786704999 L 384.30191632333333 649.8960632904999 L 163.56334708333333 649.8960632904999 L 163.56334708333333 612.3250957004999 M 369.60023335333335 612.3250957004999 L 369.60023335333335 627.0267786704999 L 384.30191632333333 627.0267786704999" stroke-miterlimit="10" stroke-width="1.3612669416666667" stroke-dasharray=""/><g><text fill="black" stroke="none" font-family="sans-serif" font-size="11pt" font-style="normal" font-weight="normal" text-decoration="normal" x="186.4326317033333" y="635.1943803204999" text-anchor="start" dominant-baseline="alphabetic">Accessible Stop points </text></g><g><g><rect fill="white" stroke="none" x="192.64995285833336" y="674.3988682404998" width="268.90056099" height="21.23576429"/></g><text fill="black" stroke="none" font-family="sans-serif" font-size="11pt" font-style="normal" font-weight="normal" text-decoration="normal" x="195.10023335333335" y="689.1005512104998" text-anchor="start" dominant-baseline="alphabetic">places_nearby [origin, destination]</text></g><g><path fill="none" stroke="black" paint-order="fill stroke markers" d=" M 163.56334708333333 695.6346325304999 L 487.91458574 695.6346325304999" stroke-miterlimit="10" stroke-width="1.3612669416666667" stroke-dasharray=""/><g transform="translate(490.6371196233333,695.6346325304999) translate(-490.6371196233333,-695.6346325304999)"><path fill="black" stroke="none" paint-order="stroke fill markers" d=" M 477.02445020666664 688.8282978221665 L 490.6371196233333 695.6346325304999 L 477.02445020666664 702.4409672388332 Z"/><g transform="translate(163.56334708333333,695.6346325304999) translate(-163.56334708333333,-695.6346325304999)"><path fill="black" stroke="none" paint-order="stroke fill markers" d=" M 177.1760165 688.8282978221665 L 163.56334708333333 695.6346325304999 L 177.1760165 702.4409672388332 Z"/></g></g></g><g><g><rect fill="white" stroke="none" x="259.64995285833334" y="720.1374374804999" width="134.90056099" height="21.23576429"/></g><text fill="black" stroke="none" font-family="sans-serif" font-size="11pt" font-style="normal" font-weight="normal" text-decoration="normal" x="262.10023335333335" y="734.8391204504999" text-anchor="start" dominant-baseline="alphabetic">PlacesFreeAccess</text></g><g><path fill="none" stroke="black" paint-order="fill stroke markers" d=" M 163.56334708333333 741.3732017704999 L 487.91458574 741.3732017704999" stroke-miterlimit="10" stroke-width="1.3612669416666667" stroke-dasharray="6.53408132"/><g transform="translate(490.6371196233333,741.3732017704999) translate(-490.6371196233333,-741.3732017704999)"><path fill="black" stroke="none" paint-order="stroke fill markers" d=" M 477.02445020666664 734.5668670621666 L 490.6371196233333 741.3732017704999 L 477.02445020666664 748.1795364788333 Z"/><g transform="translate(163.56334708333333,741.3732017704999) translate(-163.56334708333333,-741.3732017704999)"><path fill="black" stroke="none" paint-order="stroke fill markers" d=" M 177.1760165 734.5668670621666 L 163.56334708333333 741.3732017704999 L 177.1760165 748.1795364788333 Z"/></g></g></g><g><g><rect fill="white" stroke="none" x="509.96711019500003" y="720.1374374804999" width="125.90056099" height="21.23576429"/></g><text fill="black" stroke="none" font-family="sans-serif" font-size="11pt" font-style="normal" font-weight="normal" text-decoration="normal" x="512.41739069" y="734.8391204504999" text-anchor="start" dominant-baseline="alphabetic">odt_stop_points</text></g><g><path fill="none" stroke="black" paint-order="fill stroke markers" d=" M 490.6371196233333 741.3732017704999 L 555.9779328233333 741.3732017704999 L 555.9779328233333 757.7084050704999 L 493.35965350666663 757.7084050704999" stroke-miterlimit="10" stroke-width="1.3612669416666667" stroke-dasharray="6.53408132"/><g transform="translate(490.6371196233333,757.7084050704999) translate(-490.6371196233333,-757.7084050704999)"><path fill="black" stroke="none" paint-order="stroke fill markers" d=" M 504.24978904 750.9020703621666 L 490.6371196233333 757.7084050704999 L 504.24978904 764.5147397788332 Z"/><g transform="translate(490.6371196233333,757.7084050704999) translate(-490.6371196233333,-757.7084050704999)"><path fill="black" stroke="none" paint-order="stroke fill markers" d=" M 504.24978904 750.9020703621666 L 490.6371196233333 757.7084050704999 L 504.24978904 764.5147397788332 Z"/></g></g></g><path fill="white" stroke="black" paint-order="fill stroke markers" d=" M 155.39574543333333 841.8347020654999 L 163.56334708333333 841.8347020654999 M 163.56334708333333 823.0492182704999 L 403.60023335333335 823.0492182704999 L 418.30191632333333 837.7509012404998 L 418.30191632333333 860.6201858604999 L 163.56334708333333 860.6201858604999 L 163.56334708333333 823.0492182704999 M 403.60023335333335 823.0492182704999 L 403.60023335333335 837.7509012404998 L 418.30191632333333 837.7509012404998" stroke-miterlimit="10" stroke-width="1.3612669416666667" stroke-dasharray=""/><g><text fill="black" stroke="none" font-family="sans-serif" font-size="11pt" font-style="normal" font-weight="normal" text-decoration="normal" x="186.4326317033333" y="845.9185028904999" text-anchor="start" dominant-baseline="alphabetic">Compute fallback durations</text></g><g><g><rect fill="white" stroke="none" x="222.14995285833336" y="885.1229908104998" width="209.90056099" height="21.23576429"/></g><text fill="black" stroke="none" font-family="sans-serif" font-size="11pt" font-style="normal" font-weight="normal" text-decoration="normal" x="224.60023335333335" y="899.8246737804998" text-anchor="start" dominant-baseline="alphabetic">Walking Fallback Durations</text></g><g><path fill="none" stroke="black" paint-order="fill stroke markers" d=" M 163.56334708333333 906.3587551004998 L 487.91458574 906.3587551004998" stroke-miterlimit="10" stroke-width="1.3612669416666667" stroke-dasharray="6.53408132"/><g transform="translate(490.6371196233333,906.3587551004998) translate(-490.6371196233333,-906.3587551004998)"><path fill="black" stroke="none" paint-order="stroke fill markers" d=" M 477.02445020666664 899.5524203921665 L 490.6371196233333 906.3587551004998 L 477.02445020666664 913.1650898088332 Z"/><g transform="translate(163.56334708333333,906.3587551004998) translate(-163.56334708333333,-906.3587551004998)"><path fill="black" stroke="none" paint-order="stroke fill markers" d=" M 177.1760165 899.5524203921665 L 163.56334708333333 906.3587551004998 L 177.1760165 913.1650898088332 Z"/></g></g></g><g><g><rect fill="white" stroke="none" x="509.96711019500003" y="885.1229908104998" width="237.90056099" height="21.23576429"/></g><text fill="black" stroke="none" font-family="sans-serif" font-size="11pt" font-style="normal" font-weight="normal" text-decoration="normal" x="512.41739069" y="899.8246737804998" text-anchor="start" dominant-baseline="alphabetic">street_network_routing_matrix</text></g><g><path fill="none" stroke="black" paint-order="fill stroke markers" d=" M 490.6371196233333 906.3587551004998 L 555.9779328233333 906.3587551004998 L 555.9779328233333 922.6939584004998 L 493.35965350666663 922.6939584004998" stroke-miterlimit="10" stroke-width="1.3612669416666667" stroke-dasharray="6.53408132"/><g transform="translate(490.6371196233333,922.6939584004998) translate(-490.6371196233333,-922.6939584004998)"><path fill="black" stroke="none" paint-order="stroke fill markers" d=" M 504.24978904 915.8876236921665 L 490.6371196233333 922.6939584004998 L 504.24978904 929.5002931088331 Z"/><g transform="translate(490.6371196233333,922.6939584004998) translate(-490.6371196233333,-922.6939584004998)"><path fill="black" stroke="none" paint-order="stroke fill markers" d=" M 504.24978904 915.8876236921665 L 490.6371196233333 922.6939584004998 L 504.24978904 929.5002931088331 Z"/></g></g></g><g><g><rect fill="white" stroke="none" x="371.12388921666667" y="947.1967633504997" width="174.90056099" height="21.23576429"/></g><text fill="black" stroke="none" font-family="sans-serif" font-size="11pt" font-style="normal" font-weight="normal" text-decoration="normal" x="373.5741697116667" y="961.8984463204997" text-anchor="start" dominant-baseline="alphabetic">Car Fallback Durations</text></g><g><path fill="none" stroke="black" paint-order="fill stroke markers" d=" M 163.56334708333333 968.4325276404998 L 750.8624584566667 968.4325276404998" stroke-miterlimit="10" stroke-width="1.3612669416666667" stroke-dasharray="6.53408132"/><g transform="translate(753.58499234,968.4325276404998) translate(-753.58499234,-968.4325276404998)"><path fill="black" stroke="none" paint-order="stroke fill markers" d=" M 739.9723229233333 961.6261929321664 L 753.58499234 968.4325276404998 L 739.9723229233333 975.2388623488331 Z"/><g transform="translate(163.56334708333333,968.4325276404998) translate(-163.56334708333333,-968.4325276404998)"><path fill="black" stroke="none" paint-order="stroke fill markers" d=" M 177.1760165 961.6261929321664 L 163.56334708333333 968.4325276404998 L 177.1760165 975.2388623488331 Z"/></g></g></g><g><g><rect fill="white" stroke="none" x="772.9149829116667" y="947.1967633504997" width="237.90056099" height="21.23576429"/></g><text fill="black" stroke="none" font-family="sans-serif" font-size="11pt" font-style="normal" font-weight="normal" text-decoration="normal" x="775.3652634066667" y="961.8984463204997" text-anchor="start" dominant-baseline="alphabetic">street_network_routing_matrix</text></g><g><path fill="none" stroke="black" paint-order="fill stroke markers" d=" M 753.58499234 968.4325276404998 L 818.9258055399999 968.4325276404998 L 818.9258055399999 984.7677309404997 L 756.3075262233333 984.7677309404997" stroke-miterlimit="10" stroke-width="1.3612669416666667" stroke-dasharray="6.53408132"/><g transform="translate(753.58499234,984.7677309404997) translate(-753.58499234,-984.7677309404997)"><path fill="black" stroke="none" paint-order="stroke fill markers" d=" M 767.1976617566667 977.9613962321664 L 753.58499234 984.7677309404997 L 767.1976617566667 991.5740656488331 Z"/><g transform="translate(753.58499234,984.7677309404997) translate(-753.58499234,-984.7677309404997)"><path fill="black" stroke="none" paint-order="stroke fill markers" d=" M 767.1976617566667 977.9613962321664 L 753.58499234 984.7677309404997 L 767.1976617566667 991.5740656488331 Z"/></g></g></g><g><g><rect fill="white" stroke="none" x="499.5978255749999" y="1009.2705358904994" width="180.90056099" height="21.23576429"/></g><text fill="black" stroke="none" font-family="sans-serif" font-size="11pt" font-style="normal" font-weight="normal" text-decoration="normal" x="502.0481060699999" y="1023.9722188604994" text-anchor="start" dominant-baseline="alphabetic">Bike Fallback Durations</text></g><g><path fill="none" stroke="black" paint-order="fill stroke markers" d=" M 163.56334708333333 1030.5063001804995 L 1013.8103311733333 1030.5063001804995" stroke-miterlimit="10" stroke-width="1.3612669416666667" stroke-dasharray="6.53408132"/><g transform="translate(1016.5328650566667,1030.5063001804995) translate(-1016.5328650566667,-1030.5063001804995)"><path fill="black" stroke="none" paint-order="stroke fill markers" d=" M 1002.92019564 1023.6999654721661 L 1016.5328650566667 1030.5063001804995 L 1002.92019564 1037.3126348888327 Z"/><g transform="translate(163.56334708333333,1030.5063001804995) translate(-163.56334708333333,-1030.5063001804995)"><path fill="black" stroke="none" paint-order="stroke fill markers" d=" M 177.1760165 1023.6999654721661 L 163.56334708333333 1030.5063001804995 L 177.1760165 1037.3126348888327 Z"/></g></g></g><g><g><rect fill="white" stroke="none" x="1035.8628556283334" y="1009.2705358904996" width="237.90056099" height="21.23576429"/></g><text fill="black" stroke="none" font-family="sans-serif" font-size="11pt" font-style="normal" font-weight="normal" text-decoration="normal" x="1038.3131361233334" y="1023.9722188604995" text-anchor="start" dominant-baseline="alphabetic">street_network_routing_matrix</text></g><g><path fill="none" stroke="black" paint-order="fill stroke markers" d=" M 1016.5328650566667 1030.5063001804995 L 1081.8736782566666 1030.5063001804995 L 1081.8736782566666 1046.8415034804996 L 1019.25539894 1046.8415034804996" stroke-miterlimit="10" stroke-width="1.3612669416666667" stroke-dasharray="6.53408132"/><g transform="translate(1016.5328650566667,1046.8415034804996) translate(-1016.5328650566667,-1046.8415034804996)"><path fill="black" stroke="none" paint-order="stroke fill markers" d=" M 1030.1455344733333 1040.0351687721663 L 1016.5328650566667 1046.8415034804996 L 1030.1455344733333 1053.6478381888328 Z"/><g transform="translate(1016.5328650566667,1046.8415034804996) translate(-1016.5328650566667,-1046.8415034804996)"><path fill="black" stroke="none" paint-order="stroke fill markers" d=" M 1030.1455344733333 1040.0351687721663 L 1016.5328650566667 1046.8415034804996 L 1030.1455344733333 1053.6478381888328 Z"/></g></g></g><path fill="white" stroke="black" paint-order="fill stroke markers" d=" M 155.39574543333333 1090.1297922254996 L 163.56334708333333 1090.1297922254996 M 163.56334708333333 1071.3443084304995 L 459.60023335333335 1071.3443084304995 L 474.30191632333333 1086.0459914004996 L 474.30191632333333 1108.9152760204995 L 163.56334708333333 1108.9152760204995 L 163.56334708333333 1071.3443084304995 M 459.60023335333335 1071.3443084304995 L 459.60023335333335 1086.0459914004996 L 474.30191632333333 1086.0459914004996" stroke-miterlimit="10" stroke-width="1.3612669416666667" stroke-dasharray=""/><g><text fill="black" stroke="none" font-family="sans-serif" font-size="11pt" font-style="normal" font-weight="normal" text-decoration="normal" x="186.4326317033333" y="1094.2135930504996" text-anchor="start" dominant-baseline="alphabetic">Compute Public Transport journeys</text></g><g><g><rect fill="white" stroke="none" x="288.64995285833334" y="1133.4180809704994" width="76.90056099" height="21.23576429"/></g><text fill="black" stroke="none" font-family="sans-serif" font-size="11pt" font-style="normal" font-weight="normal" text-decoration="normal" x="291.10023335333335" y="1148.1197639404995" text-anchor="start" dominant-baseline="alphabetic">PtJourney</text></g><g><path fill="none" stroke="black" paint-order="fill stroke markers" d=" M 163.56334708333333 1154.6538452604993 L 487.91458574 1154.6538452604993" stroke-miterlimit="10" stroke-width="1.3612669416666667" stroke-dasharray=""/><g transform="translate(490.6371196233333,1154.6538452604993) translate(-490.6371196233333,-1154.6538452604993)"><path fill="black" stroke="none" paint-order="stroke fill markers" d=" M 477.02445020666664 1147.847510552166 L 490.6371196233333 1154.6538452604993 L 477.02445020666664 1161.4601799688326 Z"/><g transform="translate(163.56334708333333,1154.6538452604993) translate(-163.56334708333333,-1154.6538452604993)"><path fill="black" stroke="none" paint-order="stroke fill markers" d=" M 177.1760165 1147.847510552166 L 163.56334708333333 1154.6538452604993 L 177.1760165 1161.4601799688326 Z"/></g></g></g><g><g><rect fill="white" stroke="none" x="509.96711019500003" y="1133.4180809704994" width="86.90056099" height="21.23576429"/></g><text fill="black" stroke="none" font-family="sans-serif" font-size="11pt" font-style="normal" font-weight="normal" text-decoration="normal" x="512.41739069" y="1148.1197639404995" text-anchor="start" dominant-baseline="alphabetic">pt_planner</text></g><g><path fill="none" stroke="black" paint-order="fill stroke markers" d=" M 490.6371196233333 1154.6538452604993 L 555.9779328233333 1154.6538452604993 L 555.9779328233333 1170.9890485604994 L 493.35965350666663 1170.9890485604994" stroke-miterlimit="10" stroke-width="1.3612669416666667" stroke-dasharray=""/><g transform="translate(490.6371196233333,1170.9890485604994) translate(-490.6371196233333,-1170.9890485604994)"><path fill="black" stroke="none" paint-order="stroke fill markers" d=" M 504.24978904 1164.1827138521662 L 490.6371196233333 1170.9890485604994 L 504.24978904 1177.7953832688327 Z"/><g transform="translate(490.6371196233333,1170.9890485604994) translate(-490.6371196233333,-1170.9890485604994)"><path fill="black" stroke="none" paint-order="stroke fill markers" d=" M 504.24978904 1164.1827138521662 L 490.6371196233333 1170.9890485604994 L 504.24978904 1177.7953832688327 Z"/></g></g></g><path fill="white" stroke="black" paint-order="fill stroke markers" d=" M 155.39574543333333 1214.2773373054995 L 163.56334708333333 1214.2773373054995 M 163.56334708333333 1195.4918535104994 L 351.60023335333335 1195.4918535104994 L 366.30191632333333 1210.1935364804995 L 366.30191632333333 1233.0628211004994 L 163.56334708333333 1233.0628211004994 L 163.56334708333333 1195.4918535104994 M 351.60023335333335 1195.4918535104994 L 351.60023335333335 1210.1935364804995 L 366.30191632333333 1210.1935364804995" stroke-miterlimit="10" stroke-width="1.3612669416666667" stroke-dasharray=""/><g><text fill="black" stroke="none" font-family="sans-serif" font-size="11pt" font-style="normal" font-weight="normal" text-decoration="normal" x="186.4326317033333" y="1218.3611381304995" text-anchor="start" dominant-baseline="alphabetic">Build final responses</text></g><g><g><rect fill="white" stroke="none" x="233.14995285833336" y="1257.5656260504993" width="187.90056099" height="21.23576429"/></g><text fill="black" stroke="none" font-family="sans-serif" font-size="11pt" font-style="normal" font-weight="normal" text-decoration="normal" x="235.60023335333335" y="1272.2673090204994" text-anchor="start" dominant-baseline="alphabetic">Walking Fallback Details</text></g><g><path fill="none" stroke="black" paint-order="fill stroke markers" d=" M 163.56334708333333 1278.8013903404992 L 487.91458574 1278.8013903404992" stroke-miterlimit="10" stroke-width="1.3612669416666667" stroke-dasharray="6.53408132"/><g transform="translate(490.6371196233333,1278.8013903404992) translate(-490.6371196233333,-1278.8013903404992)"><path fill="black" stroke="none" paint-order="stroke fill markers" d=" M 477.02445020666664 1271.995055632166 L 490.6371196233333 1278.8013903404992 L 477.02445020666664 1285.6077250488324 Z"/><g transform="translate(163.56334708333333,1278.8013903404992) translate(-163.56334708333333,-1278.8013903404992)"><path fill="black" stroke="none" paint-order="stroke fill markers" d=" M 177.1760165 1271.995055632166 L 163.56334708333333 1278.8013903404992 L 177.1760165 1285.6077250488324 Z"/></g></g></g><g><g><rect fill="white" stroke="none" x="509.96711019500003" y="1257.5656260504993" width="153.90056099" height="21.23576429"/></g><text fill="black" stroke="none" font-family="sans-serif" font-size="11pt" font-style="normal" font-weight="normal" text-decoration="normal" x="512.41739069" y="1272.2673090204994" text-anchor="start" dominant-baseline="alphabetic">direct_path_with_fp</text></g><g><path fill="none" stroke="black" paint-order="fill stroke markers" d=" M 490.6371196233333 1278.8013903404992 L 555.9779328233333 1278.8013903404992 L 555.9779328233333 1295.1365936404993 L 493.35965350666663 1295.1365936404993" stroke-miterlimit="10" stroke-width="1.3612669416666667" stroke-dasharray="6.53408132"/><g transform="translate(490.6371196233333,1295.1365936404993) translate(-490.6371196233333,-1295.1365936404993)"><path fill="black" stroke="none" paint-order="stroke fill markers" d=" M 504.24978904 1288.330258932166 L 490.6371196233333 1295.1365936404993 L 504.24978904 1301.9429283488325 Z"/><g transform="translate(490.6371196233333,1295.1365936404993) translate(-490.6371196233333,-1295.1365936404993)"><path fill="black" stroke="none" paint-order="stroke fill markers" d=" M 504.24978904 1288.330258932166 L 490.6371196233333 1295.1365936404993 L 504.24978904 1301.9429283488325 Z"/></g></g></g><g><g><rect fill="white" stroke="none" x="382.12388921666667" y="1319.6393985904992" width="152.90056099" height="21.23576429"/></g><text fill="black" stroke="none" font-family="sans-serif" font-size="11pt" font-style="normal" font-weight="normal" text-decoration="normal" x="384.5741697116667" y="1334.3410815604993" text-anchor="start" dominant-baseline="alphabetic">Car Fallback Details</text></g><g><path fill="none" stroke="black" paint-order="fill stroke markers" d=" M 163.56334708333333 1340.8751628804991 L 750.8624584566667 1340.8751628804991" stroke-miterlimit="10" stroke-width="1.3612669416666667" stroke-dasharray="6.53408132"/><g transform="translate(753.58499234,1340.8751628804991) translate(-753.58499234,-1340.8751628804991)"><path fill="black" stroke="none" paint-order="stroke fill markers" d=" M 739.9723229233333 1334.068828172166 L 753.58499234 1340.8751628804991 L 739.9723229233333 1347.6814975888324 Z"/><g transform="translate(163.56334708333333,1340.8751628804991) translate(-163.56334708333333,-1340.8751628804991)"><path fill="black" stroke="none" paint-order="stroke fill markers" d=" M 177.1760165 1334.068828172166 L 163.56334708333333 1340.8751628804991 L 177.1760165 1347.6814975888324 Z"/></g></g></g><g><g><rect fill="white" stroke="none" x="772.9149829116667" y="1319.6393985904992" width="153.90056099" height="21.23576429"/></g><text fill="black" stroke="none" font-family="sans-serif" font-size="11pt" font-style="normal" font-weight="normal" text-decoration="normal" x="775.3652634066667" y="1334.3410815604993" text-anchor="start" dominant-baseline="alphabetic">direct_path_with_fp</text></g><g><path fill="none" stroke="black" paint-order="fill stroke markers" d=" M 753.58499234 1340.8751628804991 L 818.9258055399999 1340.8751628804991 L 818.9258055399999 1357.2103661804992 L 756.3075262233333 1357.2103661804992" stroke-miterlimit="10" stroke-width="1.3612669416666667" stroke-dasharray="6.53408132"/><g transform="translate(753.58499234,1357.2103661804992) translate(-753.58499234,-1357.2103661804992)"><path fill="black" stroke="none" paint-order="stroke fill markers" d=" M 767.1976617566667 1350.404031472166 L 753.58499234 1357.2103661804992 L 767.1976617566667 1364.0167008888325 Z"/><g transform="translate(753.58499234,1357.2103661804992) translate(-753.58499234,-1357.2103661804992)"><path fill="black" stroke="none" paint-order="stroke fill markers" d=" M 767.1976617566667 1350.404031472166 L 753.58499234 1357.2103661804992 L 767.1976617566667 1364.0167008888325 Z"/></g></g></g><g><g><rect fill="white" stroke="none" x="510.5978255749999" y="1381.7131711304992" width="158.90056099" height="21.23576429"/></g><text fill="black" stroke="none" font-family="sans-serif" font-size="11pt" font-style="normal" font-weight="normal" text-decoration="normal" x="513.0481060699999" y="1396.4148541004993" text-anchor="start" dominant-baseline="alphabetic">Bike Fallback Details</text></g><g><path fill="none" stroke="black" paint-order="fill stroke markers" d=" M 163.56334708333333 1402.948935420499 L 1013.8103311733333 1402.948935420499" stroke-miterlimit="10" stroke-width="1.3612669416666667" stroke-dasharray="6.53408132"/><g transform="translate(1016.5328650566667,1402.948935420499) translate(-1016.5328650566667,-1402.948935420499)"><path fill="black" stroke="none" paint-order="stroke fill markers" d=" M 1002.92019564 1396.1426007121659 L 1016.5328650566667 1402.948935420499 L 1002.92019564 1409.7552701288323 Z"/><g transform="translate(163.56334708333333,1402.948935420499) translate(-163.56334708333333,-1402.948935420499)"><path fill="black" stroke="none" paint-order="stroke fill markers" d=" M 177.1760165 1396.1426007121659 L 163.56334708333333 1402.948935420499 L 177.1760165 1409.7552701288323 Z"/></g></g></g><g><g><rect fill="white" stroke="none" x="1035.8628556283334" y="1381.7131711304992" width="153.90056099" height="21.23576429"/></g><text fill="black" stroke="none" font-family="sans-serif" font-size="11pt" font-style="normal" font-weight="normal" text-decoration="normal" x="1038.3131361233334" y="1396.4148541004993" text-anchor="start" dominant-baseline="alphabetic">direct_path_with_fp</text></g><g><path fill="none" stroke="black" paint-order="fill stroke markers" d=" M 1016.5328650566667 1402.948935420499 L 1081.8736782566666 1402.948935420499 L 1081.8736782566666 1419.2841387204992 L 1019.25539894 1419.2841387204992" stroke-miterlimit="10" stroke-width="1.3612669416666667" stroke-dasharray="6.53408132"/><g transform="translate(1016.5328650566667,1419.2841387204992) translate(-1016.5328650566667,-1419.2841387204992)"><path fill="black" stroke="none" paint-order="stroke fill markers" d=" M 1030.1455344733333 1412.477804012166 L 1016.5328650566667 1419.2841387204992 L 1030.1455344733333 1426.0904734288324 Z"/><g transform="translate(1016.5328650566667,1419.2841387204992) translate(-1016.5328650566667,-1419.2841387204992)"><path fill="black" stroke="none" paint-order="stroke fill markers" d=" M 1030.1455344733333 1412.477804012166 L 1016.5328650566667 1419.2841387204992 L 1030.1455344733333 1426.0904734288324 Z"/></g></g></g><g><g><rect fill="white" stroke="none" x="182.893337655" y="1443.786943670499" width="239.90056099" height="21.23576429"/></g><text fill="black" stroke="none" font-family="sans-serif" font-size="11pt" font-style="normal" font-weight="normal" text-decoration="normal" x="185.34361815" y="1458.4886266404992" text-anchor="start" dominant-baseline="alphabetic">wait_and_complete_pt_journey</text></g><g><path fill="none" stroke="black" paint-order="fill stroke markers" d=" M 163.56334708333333 1465.022707960499 L 228.90416028333334 1465.022707960499 L 228.90416028333334 1481.3579112604991 L 166.28588096666667 1481.3579112604991" stroke-miterlimit="10" stroke-width="1.3612669416666667" stroke-dasharray=""/><g transform="translate(163.56334708333333,1481.3579112604991) translate(-163.56334708333333,-1481.3579112604991)"><path fill="black" stroke="none" paint-order="stroke fill markers" d=" M 177.1760165 1474.551576552166 L 163.56334708333333 1481.3579112604991 L 177.1760165 1488.1642459688323 Z"/><g transform="translate(163.56334708333333,1481.3579112604991) translate(-163.56334708333333,-1481.3579112604991)"><path fill="black" stroke="none" paint-order="stroke fill markers" d=" M 177.1760165 1474.551576552166 L 163.56334708333333 1481.3579112604991 L 177.1760165 1488.1642459688323 Z"/></g></g></g><g><g><rect fill="white" stroke="none" x="62.08139304666666" y="1505.8607162104993" width="69.90056099" height="21.23576429"/></g><text fill="black" stroke="none" font-family="sans-serif" font-size="11pt" font-style="normal" font-weight="normal" text-decoration="normal" x="64.53167354166666" y="1520.5623991804994" text-anchor="start" dominant-baseline="alphabetic">journeys</text></g><g><path fill="none" stroke="black" paint-order="fill stroke markers" d=" M 155.39574543333333 1527.0964805004992 L 41.390135533333336 1527.0964805004992" stroke-miterlimit="10" stroke-width="1.3612669416666667" stroke-dasharray=""/><g transform="translate(38.66760165,1527.0964805004992) translate(-38.66760165,-1527.0964805004992)"><path fill="black" stroke="none" paint-order="stroke fill markers" d=" M 52.28027106666667 1520.290145792166 L 38.66760165 1527.0964805004992 L 52.28027106666667 1533.9028152088324 Z"/></g></g></g><g/><g/><g/><g/><g/></g></svg>