<?xml version="1.0" encoding="UTF-8" standalone="no"?> <!DOCTYPE svg PUBLIC "-//W3C//DTD SVG 1.1//EN" "http://www.w3.org/Graphics/SVG/1.1/DTD/svg11.dtd"> <!-- Generated by graphviz version 2.40.1 (20161225.0304) --> <!-- Title: distributed Pages: 1 --> <svg width="1096pt" height="911pt" viewBox="0.00 0.00 1096.00 910.89" xmlns="http://www.w3.org/2000/svg" xmlns:xlink="http://www.w3.org/1999/xlink"> <g id="graph0" class="graph" transform="scale(1 1) rotate(0) translate(4 906.8939)"> <title>distributed</title> <polygon fill="#ffffff" stroke="transparent" points="-4,4 -4,-906.8939 1092,-906.8939 1092,4 -4,4"/> <g id="clust1" class="cluster"> <title>cluster_legend</title> <polygon fill="none" stroke="#000000" points="8,-770.8939 8,-894.8939 562,-894.8939 562,-770.8939 8,-770.8939"/> <text text-anchor="middle" x="38.9362" y="-878.2939" font-family="Times,serif" font-size="14.00" fill="#000000">Legend:</text> </g> <g id="clust2" class="cluster"> <title>cluster_preprocess_for_pt</title> <polygon fill="none" stroke="#ff0000" points="172,-496.4313 172,-762.8939 1080,-762.8939 1080,-496.4313 172,-496.4313"/> <text text-anchor="middle" x="273.6866" y="-746.2939" font-family="Times,serif" font-size="14.00" fill="#ff0000">Preprocess to feed PT calculation</text> </g> <g id="clust3" class="cluster"> <title>cluster_pt_calculation</title> <polygon fill="none" stroke="#ff0000" points="329,-406.0313 329,-488.4313 821,-488.4313 821,-406.0313 329,-406.0313"/> <text text-anchor="middle" x="469.1726" y="-471.8313" font-family="Times,serif" font-size="14.00" fill="#ff0000">PT calculation fallbacks as crowfly (no details)</text> </g> <g id="clust4" class="cluster"> <title>cluster_assembly</title> <polygon fill="none" stroke="#ff0000" points="303,-64 303,-313.2313 821,-313.2313 821,-64 303,-64"/> <text text-anchor="middle" x="363.682" y="-296.6313" font-family="Times,serif" font-size="14.00" fill="#ff0000">Journeys assembly</text> </g> <g id="clust5" class="cluster"> <title>cluster_journey_fiflters</title> <polygon fill="none" stroke="#ff0000" points="460,-321.2313 460,-398.0313 664,-398.0313 664,-321.2313 460,-321.2313"/> <text text-anchor="middle" x="562.0933" y="-381.4313" font-family="Times,serif" font-size="14.00" fill="#ff0000">Filtering common to all scenarios</text> </g> <!-- legend_delegated --> <g id="node1" class="node"> <title>legend_delegated</title> <ellipse fill="none" stroke="#000000" cx="465" cy="-820.4939" rx="89.2001" ry="29.3315"/> <text text-anchor="middle" x="465" y="-824.6939" font-family="Times,serif" font-size="14.00" fill="#000000">Street network</text> <text text-anchor="middle" x="465" y="-807.8939" font-family="Times,serif" font-size="14.00" fill="#000000">external calculation</text> </g> <!-- legend_kraken --> <g id="node2" class="node"> <title>legend_kraken</title> <polygon fill="#add8e6" stroke="#add8e6" points="357.8214,-841.0958 294.1786,-841.0958 294.1786,-799.8919 357.8214,-799.8919 357.8214,-841.0958"/> <text text-anchor="middle" x="326" y="-824.6939" font-family="Times,serif" font-size="14.00" fill="#000000">Done by</text> <text text-anchor="middle" x="326" y="-807.8939" font-family="Times,serif" font-size="14.00" fill="#000000">Kraken</text> </g> <!-- legend_jormungandr --> <g id="node3" class="node"> <title>legend_jormungandr</title> <polygon fill="#ffffe0" stroke="#ffffe0" points="275.8711,-841.0958 186.1289,-841.0958 186.1289,-799.8919 275.8711,-799.8919 275.8711,-841.0958"/> <text text-anchor="middle" x="231" y="-824.6939" font-family="Times,serif" font-size="14.00" fill="#000000">Done by</text> <text text-anchor="middle" x="231" y="-807.8939" font-family="Times,serif" font-size="14.00" fill="#000000">Jormungandr</text> </g> <!-- legend_external --> <g id="node4" class="node"> <title>legend_external</title> <polygon fill="none" stroke="#c0c0c0" points="92,-862.1941 16.2662,-820.4939 92,-778.7936 167.7338,-820.4939 92,-862.1941"/> <text text-anchor="middle" x="92" y="-824.6939" font-family="Times,serif" font-size="14.00" fill="#000000">External</text> <text text-anchor="middle" x="92" y="-807.8939" font-family="Times,serif" font-size="14.00" fill="#000000">interaction</text> </g> <!-- req --> <g id="node5" class="node"> <title>req</title> <polygon fill="none" stroke="#c0c0c0" points="672,-838.4939 571.6502,-820.4939 672,-802.4939 772.3498,-820.4939 672,-838.4939"/> <text text-anchor="middle" x="672" y="-816.2939" font-family="Times,serif" font-size="14.00" fill="#000000">journey request</text> </g> <!-- res_orig --> <g id="node7" class="node"> <title>res_orig</title> <polygon fill="#add8e6" stroke="#add8e6" points="654.8675,-730.0939 561.1325,-730.0939 561.1325,-694.0939 654.8675,-694.0939 654.8675,-730.0939"/> <text text-anchor="middle" x="608" y="-707.8939" font-family="Times,serif" font-size="14.00" fill="#000000">resolve origin</text> </g> <!-- req&#45;&gt;res_orig --> <g id="edge1" class="edge"> <title>req&#45;&gt;res_orig</title> <path fill="none" stroke="#000000" d="M662.2798,-804.0302C652.0909,-786.7728 635.9195,-759.3824 623.8746,-738.9814"/> <polygon fill="#000000" stroke="#000000" points="626.7652,-736.993 618.6671,-730.1613 620.7373,-740.5519 626.7652,-736.993"/> </g> <!-- res_dest --> <g id="node8" class="node"> <title>res_dest</title> <polygon fill="#add8e6" stroke="#add8e6" points="795.8617,-730.0939 674.1383,-730.0939 674.1383,-694.0939 795.8617,-694.0939 795.8617,-730.0939"/> <text text-anchor="middle" x="735" y="-707.8939" font-family="Times,serif" font-size="14.00" fill="#000000">resolve destination</text> </g> <!-- req&#45;&gt;res_dest --> <g id="edge2" class="edge"> <title>req&#45;&gt;res_dest</title> <path fill="none" stroke="#000000" d="M681.5683,-804.0302C691.598,-786.7728 707.5168,-759.3824 719.3735,-738.9814"/> <polygon fill="#000000" stroke="#000000" points="722.5007,-740.5659 724.4995,-730.1613 716.4486,-737.0485 722.5007,-740.5659"/> </g> <!-- resp --> <g id="node6" class="node"> <title>resp</title> <polygon fill="none" stroke="#c0c0c0" points="722,-36 630.3418,-18 722,0 813.6582,-18 722,-36"/> <text text-anchor="middle" x="722" y="-13.8" font-family="Times,serif" font-size="14.00" fill="#000000">final response</text> </g> <!-- orig_free --> <g id="node9" class="node"> <title>orig_free</title> <polygon fill="#add8e6" stroke="#add8e6" points="663.9398,-646.6782 550.0602,-646.6782 550.0602,-610.6782 663.9398,-610.6782 663.9398,-646.6782"/> <text text-anchor="middle" x="607" y="-624.4782" font-family="Times,serif" font-size="14.00" fill="#000000">origin free access</text> </g> <!-- res_orig&#45;&gt;orig_free --> <g id="edge9" class="edge"> <title>res_orig&#45;&gt;orig_free</title> <path fill="none" stroke="#000000" d="M607.783,-693.9939C607.6533,-683.1723 607.4857,-669.189 607.3388,-656.9389"/> <polygon fill="#000000" stroke="#000000" points="610.8363,-656.7001 607.2166,-646.7428 603.8368,-656.7841 610.8363,-656.7001"/> </g> <!-- walk_dp --> <g id="node11" class="node"> <title>walk_dp</title> <ellipse fill="none" stroke="#000000" cx="735" cy="-628.6782" rx="53.2398" ry="29.3315"/> <text text-anchor="middle" x="735" y="-632.8782" font-family="Times,serif" font-size="14.00" fill="#000000">walking</text> <text text-anchor="middle" x="735" y="-616.0782" font-family="Times,serif" font-size="14.00" fill="#000000">direct path</text> </g> <!-- res_orig&#45;&gt;walk_dp --> <g id="edge3" class="edge"> <title>res_orig&#45;&gt;walk_dp</title> <path fill="none" stroke="#000000" d="M635.5571,-693.9939C651.9315,-683.2389 673.0604,-669.3611 691.6284,-657.1654"/> <polygon fill="#000000" stroke="#000000" points="693.7916,-659.932 700.2285,-651.5167 689.9487,-654.0812 693.7916,-659.932"/> </g> <!-- bike_dp --> <g id="node12" class="node"> <title>bike_dp</title> <ellipse fill="none" stroke="#000000" cx="1019" cy="-628.6782" rx="53.2398" ry="29.3315"/> <text text-anchor="middle" x="1019" y="-632.8782" font-family="Times,serif" font-size="14.00" fill="#000000">bike</text> <text text-anchor="middle" x="1019" y="-616.0782" font-family="Times,serif" font-size="14.00" fill="#000000">direct path</text> </g> <!-- res_orig&#45;&gt;bike_dp --> <g id="edge6" class="edge"> <title>res_orig&#45;&gt;bike_dp</title> <path fill="none" stroke="#000000" d="M654.7852,-696.5717C658.223,-695.6616 661.6537,-694.822 665,-694.0939 792.77,-666.2893 831.4349,-694.586 957,-658.0939 961.6191,-656.7514 966.3234,-655.1008 970.9712,-653.2725"/> <polygon fill="#000000" stroke="#000000" points="972.5257,-656.4157 980.3863,-649.312 969.8115,-649.9633 972.5257,-656.4157"/> </g> <!-- orig_walk_pl --> <g id="node13" class="node"> <title>orig_walk_pl</title> <polygon fill="#add8e6" stroke="#add8e6" points="278.0442,-649.2801 179.9558,-649.2801 179.9558,-608.0763 278.0442,-608.0763 278.0442,-649.2801"/> <text text-anchor="middle" x="229" y="-632.8782" font-family="Times,serif" font-size="14.00" fill="#000000">walking origin</text> <text text-anchor="middle" x="229" y="-616.0782" font-family="Times,serif" font-size="14.00" fill="#000000">proximity list</text> </g> <!-- res_orig&#45;&gt;orig_walk_pl --> <g id="edge11" class="edge"> <title>res_orig&#45;&gt;orig_walk_pl</title> <path fill="none" stroke="#000000" d="M561.2273,-708.6807C497.7691,-703.0546 381.4743,-689.1935 287,-658.0939 283.0186,-656.7832 278.9722,-655.2341 274.9633,-653.5432"/> <polygon fill="#000000" stroke="#000000" points="276.2813,-650.2983 265.7258,-649.3861 273.4086,-656.6817 276.2813,-650.2983"/> </g> <!-- orig_bike_pl --> <g id="node14" class="node"> <title>orig_bike_pl</title> <polygon fill="#add8e6" stroke="#add8e6" points="387.8395,-649.2801 296.1605,-649.2801 296.1605,-608.0763 387.8395,-608.0763 387.8395,-649.2801"/> <text text-anchor="middle" x="342" y="-632.8782" font-family="Times,serif" font-size="14.00" fill="#000000">bike origin</text> <text text-anchor="middle" x="342" y="-616.0782" font-family="Times,serif" font-size="14.00" fill="#000000">proximity list</text> </g> <!-- res_orig&#45;&gt;orig_bike_pl --> <g id="edge13" class="edge"> <title>res_orig&#45;&gt;orig_bike_pl</title> <path fill="none" stroke="#000000" d="M561.3136,-703.513C517.8788,-694.748 451.8017,-679.402 397,-658.0939 393.7215,-656.8191 390.3895,-655.3942 387.0703,-653.8779"/> <polygon fill="#000000" stroke="#000000" points="388.3329,-650.6011 377.8051,-649.4108 385.2928,-656.9065 388.3329,-650.6011"/> </g> <!-- dest_free --> <g id="node10" class="node"> <title>dest_free</title> <polygon fill="#add8e6" stroke="#add8e6" points="947.9342,-646.6782 806.0658,-646.6782 806.0658,-610.6782 947.9342,-610.6782 947.9342,-646.6782"/> <text text-anchor="middle" x="877" y="-624.4782" font-family="Times,serif" font-size="14.00" fill="#000000">destination free access</text> </g> <!-- res_dest&#45;&gt;dest_free --> <g id="edge10" class="edge"> <title>res_dest&#45;&gt;dest_free</title> <path fill="none" stroke="#000000" d="M765.8119,-693.9939C786.8389,-681.6419 814.8777,-665.1709 837.5377,-651.8597"/> <polygon fill="#000000" stroke="#000000" points="839.3987,-654.8258 846.2482,-646.7428 835.8531,-648.7901 839.3987,-654.8258"/> </g> <!-- res_dest&#45;&gt;walk_dp --> <g id="edge5" class="edge"> <title>res_dest&#45;&gt;walk_dp</title> <path fill="none" stroke="#000000" d="M735,-693.9939C735,-686.4044 735,-677.2598 735,-668.2486"/> <polygon fill="#000000" stroke="#000000" points="738.5001,-668.2213 735,-658.2213 731.5001,-668.2214 738.5001,-668.2213"/> </g> <!-- res_dest&#45;&gt;bike_dp --> <g id="edge8" class="edge"> <title>res_dest&#45;&gt;bike_dp</title> <path fill="none" stroke="#000000" d="M795.8044,-700.8031C840.9759,-691.5781 903.7275,-676.9864 957,-658.0939 961.4669,-656.5097 966.0427,-654.7076 970.5857,-652.7935"/> <polygon fill="#000000" stroke="#000000" points="972.0689,-655.9648 979.8193,-648.7412 969.2557,-649.555 972.0689,-655.9648"/> </g> <!-- dest_walk_pl --> <g id="node15" class="node"> <title>dest_walk_pl</title> <polygon fill="#add8e6" stroke="#add8e6" points="532.0386,-649.2801 405.9614,-649.2801 405.9614,-608.0763 532.0386,-608.0763 532.0386,-649.2801"/> <text text-anchor="middle" x="469" y="-632.8782" font-family="Times,serif" font-size="14.00" fill="#000000">walking destination</text> <text text-anchor="middle" x="469" y="-616.0782" font-family="Times,serif" font-size="14.00" fill="#000000">proximity list</text> </g> <!-- res_dest&#45;&gt;dest_walk_pl --> <g id="edge15" class="edge"> <title>res_dest&#45;&gt;dest_walk_pl</title> <path fill="none" stroke="#000000" d="M674.0962,-695.9702C626.9063,-683.322 565.5607,-666.4974 541,-658.0939 536.4486,-656.5366 531.7696,-654.8431 527.0867,-653.0814"/> <polygon fill="#000000" stroke="#000000" points="528.0983,-649.7204 517.5086,-649.3915 525.5818,-656.2525 528.0983,-649.7204"/> </g> <!-- walking_pt_walking --> <g id="node19" class="node"> <title>walking_pt_walking</title> <polygon fill="#add8e6" stroke="#add8e6" points="576.8955,-455.4332 337.1045,-455.4332 337.1045,-414.2294 576.8955,-414.2294 576.8955,-455.4332"/> <text text-anchor="middle" x="457" y="-439.0313" font-family="Times,serif" font-size="14.00" fill="#000000">compute:</text> <text text-anchor="middle" x="457" y="-422.2313" font-family="Times,serif" font-size="14.00" fill="#000000">walking_crowfly&gt;PT&gt;walking_crowfly</text> </g> <!-- orig_free&#45;&gt;walking_pt_walking --> <g id="edge20" class="edge"> <title>orig_free&#45;&gt;walking_pt_walking</title> <path fill="none" stroke="#000000" d="M622.6281,-610.6302C644.7024,-582.8994 679.2392,-529.5529 650,-496.4313 640.5144,-485.6862 599.8546,-492.1032 586,-488.4313 559.5239,-481.4142 531.3013,-470.1564 508.0263,-459.7653"/> <polygon fill="#000000" stroke="#000000" points="509.2577,-456.4805 498.7053,-455.533 506.3636,-462.8543 509.2577,-456.4805"/> </g> <!-- bike_pt_walking --> <g id="node20" class="node"> <title>bike_pt_walking</title> <polygon fill="#add8e6" stroke="#add8e6" points="813.3984,-455.4332 594.6016,-455.4332 594.6016,-414.2294 813.3984,-414.2294 813.3984,-455.4332"/> <text text-anchor="middle" x="704" y="-439.0313" font-family="Times,serif" font-size="14.00" fill="#000000">compute:</text> <text text-anchor="middle" x="704" y="-422.2313" font-family="Times,serif" font-size="14.00" fill="#000000">bike_crowfly&gt;PT&gt;walking_crowfly</text> </g> <!-- orig_free&#45;&gt;bike_pt_walking --> <g id="edge25" class="edge"> <title>orig_free&#45;&gt;bike_pt_walking</title> <path fill="none" stroke="#000000" d="M636.8254,-610.5473C653.1005,-599.0524 672.1005,-582.6985 683,-563.2626 699.8778,-533.1662 704.0917,-493.2692 704.7448,-465.9772"/> <polygon fill="#000000" stroke="#000000" points="708.2459,-465.8592 704.838,-455.8275 701.2462,-465.7949 708.2459,-465.8592"/> </g> <!-- dest_free&#45;&gt;walking_pt_walking --> <g id="edge21" class="edge"> <title>dest_free&#45;&gt;walking_pt_walking</title> <path fill="none" stroke="#000000" d="M857.019,-610.6669C819.8112,-577.5576 740.6378,-509.2302 707,-496.4313 656.6279,-477.2651 638.477,-500.7134 586,-488.4313 558.6908,-482.0396 529.7293,-470.4842 506.1816,-459.7349"/> <polygon fill="#000000" stroke="#000000" points="507.6499,-456.5578 497.1069,-455.5107 504.6958,-462.9039 507.6499,-456.5578"/> </g> <!-- dest_free&#45;&gt;bike_pt_walking --> <g id="edge26" class="edge"> <title>dest_free&#45;&gt;bike_pt_walking</title> <path fill="none" stroke="#000000" d="M871.1631,-610.4922C861.6165,-583.0522 840.4181,-530.6438 808,-496.4313 794.4818,-482.1648 776.9351,-470.0923 760.1168,-460.5179"/> <polygon fill="#000000" stroke="#000000" points="761.3305,-457.192 750.8785,-455.4577 757.9677,-463.3314 761.3305,-457.192"/> </g> <!-- walk_dp&#45;&gt;walking_pt_walking --> <g id="edge19" class="edge"> <title>walk_dp&#45;&gt;walking_pt_walking</title> <path fill="none" stroke="#000000" d="M729.0661,-599.2324C721.1215,-568.124 703.7904,-520.3346 669,-496.4313 653.7275,-485.9381 603.9768,-492.9248 586,-488.4313 559.1171,-481.7116 530.534,-470.3129 507.1235,-459.7506"/> <polygon fill="#000000" stroke="#000000" points="508.3076,-456.4429 497.7596,-455.4468 505.3842,-462.8032 508.3076,-456.4429"/> </g> <!-- collect --> <g id="node26" class="node"> <title>collect</title> <polygon fill="#ffffe0" stroke="#ffffe0" points="783.0227,-108 660.9773,-108 660.9773,-72 783.0227,-72 783.0227,-108"/> <text text-anchor="middle" x="722" y="-85.8" font-family="Times,serif" font-size="14.00" fill="#000000">collect all journeys</text> </g> <!-- walk_dp&#45;&gt;collect --> <g id="edge4" class="edge"> <title>walk_dp&#45;&gt;collect</title> <path fill="none" stroke="#000000" d="M760.3896,-602.5985C791.7488,-567.5165 841,-501.7641 841,-434.8313 841,-434.8313 841,-434.8313 841,-251.0156 841,-202.7093 850.2908,-183.1552 822,-144 812.4786,-130.8221 798.7265,-120.5329 784.4536,-112.6382"/> <polygon fill="#000000" stroke="#000000" points="786.0232,-109.5096 775.5326,-108.0275 782.8093,-115.7282 786.0232,-109.5096"/> </g> <!-- bike_dp&#45;&gt;bike_pt_walking --> <g id="edge24" class="edge"> <title>bike_dp&#45;&gt;bike_pt_walking</title> <path fill="none" stroke="#000000" d="M990.2361,-603.8099C956.5194,-575.4529 898.2107,-528.8378 843,-496.4313 819.2865,-482.5124 791.8557,-469.7212 767.6596,-459.4448"/> <polygon fill="#000000" stroke="#000000" points="768.7871,-456.1225 758.2112,-455.4886 766.0834,-462.5793 768.7871,-456.1225"/> </g> <!-- bike_dp&#45;&gt;collect --> <g id="edge7" class="edge"> <title>bike_dp&#45;&gt;collect</title> <path fill="none" stroke="#000000" d="M1015.2921,-599.1762C1010.8502,-561.2231 1004,-493.2267 1004,-434.8313 1004,-434.8313 1004,-434.8313 1004,-251.0156 1004,-154.043 876.6891,-114.6916 793.1491,-99.3084"/> <polygon fill="#000000" stroke="#000000" points="793.6462,-95.8421 783.1898,-97.549 792.4284,-102.7354 793.6462,-95.8421"/> </g> <!-- orig_walk_matrix --> <g id="node16" class="node"> <title>orig_walk_matrix</title> <ellipse fill="none" stroke="#000000" cx="249" cy="-533.8469" rx="69.1559" ry="29.3315"/> <text text-anchor="middle" x="249" y="-538.0469" font-family="Times,serif" font-size="14.00" fill="#000000">walking origin</text> <text text-anchor="middle" x="249" y="-521.2469" font-family="Times,serif" font-size="14.00" fill="#000000">sn matrix</text> </g> <!-- orig_walk_pl&#45;&gt;orig_walk_matrix --> <g id="edge12" class="edge"> <title>orig_walk_pl&#45;&gt;orig_walk_matrix</title> <path fill="none" stroke="#000000" d="M233.4386,-607.6321C235.557,-597.5876 238.1637,-585.2281 240.6336,-573.5167"/> <polygon fill="#000000" stroke="#000000" points="244.1143,-573.9732 242.7533,-563.4661 237.2649,-572.5286 244.1143,-573.9732"/> </g> <!-- orig_bike_matrix --> <g id="node17" class="node"> <title>orig_bike_matrix</title> <ellipse fill="none" stroke="#000000" cx="587" cy="-533.8469" rx="54.4609" ry="29.3315"/> <text text-anchor="middle" x="587" y="-538.0469" font-family="Times,serif" font-size="14.00" fill="#000000">bike origin</text> <text text-anchor="middle" x="587" y="-521.2469" font-family="Times,serif" font-size="14.00" fill="#000000">sn matrix</text> </g> <!-- orig_bike_pl&#45;&gt;orig_bike_matrix --> <g id="edge14" class="edge"> <title>orig_bike_pl&#45;&gt;orig_bike_matrix</title> <path fill="none" stroke="#000000" d="M378.1634,-607.9438C384.3423,-604.8067 390.7771,-601.7821 397,-599.2626 450.9839,-577.4053 468.3818,-583.4826 523,-563.2626 527.5621,-561.5737 532.2518,-559.6993 536.9192,-557.738"/> <polygon fill="#000000" stroke="#000000" points="538.6363,-560.8085 546.4206,-553.6214 535.8533,-554.3854 538.6363,-560.8085"/> </g> <!-- dest_walk_matrix --> <g id="node18" class="node"> <title>dest_walk_matrix</title> <ellipse fill="none" stroke="#000000" cx="425" cy="-533.8469" rx="89.2457" ry="29.3315"/> <text text-anchor="middle" x="425" y="-538.0469" font-family="Times,serif" font-size="14.00" fill="#000000">walking destination</text> <text text-anchor="middle" x="425" y="-521.2469" font-family="Times,serif" font-size="14.00" fill="#000000">sn matrix</text> </g> <!-- dest_walk_pl&#45;&gt;dest_walk_matrix --> <g id="edge16" class="edge"> <title>dest_walk_pl&#45;&gt;dest_walk_matrix</title> <path fill="none" stroke="#000000" d="M459.235,-607.6321C454.4404,-597.2985 448.509,-584.5149 442.9378,-572.5074"/> <polygon fill="#000000" stroke="#000000" points="445.9593,-570.7036 438.5755,-563.1056 439.6095,-573.6499 445.9593,-570.7036"/> </g> <!-- orig_walk_matrix&#45;&gt;walking_pt_walking --> <g id="edge17" class="edge"> <title>orig_walk_matrix&#45;&gt;walking_pt_walking</title> <path fill="none" stroke="#000000" d="M295.1767,-511.6518C305.6364,-506.6368 316.6966,-501.3436 327,-496.4313 352.3751,-484.3333 380.5679,-470.9654 404.1951,-459.783"/> <polygon fill="#000000" stroke="#000000" points="405.8032,-462.8941 413.3455,-455.4534 402.8093,-456.5667 405.8032,-462.8941"/> </g> <!-- orig_bike_matrix&#45;&gt;bike_pt_walking --> <g id="edge22" class="edge"> <title>orig_bike_matrix&#45;&gt;bike_pt_walking</title> <path fill="none" stroke="#000000" d="M616.524,-508.8611C633.4311,-494.5529 654.6581,-476.5888 671.9676,-461.9399"/> <polygon fill="#000000" stroke="#000000" points="674.243,-464.5994 679.6154,-455.4677 669.721,-459.256 674.243,-464.5994"/> </g> <!-- dest_walk_matrix&#45;&gt;walking_pt_walking --> <g id="edge18" class="edge"> <title>dest_walk_matrix&#45;&gt;walking_pt_walking</title> <path fill="none" stroke="#000000" d="M434.5144,-504.4071C438.5267,-491.9922 443.1939,-477.5507 447.233,-465.0528"/> <polygon fill="#000000" stroke="#000000" points="450.5682,-466.114 450.3131,-455.5223 443.9074,-463.9613 450.5682,-466.114"/> </g> <!-- dest_walk_matrix&#45;&gt;bike_pt_walking --> <g id="edge23" class="edge"> <title>dest_walk_matrix&#45;&gt;bike_pt_walking</title> <path fill="none" stroke="#000000" d="M479.7763,-510.5501C493.9721,-505.2347 509.3826,-500.0834 524,-496.4313 550.9554,-489.6966 559.2778,-496.0387 586,-488.4313 610.3179,-481.5084 636.023,-470.3356 657.2119,-459.9778"/> <polygon fill="#000000" stroke="#000000" points="658.9124,-463.041 666.3029,-455.4494 655.7913,-456.7753 658.9124,-463.041"/> </g> <!-- Journey_Filters --> <g id="node27" class="node"> <title>Journey_Filters</title> <polygon fill="#ffffe0" stroke="#ffffe0" points="608.4734,-365.2313 515.5266,-365.2313 515.5266,-329.2313 608.4734,-329.2313 608.4734,-365.2313"/> <text text-anchor="middle" x="562" y="-343.0313" font-family="Times,serif" font-size="14.00" fill="#000000">journey_filter</text> </g> <!-- walking_pt_walking&#45;&gt;Journey_Filters --> <g id="edge27" class="edge"> <title>walking_pt_walking&#45;&gt;Journey_Filters</title> <path fill="none" stroke="#000000" d="M481.8835,-414.0713C496.9631,-401.4906 516.2922,-385.3647 532.1864,-372.1043"/> <polygon fill="#000000" stroke="#000000" points="534.7078,-374.5589 540.1443,-365.4652 530.2235,-369.1839 534.7078,-374.5589"/> </g> <!-- bike_pt_walking&#45;&gt;Journey_Filters --> <g id="edge33" class="edge"> <title>bike_pt_walking&#45;&gt;Journey_Filters</title> <path fill="none" stroke="#000000" d="M670.348,-414.0713C649.2998,-401.0866 622.1297,-384.3254 600.2634,-370.836"/> <polygon fill="#000000" stroke="#000000" points="601.9057,-367.7368 591.5572,-365.4652 598.2304,-373.6944 601.9057,-367.7368"/> </g> <!-- orig_walk_fallback --> <g id="node21" class="node"> <title>orig_walk_fallback</title> <ellipse fill="none" stroke="#000000" cx="741" cy="-251.0156" rx="71.5211" ry="29.3315"/> <text text-anchor="middle" x="741" y="-255.2156" font-family="Times,serif" font-size="14.00" fill="#000000">walking origin</text> <text text-anchor="middle" x="741" y="-238.4156" font-family="Times,serif" font-size="14.00" fill="#000000">fallback details</text> </g> <!-- assemble_walk_pt_walk --> <g id="node24" class="node"> <title>assemble_walk_pt_walk</title> <polygon fill="#ffffe0" stroke="#ffffe0" points="812.6208,-185.4019 573.3792,-185.4019 573.3792,-144.1981 812.6208,-144.1981 812.6208,-185.4019"/> <text text-anchor="middle" x="693" y="-169" font-family="Times,serif" font-size="14.00" fill="#000000">replace crowflies &amp; assemble responses</text> <text text-anchor="middle" x="693" y="-152.2" font-family="Times,serif" font-size="14.00" fill="#000000">walking&gt;PT&gt;walking</text> </g> <!-- orig_walk_fallback&#45;&gt;assemble_walk_pt_walk --> <g id="edge31" class="edge"> <title>orig_walk_fallback&#45;&gt;assemble_walk_pt_walk</title> <path fill="none" stroke="#000000" d="M725.0167,-222.3071C720.0374,-213.3635 714.5381,-203.4858 709.5227,-194.4774"/> <polygon fill="#000000" stroke="#000000" points="712.4358,-192.5146 704.5134,-185.4799 706.3198,-195.9196 712.4358,-192.5146"/> </g> <!-- orig_bike_fallback --> <g id="node22" class="node"> <title>orig_bike_fallback</title> <ellipse fill="none" stroke="#000000" cx="383" cy="-251.0156" rx="71.5211" ry="29.3315"/> <text text-anchor="middle" x="383" y="-255.2156" font-family="Times,serif" font-size="14.00" fill="#000000">bike origin</text> <text text-anchor="middle" x="383" y="-238.4156" font-family="Times,serif" font-size="14.00" fill="#000000">fallback details</text> </g> <!-- assemble_bike_pt_walk --> <g id="node25" class="node"> <title>assemble_bike_pt_walk</title> <polygon fill="#ffffe0" stroke="#ffffe0" points="555.6208,-185.4019 316.3792,-185.4019 316.3792,-144.1981 555.6208,-144.1981 555.6208,-185.4019"/> <text text-anchor="middle" x="436" y="-169" font-family="Times,serif" font-size="14.00" fill="#000000">replace crowflies &amp; assemble responses</text> <text text-anchor="middle" x="436" y="-152.2" font-family="Times,serif" font-size="14.00" fill="#000000">bike&gt;PT&gt;walking</text> </g> <!-- orig_bike_fallback&#45;&gt;assemble_bike_pt_walk --> <g id="edge37" class="edge"> <title>orig_bike_fallback&#45;&gt;assemble_bike_pt_walk</title> <path fill="none" stroke="#000000" d="M400.6482,-222.3071C406.204,-213.2694 412.3463,-203.2777 417.9309,-194.1932"/> <polygon fill="#000000" stroke="#000000" points="421.0319,-195.8319 423.2873,-185.4799 415.0686,-192.166 421.0319,-195.8319"/> </g> <!-- dest_walk_fallback --> <g id="node23" class="node"> <title>dest_walk_fallback</title> <ellipse fill="none" stroke="#000000" cx="562" cy="-251.0156" rx="89.2457" ry="29.3315"/> <text text-anchor="middle" x="562" y="-255.2156" font-family="Times,serif" font-size="14.00" fill="#000000">walking destination</text> <text text-anchor="middle" x="562" y="-238.4156" font-family="Times,serif" font-size="14.00" fill="#000000">fallback details</text> </g> <!-- dest_walk_fallback&#45;&gt;assemble_walk_pt_walk --> <g id="edge29" class="edge"> <title>dest_walk_fallback&#45;&gt;assemble_walk_pt_walk</title> <path fill="none" stroke="#000000" d="M602.0161,-224.6796C618.1418,-214.0668 636.7088,-201.8472 652.8481,-191.2253"/> <polygon fill="#000000" stroke="#000000" points="655.1046,-193.9303 661.5337,-185.5091 651.2563,-188.083 655.1046,-193.9303"/> </g> <!-- dest_walk_fallback&#45;&gt;assemble_bike_pt_walk --> <g id="edge35" class="edge"> <title>dest_walk_fallback&#45;&gt;assemble_bike_pt_walk</title> <path fill="none" stroke="#000000" d="M523.1677,-224.4446C507.7932,-213.9246 490.1553,-201.8558 474.7854,-191.3389"/> <polygon fill="#000000" stroke="#000000" points="476.738,-188.4341 466.5086,-185.6756 472.7851,-194.2112 476.738,-188.4341"/> </g> <!-- assemble_walk_pt_walk&#45;&gt;collect --> <g id="edge32" class="edge"> <title>assemble_walk_pt_walk&#45;&gt;collect</title> <path fill="none" stroke="#000000" d="M701.0781,-143.964C704.2441,-135.798 707.9219,-126.3117 711.3029,-117.591"/> <polygon fill="#000000" stroke="#000000" points="714.5994,-118.7706 714.951,-108.1816 708.0728,-116.2402 714.5994,-118.7706"/> </g> <!-- assemble_bike_pt_walk&#45;&gt;collect --> <g id="edge38" class="edge"> <title>assemble_bike_pt_walk&#45;&gt;collect</title> <path fill="none" stroke="#000000" d="M514.9078,-144.1626C557.461,-133.0333 609.5613,-119.407 650.8583,-108.6063"/> <polygon fill="#000000" stroke="#000000" points="651.7828,-111.9823 660.5717,-106.0659 650.0115,-105.2101 651.7828,-111.9823"/> </g> <!-- collect&#45;&gt;resp --> <g id="edge39" class="edge"> <title>collect&#45;&gt;resp</title> <path fill="none" stroke="#000000" d="M722,-71.8314C722,-64.131 722,-54.9743 722,-46.4166"/> <polygon fill="#000000" stroke="#000000" points="725.5001,-46.4132 722,-36.4133 718.5001,-46.4133 725.5001,-46.4132"/> </g> <!-- Journey_Filters&#45;&gt;orig_walk_fallback --> <g id="edge30" class="edge"> <title>Journey_Filters&#45;&gt;orig_walk_fallback</title> <path fill="none" stroke="#000000" d="M608.6663,-334.4251C625.3584,-328.976 643.9898,-321.863 660,-313.2313 674.8643,-305.2174 689.8789,-294.556 702.875,-284.3258"/> <polygon fill="#000000" stroke="#000000" points="705.0903,-287.0356 710.6866,-278.0393 700.7017,-281.5822 705.0903,-287.0356"/> </g> <!-- Journey_Filters&#45;&gt;orig_bike_fallback --> <g id="edge36" class="edge"> <title>Journey_Filters&#45;&gt;orig_bike_fallback</title> <path fill="none" stroke="#000000" d="M515.3337,-334.4251C498.6416,-328.976 480.0102,-321.863 464,-313.2313 449.1357,-305.2174 434.1211,-294.556 421.125,-284.3258"/> <polygon fill="#000000" stroke="#000000" points="423.2983,-281.5822 413.3134,-278.0393 418.9097,-287.0356 423.2983,-281.5822"/> </g> <!-- Journey_Filters&#45;&gt;dest_walk_fallback --> <g id="edge28" class="edge"> <title>Journey_Filters&#45;&gt;dest_walk_fallback</title> <path fill="none" stroke="#000000" d="M556.5885,-329.1339C555.4526,-318.2024 555.0397,-303.8289 555.3497,-290.395"/> <polygon fill="#000000" stroke="#000000" points="558.8481,-290.5026 555.7278,-280.3777 551.8531,-290.2385 558.8481,-290.5026"/> </g> <!-- Journey_Filters&#45;&gt;dest_walk_fallback --> <g id="edge34" class="edge"> <title>Journey_Filters&#45;&gt;dest_walk_fallback</title> <path fill="none" stroke="#000000" d="M567.4115,-329.1339C568.5474,-318.2024 568.9603,-303.8289 568.6503,-290.395"/> <polygon fill="#000000" stroke="#000000" points="572.1469,-290.2385 568.2722,-280.3777 565.1519,-290.5026 572.1469,-290.2385"/> </g> </g> </svg>