<?xml version="1.0" encoding="utf-8"?>
<!-- Generator: Adobe Illustrator 19.2.1, SVG Export Plug-In . SVG Version: 6.00 Build 0)  -->
<svg version="1.0" id="Calque_1" xmlns="http://www.w3.org/2000/svg" xmlns:xlink="http://www.w3.org/1999/xlink" x="0px" y="0px"
	 viewBox="0 0 400 200" style="enable-background:new 0 0 400 200;" xml:space="preserve">
<style type="text/css">
	.st0{fill:#536271;}
</style>
<g>
	<path class="st0" d="M90,101.9c-1.6,0-2.9,1.3-2.9,2.9c0,4.5-3.6,8.1-8.1,8.1s-8.1-3.6-8.1-8.1c0-0.1,0-0.3,0-0.3
		c0-2.8,1-5.1,1.9-6.6c0.9-1.7,3-6.2,3-10.7C75.8,77,68.1,69,58.2,69c-9.8,0-17.5,8-17.5,18.1c0,4.5,2.1,9,3,10.7
		c0.7,1.2,1.9,3.7,1.9,6.6c0,0.1,0,0.2,0,0.4c0,4.5-3.6,8.1-8.1,8.1s-8.1-3.6-8.1-8.1c0-1.6-1.3-2.9-2.9-2.9s-2.9,1.3-2.9,2.9
		c0,7.6,6.2,13.8,13.8,13.8c0.4,0,0.8,0,1.2-0.1c-3,2.6-4.7,6.3-4.7,10.3v8.6c0,1.6,1.3,2.9,2.9,2.9c1.6,0,2.9-1.3,2.9-2.9v-8.6
		c0-4.4,3.6-7.9,7.9-7.9s7.9,3.6,7.9,7.9v8.6c0,1.6,1.3,2.9,2.9,2.9c1.6,0,2.9-1.3,2.9-2.9v-8.6c0-4.4,3.5-7.9,7.9-7.9
		s7.9,3.6,7.9,7.9v8.6c0,1.6,1.3,2.9,2.9,2.9s2.9-1.3,2.9-2.9v-8.6c0-4-1.8-7.8-4.7-10.3c0.4,0,0.8,0,1.2,0
		c7.6,0,13.8-6.2,13.8-13.8C92.9,103.2,91.6,101.9,90,101.9z M52.9,106c-1.8,0-3.3-1.9-3.3-4.2s1.5-4.2,3.3-4.2s3.3,1.9,3.3,4.2
		S54.7,106,52.9,106z M64,106c-1.8,0-3.3-1.9-3.3-4.2s1.5-4.2,3.3-4.2c1.8,0,3.3,1.9,3.3,4.2S65.8,106,64,106z"/>
	<path class="st0" d="M153,101.8c-4.9,0-9.5,1.8-13.1,5.1v-1.8c0-1.8-1.4-3.2-3.2-3.2s-3.2,1.4-3.2,3.2V137c0,1.7,1.3,3.1,3,3.2h0.1
		c0.1,0,0.2,0,0.3,0c1.8,0,3.2-1.4,3.2-3.2l-0.1-15.9c0-7.1,5.8-12.9,12.9-12.9c7.1,0,12.9,5.8,12.9,12.9v16c0,1.8,1.4,3.2,3.2,3.2
		c1.7,0,3.2-1.4,3.2-3.2v-16C172.2,110.5,163.6,101.8,153,101.8z"/>
	<path class="st0" d="M281.2,102.1c-1.8,0-3.2,1.4-3.2,3.2v31.9c0,1.8,1.4,3.2,3.2,3.2c1.8,0,3.2-1.4,3.2-3.2v-31.9
		C284.4,103.5,283,102.1,281.2,102.1z"/>
	<circle class="st0" cx="281.2" cy="92.2" r="3.7"/>
	<path class="st0" d="M333.3,102.1c-1.8,0-3.2,1.4-3.2,3.2v31.9c0,1.8,1.4,3.2,3.2,3.2s3.2-1.4,3.2-3.2v-31.9
		C336.5,103.5,335,102.1,333.3,102.1z"/>
	<circle class="st0" cx="333.3" cy="92.2" r="3.7"/>
	<path class="st0" d="M265.2,102.4c-0.8-0.3-1.6-0.4-2.4-0.1s-1.4,0.9-1.8,1.7l-11.5,25.4L238,103.9c-0.3-0.8-1-1.4-1.8-1.7
		c-0.8-0.3-1.7-0.3-2.4,0.1c-1.6,0.7-2.3,2.6-1.6,4.2l14.4,31.9c0.5,1.1,1.7,1.9,2.9,1.9l0,0c1.2,0,2.4-0.7,2.9-1.9l14.4-31.8
		c0.4-0.8,0.4-1.6,0.1-2.4C266.6,103.4,266,102.8,265.2,102.4z"/>
	<path class="st0" d="M218.2,101.7c-1.8,0-3.2,1.4-3.2,3.2v1.8c-3.6-3.2-8.1-5-13-5c-10.6,0-19.3,8.6-19.3,19.3
		c0,10.6,8.6,19.3,19.3,19.3c4.8,0,9.4-1.8,13-5v1.7c0,1.8,1.4,3.2,3.2,3.2s3.2-1.4,3.2-3.2v-32.1
		C221.3,103.1,219.9,101.7,218.2,101.7z M202,133.9c-7.1,0-12.9-5.8-12.9-12.9s5.8-12.9,12.9-12.9c7.1,0,12.9,5.8,12.9,12.9
		C214.9,128.1,209.1,133.9,202,133.9z"/>
	<path class="st0" d="M383.2,101.7c-1.8,0-3.2,1.4-3.2,3.2v1.8c-3.6-3.2-8.1-5-13-5c-10.6,0-19.3,8.6-19.3,19.3s8.6,19.3,19.3,19.3
		c4.8,0,9.4-1.8,13-5v1.7c0,1.8,1.4,3.2,3.2,3.2s3.2-1.4,3.2-3.2v-32.1C386.4,103.1,385,101.7,383.2,101.7z M367.1,133.9
		c-7.1,0-12.9-5.8-12.9-12.9s5.8-12.9,12.9-12.9S380,113.9,380,121C380,128.1,374.2,133.9,367.1,133.9z"/>
	<path class="st0" d="M315.8,108.1c1.8,0,3.2-1.4,3.2-3.2c0-1.8-1.4-3.2-3.2-3.2h-3.2h-2.4V91.3c0-1.8-1.4-3.2-3.2-3.2
		c-0.9,0-1.7,0.3-2.3,0.9c-0.6,0.6-0.9,1.4-0.9,2.3v10.4H302h-3.2c-1.8,0-3.2,1.4-3.2,3.2c0,1.8,1.4,3.2,3.2,3.2h3.2h1.8v22.3
		c0,5.5,4.5,10,10,10c1,0,2-0.2,3-0.5c1.7-0.5,2.6-2.4,2.1-4c-0.5-1.7-2.3-2.6-4-2.1c-0.3,0.1-0.7,0.2-1.1,0.2
		c-1.9,0-3.5-1.6-3.5-3.5v-2v-20.2h2.4h3.1V108.1z"/>
</g>
</svg>
